<?xml version="1.0" standalone="no"?>
<!DOCTYPE svg PUBLIC "-//W3C//DTD SVG 1.1//EN" "http://www.w3.org/Graphics/SVG/1.1/DTD/svg11.dtd">
<svg width="500" height="500" title="polygons" version="1.1" viewBox="0 0 500 500" xmlns="http://www.w3.org/2000/svg" class="svg-paper">
  <g>

    <!-- File name: '0-0-rotating-hearts' -->
    <!-- File type: svg -->


    <desc>pwidth:500;pheight:500;</desc>
    <path
       stroke="#000000"
       stroke-width="0.4mm"
       fill="none"
       d="M250,250L250,250L250,246.94L250.00,246.88L250.02,246.73L250.06,246.47L250.14,246.12L250.27,245.69L250.47,245.19L250.73,244.64L251.06,244.04L251.49,243.42L251.99,242.80L252.58,242.18L253.26,241.60L254.02,241.06L254.85,240.59L255.75,240.19L256.72,239.88L257.73,239.66L258.78,239.55L259.85,239.55L260.92,239.66L261.99,239.89L263.03,240.23L264.04,240.67L264.98,241.21L265.86,241.84L266.65,242.56L267.34,243.35L267.93,244.20L268.39,245.10L268.73,246.04L268.93,247.01L269,248.00L268.93,249.01L268.73,250.01L268.39,251.01L267.93,252.00L267.34,252.97L266.65,253.93L265.86,254.87L264.98,255.79L264.04,256.69L263.03,257.58L261.99,258.44L260.92,259.29L259.85,260.13L258.78,260.95L257.73,261.76L256.72,262.55L255.75,263.32L254.85,264.08L254.02,264.82L253.26,265.54L252.58,266.23L251.99,266.88L251.49,267.50L251.06,268.08L250.73,268.60L250.47,269.07L250.27,269.48L250.14,269.82L250.06,270.09L250.02,270.29L250.00,270.41L250,270.45L250.00,270.41L249.98,270.29L249.94,270.09L249.86,269.82L249.73,269.48L249.53,269.07L249.27,268.60L248.94,268.08L248.51,267.50L248.01,266.88L247.42,266.23L246.74,265.54L245.98,264.82L245.15,264.08L244.25,263.32L243.28,262.55L242.27,261.76L241.22,260.95L240.16,260.13L239.08,259.29L238.01,258.44L236.97,257.58L235.96,256.69L235.02,255.79L234.14,254.87L233.35,253.93L232.66,252.97L232.07,252.00L231.61,251.01L231.27,250.01L231.07,249.01L231,248.00L231.07,247.01L231.27,246.04L231.61,245.10L232.07,244.20L232.66,243.35L233.35,242.56L234.14,241.84L235.02,241.21L235.96,240.67L236.97,240.23L238.01,239.89L239.08,239.66L240.16,239.55L241.22,239.55L242.27,239.66L243.28,239.88L244.25,240.19L245.15,240.59L245.98,241.06L246.74,241.60L247.42,242.18L248.01,242.80L248.51,243.42L248.94,244.04L249.27,244.64L249.53,245.19L249.73,245.69L249.86,246.12L249.94,246.47L249.98,246.73L250.00,246.88L250,244.92L250.00,244.85L250.02,244.66L250.07,244.34L250.18,243.90L250.34,243.37L250.58,242.74L250.91,242.05L251.33,241.30L251.86,240.53L252.49,239.75L253.23,238.98L254.07,238.25L255.02,237.58L256.06,236.99L257.19,236.49L258.40,236.10L259.66,235.83L260.97,235.69L262.31,235.69L263.65,235.83L264.99,236.11L266.29,236.53L267.55,237.08L268.73,237.76L269.82,238.56L270.81,239.45L271.68,240.44L272.41,241.50L272.99,242.63L273.41,243.81L273.66,245.02L273.75,246.26L273.66,247.51L273.41,248.76L272.99,250.01L272.41,251.25L271.68,252.47L270.81,253.66L269.82,254.84L268.73,255.99L267.55,257.12L266.29,258.22L264.99,259.31L263.65,260.37L262.31,261.41L260.97,262.44L259.66,263.44L258.40,264.43L257.19,265.40L256.06,266.35L255.02,267.28L254.07,268.17L253.23,269.03L252.49,269.86L251.86,270.63L251.33,271.35L250.91,272.00L250.58,272.59L250.34,273.1L250.18,273.53L250.07,273.87L250.02,274.11L250.00,274.26L250,274.31L250.00,274.26L249.98,274.11L249.93,273.87L249.82,273.53L249.66,273.1L249.42,272.59L249.09,272.00L248.67,271.35L248.14,270.63L247.51,269.86L246.77,269.03L245.93,268.17L244.98,267.28L243.94,266.35L242.81,265.40L241.60,264.43L240.34,263.44L239.03,262.44L237.69,261.41L236.35,260.37L235.01,259.31L233.71,258.22L232.45,257.12L231.27,255.99L230.18,254.84L229.19,253.66L228.32,252.47L227.59,251.25L227.01,250.01L226.59,248.76L226.34,247.51L226.25,246.26L226.34,245.02L226.59,243.81L227.01,242.63L227.59,241.50L228.32,240.44L229.19,239.45L230.18,238.56L231.27,237.76L232.45,237.08L233.71,236.53L235.01,236.11L236.35,235.83L237.69,235.69L239.03,235.69L240.34,235.83L241.60,236.10L242.81,236.49L243.94,236.99L244.98,237.58L245.93,238.25L246.77,238.98L247.51,239.75L248.14,240.53L248.67,241.30L249.09,242.05L249.42,242.74L249.66,243.37L249.82,243.90L249.93,244.34L249.98,244.66L250.00,244.85L250,242.90L250.00,242.83L250.03,242.59L250.09,242.21L250.21,241.69L250.41,241.04L250.70,240.29L251.09,239.45L251.60,238.56L252.23,237.63L252.99,236.69L253.87,235.77L254.89,234.90L256.02,234.10L257.28,233.38L258.63,232.78L260.08,232.31L261.59,231.99L263.16,231.83L264.77,231.83L266.38,232.00L267.98,232.33L269.55,232.84L271.05,233.50L272.48,234.31L273.79,235.27L274.98,236.34L276.01,237.52L276.89,238.80L277.58,240.15L278.09,241.57L278.40,243.02L278.5,244.51L278.40,246.01L278.09,247.51L277.58,249.01L276.89,250.50L276.01,251.96L274.98,253.40L273.79,254.81L272.48,256.19L271.05,257.54L269.55,258.87L267.98,260.17L266.38,261.44L264.77,262.69L263.16,263.92L261.59,265.13L260.08,266.32L258.63,267.49L257.28,268.62L256.02,269.73L254.89,270.81L253.87,271.84L252.99,272.83L252.23,273.75L251.60,274.62L251.09,275.40L250.70,276.11L250.41,276.72L250.21,277.23L250.09,277.64L250.03,277.94L250.00,278.11L250,278.17L250.00,278.11L249.97,277.94L249.91,277.64L249.79,277.23L249.59,276.72L249.30,276.11L248.91,275.40L248.40,274.62L247.77,273.75L247.01,272.83L246.13,271.84L245.11,270.81L243.97,269.73L242.72,268.62L241.37,267.49L239.92,266.32L238.41,265.13L236.84,263.92L235.23,262.69L233.62,261.44L232.02,260.17L230.45,258.87L228.95,257.54L227.53,256.19L226.21,254.81L225.03,253.40L223.99,251.96L223.11,250.50L222.41,249.01L221.91,247.51L221.60,246.01L221.5,244.51L221.60,243.02L221.91,241.57L222.41,240.15L223.11,238.80L223.99,237.52L225.03,236.34L226.21,235.27L227.53,234.31L228.95,233.50L230.45,232.84L232.02,232.33L233.62,232.00L235.23,231.83L236.84,231.83L238.41,231.99L239.92,232.31L241.37,232.78L242.72,233.38L243.97,234.10L245.11,234.90L246.13,235.77L247.01,236.69L247.77,237.63L248.40,238.56L248.91,239.45L249.30,240.29L249.59,241.04L249.79,241.69L249.91,242.21L249.97,242.59L250.00,242.83L250,240.89L250.00,240.80L250.03,240.52L250.10,240.07L250.25,239.47L250.48,238.71L250.81,237.84L251.27,236.86L251.86,235.82L252.60,234.74L253.48,233.64L254.52,232.57L255.70,231.55L257.03,230.61L258.49,229.78L260.07,229.08L261.76,228.53L263.53,228.16L265.36,227.96L267.23,227.96L269.11,228.16L270.98,228.56L272.81,229.14L274.56,229.92L276.22,230.87L277.75,231.98L279.14,233.23L280.35,234.61L281.37,236.10L282.18,237.68L282.77,239.33L283.13,241.03L283.25,242.76L283.13,244.51L282.77,246.26L282.18,248.01L281.37,249.75L280.35,251.45L279.14,253.13L277.75,254.78L276.22,256.39L274.56,257.97L272.81,259.51L270.98,261.03L269.11,262.52L267.23,263.98L265.36,265.41L263.53,266.82L261.76,268.21L260.07,269.57L258.49,270.89L257.03,272.19L255.70,273.44L254.52,274.65L253.48,275.80L252.60,276.88L251.86,277.88L251.27,278.80L250.81,279.63L250.48,280.34L250.25,280.94L250.10,281.41L250.03,281.76L250.00,281.97L250,282.04L250.00,281.97L249.97,281.76L249.90,281.41L249.75,280.94L249.52,280.34L249.19,279.63L248.73,278.80L248.14,277.88L247.40,276.88L246.52,275.80L245.48,274.65L244.30,273.44L242.97,272.19L241.51,270.89L239.93,269.57L238.24,268.21L236.47,266.82L234.64,265.41L232.77,263.98L230.89,262.52L229.02,261.03L227.19,259.51L225.44,257.97L223.78,256.39L222.25,254.78L220.86,253.13L219.65,251.45L218.63,249.75L217.82,248.01L217.23,246.26L216.87,244.51L216.75,242.76L216.87,241.03L217.23,239.33L217.82,237.68L218.63,236.10L219.65,234.61L220.86,233.23L222.25,231.98L223.78,230.87L225.44,229.92L227.19,229.14L229.02,228.56L230.89,228.16L232.77,227.96L234.64,227.96L236.47,228.16L238.24,228.53L239.93,229.08L241.51,229.78L242.97,230.61L244.30,231.55L245.48,232.57L246.52,233.64L247.40,234.74L248.14,235.82L248.73,236.86L249.19,237.84L249.52,238.71L249.75,239.47L249.90,240.07L249.97,240.52L250.03,241.11L249.97,240.52L249.90,240.07L249.75,239.47L249.52,238.71L249.19,237.84L248.73,236.86L248.14,235.82L247.40,234.74L246.52,233.64L245.48,232.57L244.30,231.55L242.97,230.61L241.51,229.78L239.93,229.08L238.24,228.53L236.47,228.16L234.64,227.96L232.77,227.96L230.89,228.16L229.02,228.56L227.19,229.14L225.44,229.92L224.06,230.71L224.06,230.71L226.31,227.82L226.31,227.82L229.71,225.13L232.89,222.50L235.84,219.93L238.51,217.45L240.90,215.06L242.98,212.78L244.76,210.64L246.25,208.64L247.44,206.82L248.36,205.19L249.04,203.77L249.50,202.59L249.79,201.65L249.94,200.97L249.99,200.55L250,200.42L250.01,200.53L250.01,200.53L250,222.51L250,222.51L250.01,222.28L250.07,221.63L250.24,220.57L250.56,219.15L251.09,217.39L251.85,215.34L252.90,213.06L254.25,210.62L255.93,208.09L257.96,205.52L260.33,203.01L263.05,200.61L266.09,198.39L269.45,196.42L273.08,194.76L276.96,193.45L281.04,192.54L285.27,192.05L289.59,192.01L293.95,192.44L298.27,193.32L302.51,194.65L306.58,196.42L310.44,198.60L314.01,201.16L317.25,204.06L320.09,207.26L322.49,210.72L324.41,214.40L325.82,218.24L326.70,222.20L327.02,226.25L326.79,230.35L326.01,234.46L324.69,238.56L322.85,242.63L320.52,246.64L317.75,250.59L314.57,254.47L311.04,258.28L307.22,262.01L303.16,265.67L298.93,269.26L294.60,272.78L290.23,276.25L285.88,279.66L281.62,283.02L277.5,286.33L273.57,289.57L269.88,292.75L266.47,295.85L263.37,298.85L260.60,301.74L258.18,304.51L256.11,307.12L254.38,309.54L252.99,311.77L251.91,313.76L251.12,315.51L250.58,316.98L250.25,318.15L250.07,319.01L250.01,319.55L250,319.75L249.99,319.62L249.93,319.16L249.75,318.38L249.41,317.28L248.87,315.88L248.07,314.19L246.98,312.25L245.58,310.07L243.83,307.69L241.72,305.11L239.26,302.37L236.43,299.49L233.27,296.49L229.78,293.39L226.00,290.20L221.96,286.94L217.72,283.61L213.32,280.21L208.83,276.75L204.30,273.22L199.81,269.62L195.41,265.95L191.17,262.21L187.16,258.37L183.45,254.46L180.09,250.45L177.14,246.36L174.64,242.2L172.64,237.97L171.18,233.7L170.27,229.40L169.93,225.12L170.18,220.86L170.99,216.69L172.37,212.64L174.28,208.75L176.70,205.08L179.59,201.66L182.89,198.56L186.56,195.80L190.54,193.44L194.75,191.50L199.15,190.02L203.65,189.01L208.19,188.49L212.71,188.44L217.14,188.88L221.42,189.77L225.51,191.08L229.34,192.76L232.88,194.78L236.11,197.07L238.99,199.56L241.50,202.18L243.66,204.85L245.45,207.51L246.89,210.07L248.01,212.45L248.83,214.60L249.40,216.44L249.74,217.93L249.92,219.02L250,219.91L250.01,219.66L250.08,218.96L250.26,217.82L250.61,216.29L251.17,214.39L252.00,212.18L253.13,209.72L254.59,207.09L256.41,204.35L258.59,201.59L261.15,198.88L264.08,196.29L267.37,193.90L270.99,191.78L274.91,189.99L279.10,188.58L283.50,187.60L288.06,187.07L292.72,187.03L297.42,187.49L302.08,188.45L306.65,189.89L311.05,191.80L315.20,194.16L319.05,196.92L322.54,200.05L325.60,203.51L328.19,207.24L330.26,211.21L331.77,215.35L332.72,219.63L333.06,224.00L332.81,228.42L331.96,232.85L330.53,237.27L328.55,241.66L326.03,245.99L323.04,250.25L319.61,254.43L315.80,258.53L311.68,262.55L307.30,266.50L302.75,270.37L298.07,274.17L293.36,277.90L288.68,281.58L284.08,285.2L279.64,288.76L275.40,292.25L271.43,295.67L267.75,299.01L264.41,302.25L261.42,305.36L258.81,308.34L256.58,311.14L254.72,313.76L253.22,316.15L252.06,318.3L251.21,320.18L250.63,321.75L250.27,323.01L250.08,323.94L250.01,324.51L250,324.73L249.99,324.59L249.92,324.09L249.73,323.24L249.37,322.05L248.78,320.54L247.92,318.73L246.75,316.64L245.24,314.29L243.36,311.72L241.09,308.94L238.44,305.99L235.40,302.89L231.99,299.66L228.24,296.32L224.17,292.89L219.83,289.37L215.26,285.78L210.53,282.13L205.70,278.40L200.83,274.60L196.00,270.73L191.26,266.78L186.71,262.75L182.40,258.63L178.41,254.41L174.80,250.11L171.62,245.71L168.94,241.23L166.80,236.69L165.23,232.09L164.25,227.47L163.89,222.86L164.16,218.29L165.04,213.80L166.52,209.45L168.58,205.27L171.19,201.32L174.30,197.65L177.85,194.32L181.80,191.36L186.07,188.82L190.61,186.74L195.34,185.15L200.18,184.07L205.06,183.51L209.92,183.47L214.68,183.94L219.29,184.89L223.68,186.30L227.80,188.12L231.61,190.29L235.07,192.75L238.16,195.43L240.87,198.25L243.19,201.12L245.11,203.98L246.66,206.73L247.86,209.29L248.75,211.60L249.35,213.58L249.72,215.19L249.92,216.36L250,217.31L250.01,217.05L250.08,216.30L250.28,215.08L250.65,213.43L251.26,211.39L252.15,209.02L253.36,206.38L254.93,203.56L256.88,200.62L259.22,197.66L261.97,194.74L265.12,191.97L268.64,189.41L272.53,187.13L276.74,185.21L281.23,183.70L285.95,182.65L290.85,182.09L295.85,182.06L300.89,182.55L305.90,183.58L310.79,185.13L315.51,187.18L319.96,189.71L324.09,192.68L327.83,196.04L331.11,199.75L333.88,203.76L336.10,208.02L337.73,212.46L338.73,217.05L339.10,221.74L338.83,226.48L337.92,231.24L336.38,235.99L334.24,240.69L331.55,245.33L328.33,249.90L324.65,254.39L320.56,258.79L316.14,263.1L311.44,267.33L306.56,271.48L301.55,275.55L296.49,279.56L291.46,283.50L286.54,287.38L281.77,291.19L277.23,294.94L272.97,298.60L269.03,302.18L265.44,305.64L262.24,308.98L259.44,312.17L257.05,315.17L255.06,317.97L253.45,320.54L252.21,322.84L251.30,324.84L250.67,326.53L250.29,327.88L250.09,328.86L250.01,329.48L250,329.71L249.99,329.56L249.91,329.02L249.71,328.11L249.33,326.83L248.70,325.21L247.78,323.26L246.52,321.02L244.9,318.50L242.88,315.75L240.46,312.77L237.62,309.61L234.36,306.28L230.71,302.82L226.69,299.25L222.34,295.57L217.69,291.80L212.81,287.96L207.75,284.04L202.57,280.05L197.36,275.99L192.18,271.84L187.12,267.62L182.25,263.30L177.64,258.88L173.37,254.37L169.50,249.76L166.11,245.06L163.24,240.26L160.95,235.40L159.27,230.48L158.23,225.54L157.85,220.61L158.14,215.72L159.08,210.92L160.68,206.26L162.88,201.79L165.68,197.57L169.00,193.64L172.81,190.08L177.04,186.91L181.61,184.2L186.47,181.98L191.52,180.28L196.70,179.12L201.93,178.53L207.13,178.49L212.23,178.99L217.15,180.02L221.85,181.53L226.25,183.47L230.33,185.80L234.04,188.43L237.34,191.30L240.24,194.31L242.71,197.39L244.77,200.44L246.43,203.38L247.72,206.13L248.66,208.60L249.31,210.72L249.71,212.44L249.91,213.69L250,214.72L250.01,214.43L250.09,213.63L250.30,212.33L250.70,210.56L251.35,208.39L252.30,205.86L253.59,203.04L255.27,200.03L257.35,196.89L259.86,193.72L262.79,190.61L266.15,187.65L269.92,184.91L274.07,182.49L278.57,180.44L283.37,178.83L288.41,177.71L293.64,177.11L298.98,177.08L304.36,177.61L309.71,178.71L314.94,180.37L319.97,182.56L324.73,185.27L329.14,188.44L333.12,192.03L336.63,196L339.58,200.28L341.95,204.83L343.68,209.58L344.75,214.48L345.14,219.49L344.85,224.55L343.87,229.63L342.22,234.70L339.94,239.72L337.06,244.68L333.62,249.56L329.69,254.35L325.33,259.04L320.60,263.65L315.59,268.16L310.37,272.59L305.02,276.94L299.62,281.21L294.25,285.42L288.99,289.56L283.91,293.62L279.06,297.62L274.51,301.53L270.30,305.34L266.48,309.04L263.06,312.6L260.08,316.00L257.52,319.20L255.40,322.19L253.68,324.92L252.36,327.37L251.38,329.51L250.72,331.31L250.31,332.74L250.09,333.79L250.01,334.44L250,334.69L249.99,334.52L249.91,333.95L249.69,332.97L249.28,331.61L248.61,329.88L247.63,327.8L246.29,325.40L244.56,322.72L242.41,319.77L239.82,316.6L236.79,313.23L233.33,309.68L229.44,305.99L225.15,302.18L220.51,298.25L215.56,294.24L210.35,290.14L204.95,285.96L199.44,281.71L193.89,277.37L188.37,272.95L182.98,268.45L177.78,263.84L172.87,259.14L168.32,254.33L164.21,249.42L160.60,244.40L157.55,239.30L155.11,234.11L153.32,228.87L152.22,223.61L151.81,218.35L152.12,213.14L153.13,208.03L154.83,203.07L157.19,198.31L160.16,193.81L163.71,189.63L167.77,185.83L172.27,182.47L177.15,179.58L182.32,177.22L187.71,175.41L193.23,174.18L198.80,173.55L204.34,173.51L209.77,174.05L215.02,175.14L220.02,176.75L224.71,178.83L229.05,181.31L233,184.11L236.52,187.17L239.60,190.38L242.24,193.66L244.43,196.91L246.2,200.05L247.57,202.97L248.57,205.60L249.26,207.86L249.69,209.69L249.91,211.03L250,212.12L250.01,211.82L250.09,210.96L250.31,209.58L250.74,207.70L251.43,205.39L252.44,202.69L253.82,199.70L255.61,196.49L257.82,193.16L260.49,189.79L263.61,186.48L267.19,183.33L271.20,180.42L275.62,177.84L280.4,175.66L285.50,173.95L290.87,172.76L296.43,172.13L302.11,172.10L307.83,172.66L313.52,173.84L319.08,175.60L324.43,177.94L329.49,180.82L334.18,184.20L338.42,188.02L342.14,192.25L345.28,196.80L347.79,201.64L349.63,206.69L350.77,211.91L351.18,217.23L350.86,222.62L349.82,228.03L348.07,233.41L345.64,238.75L342.57,244.03L338.92,249.21L334.73,254.31L330.09,259.30L325.06,264.19L319.73,268.99L314.18,273.70L308.49,278.32L302.75,282.86L297.04,287.34L291.45,291.73L286.04,296.06L280.89,300.30L276.05,304.46L271.58,308.51L267.51,312.44L263.88,316.22L260.71,319.83L257.99,323.23L255.73,326.40L253.91,329.31L252.50,331.91L251.47,334.18L250.76,336.08L250.32,337.61L250.10,338.72L250.01,339.41L250,339.67L249.99,339.49L249.90,338.88L249.68,337.84L249.24,336.38L248.52,334.54L247.48,332.33L246.06,329.79L244.22,326.93L241.94,323.80L239.19,320.43L235.97,316.85L232.29,313.08L228.16,309.16L223.61,305.10L218.68,300.94L213.42,296.67L207.89,292.31L202.16,287.88L196.31,283.36L190.42,278.76L184.56,274.06L178.83,269.28L173.32,264.39L168.11,259.40L163.28,254.29L158.92,249.07L155.08,243.75L151.85,238.33L149.26,232.83L147.37,227.27L146.20,221.68L145.77,216.10L146.10,210.57L147.18,205.14L148.98,199.88L151.49,194.83L154.65,190.06L158.42,185.63L162.73,181.60L167.51,178.02L172.69,174.96L178.18,172.45L183.9,170.54L189.76,169.24L195.67,168.57L201.55,168.53L207.31,169.10L212.88,170.27L218.19,171.98L223.17,174.18L227.78,176.81L231.96,179.79L235.70,183.03L238.97,186.44L241.77,189.93L244.09,193.38L245.97,196.70L247.42,199.81L248.49,202.60L249.22,205L249.67,206.94L249.90,208.36L250,209.52L250.01,209.2L250.1,208.30L250.33,206.83L250.79,204.84L251.52,202.39L252.59,199.53L254.05,196.36L255.94,192.96L258.30,189.43L261.12,185.86L264.43,182.35L268.22,179.01L272.47,175.93L277.16,173.20L282.23,170.89L287.64,169.08L293.33,167.82L299.22,167.16L305.24,167.12L311.31,167.72L317.33,168.97L323.22,170.84L328.89,173.32L334.25,176.38L339.22,179.96L343.71,184.01L347.65,188.49L350.98,193.32L353.64,198.45L355.59,203.80L356.79,209.33L357.22,214.98L356.88,220.69L355.77,226.42L353.92,232.13L351.34,237.79L348.08,243.37L344.21,248.87L339.77,254.26L334.85,259.56L329.52,264.74L323.88,269.82L317.99,274.81L311.96,279.70L305.88,284.52L299.83,289.25L293.91,293.91L288.18,298.49L282.72,302.98L277.59,307.38L272.86,311.67L268.55,315.83L264.70,319.84L261.34,323.66L258.47,327.26L256.07,330.62L254.15,333.69L252.65,336.44L251.56,338.84L250.81,340.86L250.34,342.47L250.10,343.65L250.01,344.38L250,344.65L249.99,344.46L249.90,343.80L249.66,342.70L249.19,341.16L248.44,339.21L247.33,336.87L245.83,334.17L243.88,331.15L241.47,327.83L238.56,324.26L235.15,320.46L231.25,316.48L226.88,312.32L222.07,308.03L216.85,303.62L211.28,299.10L205.44,294.49L199.38,289.80L193.18,285.01L186.94,280.14L180.75,275.18L174.69,270.11L168.86,264.94L163.35,259.65L158.24,254.25L153.62,248.73L149.57,243.10L146.15,237.36L143.41,231.54L141.41,225.66L140.18,219.75L139.73,213.84L140.08,208.00L141.23,202.26L143.14,196.69L145.79,191.35L149.14,186.30L153.12,181.62L157.69,177.36L162.75,173.58L168.23,170.34L174.04,167.69L180.09,165.67L186.29,164.30L192.54,163.59L198.76,163.55L204.85,164.16L210.75,165.39L216.36,167.20L221.63,169.54L226.5,172.32L230.93,175.48L234.88,178.90L238.34,182.51L241.30,186.19L243.76,189.85L245.74,193.37L247.27,196.65L248.4,199.60L249.17,202.14L249.65,204.19L249.90,205.69L250,206.92L250.01,206.58L250.10,205.63L250.35,204.08L250.83,201.98L251.61,199.39L252.74,196.37L254.28,193.02L256.28,189.43L258.77,185.69L261.75,181.92L265.25,178.22L269.26,174.69L273.75,171.44L278.70,168.55L284.06,166.12L289.77,164.20L295.78,162.88L302.01,162.18L308.37,162.14L314.78,162.78L321.14,164.10L327.37,166.08L333.36,168.70L339.02,171.93L344.26,175.72L349.00,180.01L353.16,184.74L356.68,189.84L359.49,195.26L361.54,200.92L362.81,206.76L363.26,212.72L362.9,218.76L361.73,224.81L359.76,230.84L357.04,236.82L353.60,242.72L349.50,248.53L344.82,254.22L339.62,259.81L333.99,265.29L328.02,270.65L321.80,275.92L315.43,281.09L309.01,286.17L302.62,291.17L296.36,296.09L290.31,300.92L284.55,305.67L279.14,310.31L274.13,314.84L269.58,319.23L265.53,323.46L261.97,327.49L258.94,331.29L256.41,334.83L254.38,338.07L252.80,340.98L251.64,343.51L250.85,345.64L250.36,347.34L250.11,348.58L250.01,349.34L250,349.63L249.99,349.42L249.89,348.73L249.64,347.56L249.15,345.94L248.35,343.88L247.19,341.41L245.60,338.56L243.55,335.36L241.00,331.86L237.93,328.09L234.33,324.08L230.22,319.87L225.60,315.49L220.52,310.96L215.02,306.30L209.15,301.53L202.98,296.67L196.59,291.71L190.05,286.67L183.47,281.52L176.94,276.29L170.55,270.94L164.40,265.48L158.58,259.91L153.20,254.21L148.33,248.38L144.06,242.44L140.45,236.39L137.57,230.25L135.46,224.05L134.16,217.81L133.69,211.59L134.07,205.42L135.27,199.37L137.29,193.50L140.09,187.87L143.62,182.55L147.83,177.61L152.64,173.11L157.98,169.13L163.76,165.72L169.89,162.93L176.28,160.80L182.82,159.35L189.41,158.61L195.97,158.57L202.40,159.22L208.61,160.52L214.53,162.43L220.09,164.89L225.22,167.83L229.89,171.16L234.06,174.77L237.71,178.58L240.82,182.46L243.42,186.31L245.51,190.02L247.13,193.49L248.31,196.60L249.13,199.28L249.63,201.44L249.89,203.03L250,204.32L250.01,203.97L250.11,202.96L250.37,201.33L250.88,199.12L251.69,196.39L252.89,193.21L254.52,189.68L256.62,185.90L259.24,181.96L262.39,177.99L266.07,174.09L270.30,170.37L275.03,166.95L280.24,163.91L285.89,161.34L291.91,159.33L298.24,157.93L304.80,157.20L311.5,157.16L318.25,157.83L324.95,159.23L331.51,161.32L337.82,164.08L343.78,167.49L349.30,171.48L354.30,176.00L358.68,180.98L362.38,186.36L365.33,192.07L367.49,198.03L368.82,204.19L369.30,210.47L368.92,216.82L367.68,223.2L365.61,229.55L362.74,235.85L359.11,242.07L354.80,248.18L349.86,254.18L344.38,260.07L338.45,265.83L332.16,271.48L325.61,277.03L318.91,282.47L312.14,287.82L305.41,293.09L298.82,298.26L292.45,303.35L286.38,308.35L280.68,313.24L275.41,318.01L270.62,322.63L266.35,327.07L262.61,331.32L259.41,335.32L256.75,339.05L254.61,342.46L252.95,345.51L251.73,348.18L250.90,350.42L250.38,352.2L250.11,353.50L250.01,354.31L250,354.61L249.99,354.39L249.89,353.66L249.62,352.43L249.10,350.72L248.26,348.55L247.04,345.94L245.37,342.94L243.21,339.58L240.52,335.89L237.29,331.92L233.51,327.70L229.18,323.27L224.33,318.65L218.98,313.88L213.19,308.98L207.01,303.97L200.52,298.85L193.80,293.63L186.92,288.32L180,282.91L173.13,277.40L166.40,271.77L159.94,266.03L153.82,260.16L148.16,254.17L143.04,248.04L138.55,241.79L134.75,235.43L131.72,228.97L129.51,222.44L128.14,215.88L127.65,209.33L128.05,202.85L129.32,196.49L131.45,190.31L134.39,184.39L138.11,178.79L142.54,173.60L147.60,168.87L153.22,164.69L159.30,161.10L165.75,158.17L172.47,155.93L179.34,154.41L186.28,153.63L193.18,153.59L199.94,154.27L206.47,155.64L212.70,157.66L218.55,160.25L223.95,163.34L228.86,166.84L233.24,170.64L237.07,174.64L240.35,178.73L243.08,182.78L245.28,186.68L246.98,190.32L248.23,193.60L249.08,196.42L249.61,198.69L249.88,200.36L250,201.72L250.01,201.35L250.12,200.30L250.39,198.58L250.92,196.26L251.78,193.39L253.04,190.05L254.75,186.34L256.96,182.37L259.71,178.23L263.02,174.06L266.90,169.96L271.33,166.06L276.31,162.45L281.78,159.26L287.72,156.57L294.05,154.45L300.70,152.99L307.59,152.22L314.63,152.18L321.72,152.89L328.76,154.36L335.65,156.56L342.28,159.47L348.54,163.04L354.34,167.24L359.59,171.99L364.19,177.23L368.07,182.88L371.18,188.88L373.45,195.14L374.84,201.61L375.34,208.22L374.94,214.89L373.63,221.59L371.45,228.27L368.43,234.88L364.62,241.41L360.09,247.84L354.90,254.14L349.14,260.32L342.91,266.38L336.30,272.32L329.43,278.14L322.38,283.86L315.27,289.48L308.20,295.00L301.28,300.44L294.58,305.79L288.21,311.03L282.22,316.17L276.69,321.17L271.66,326.02L267.17,330.69L263.24,335.15L259.88,339.35L257.09,343.26L254.84,346.84L253.10,350.05L251.82,352.85L250.94,355.19L250.4,357.06L250.12,358.43L250.01,359.28L250,359.59L249.99,359.36L249.88,358.59L249.60,357.30L249.06,355.50L248.18,353.21L246.89,350.48L245.14,347.32L242.87,343.79L240.05,339.92L236.66,335.75L232.69,331.32L228.15,326.67L223.05,321.82L217.44,316.81L211.36,311.67L204.88,306.4L198.06,301.02L191.00,295.55L183.79,289.97L176.53,284.29L169.31,278.51L162.26,272.60L155.47,266.58L149.06,260.42L143.12,254.13L137.75,247.70L133.03,241.14L129.05,234.46L125.88,227.68L123.55,220.83L122.13,213.95L121.61,207.08L122.03,200.27L123.37,193.60L125.6,187.12L128.69,180.91L132.60,175.04L137.25,169.59L142.56,164.63L148.46,160.24L154.84,156.48L161.61,153.41L168.66,151.06L175.87,149.47L183.15,148.65L190.39,148.61L197.48,149.33L204.34,150.77L210.87,152.88L217.00,155.60L222.67,158.85L227.82,162.52L232.42,166.51L236.44,170.71L239.88,175.00L242.74,179.25L245.05,183.34L246.83,187.16L248.14,190.60L249.04,193.56L249.59,195.94L249.88,197.69L250,199.12L250.01,198.74L250.12,197.63L250.41,195.83L250.97,193.40L251.87,190.39L253.18,186.89L254.98,183.00L257.30,178.83L260.18,174.50L263.65,170.12L267.72,165.83L272.37,161.74L277.58,157.96L283.32,154.62L289.55,151.79L296.18,149.58L303.15,148.04L310.38,147.24L317.76,147.20L325.19,147.95L332.58,149.49L339.80,151.79L346.74,154.85L353.31,158.60L359.38,163.00L364.88,167.98L369.70,173.47L373.77,179.40L377.02,185.69L379.40,192.26L380.86,199.04L381.38,205.96L380.96,212.96L379.59,219.98L377.3,226.98L374.13,233.92L370.14,240.76L365.38,247.49L359.94,254.1L353.90,260.58L347.37,266.93L340.45,273.15L333.24,279.25L325.85,285.24L318.4,291.13L310.99,296.92L303.74,302.62L296.72,308.22L290.04,313.72L283.76,319.09L277.96,324.34L272.69,329.42L267.99,334.31L263.87,338.98L260.35,343.38L257.43,347.48L255.07,351.23L253.24,354.58L251.90,357.51L250.99,359.97L250.42,361.93L250.13,363.36L250.02,364.24L250,364.56L249.98,364.32L249.88,363.52L249.58,362.16L249.01,360.27L248.09,357.88L246.74,355.01L244.91,351.71L242.53,348.01L239.58,343.95L236.03,339.58L231.87,334.94L227.11,330.06L221.78,324.99L215.90,319.74L209.53,314.35L202.74,308.83L195.61,303.20L188.22,297.47L180.66,291.63L173.06,285.68L165.50,279.62L158.12,273.44L151.01,267.12L144.30,260.67L138.07,254.08L132.45,247.35L127.52,240.48L123.36,233.49L120.03,226.39L117.60,219.22L116.11,212.02L115.57,204.82L116.01,197.70L117.41,190.71L119.75,183.93L123.00,177.43L127.08,171.28L131.95,165.58L137.52,160.39L143.69,155.80L150.38,151.86L157.47,148.64L164.84,146.19L172.4,144.52L180.02,143.67L187.6,143.63L195.03,144.38L202.20,145.89L209.04,148.11L215.46,150.96L221.39,154.35L226.78,158.20L231.60,162.38L235.81,166.78L239.41,171.27L242.40,175.72L244.81,180.00L246.68,184.00L248.05,187.60L248.99,190.69L249.57,193.19L249.87,195.03L250,196.52L250.02,196.12L250.13,194.96L250.43,193.09L251.01,190.54L251.95,187.39L253.33,183.73L255.21,179.66L257.64,175.3L260.65,170.77L264.29,166.19L268.54,161.70L273.40,157.42L278.86,153.47L284.87,149.97L291.38,147.02L298.32,144.70L305.61,143.10L313.17,142.26L320.89,142.22L328.67,143.01L336.39,144.62L343.94,147.03L351.20,150.23L358.07,154.15L364.43,158.76L370.17,163.97L375.22,169.72L379.47,175.92L382.87,182.50L385.35,189.37L386.88,196.47L387.42,203.71L386.97,211.03L385.54,218.37L383.15,225.69L379.83,232.95L375.65,240.11L370.67,247.15L364.98,254.06L358.67,260.83L351.83,267.47L344.59,273.98L337.05,280.36L329.32,286.63L321.53,292.78L313.78,298.84L306.19,304.80L298.86,310.65L291.87,316.40L285.30,322.02L279.24,327.50L273.73,332.82L268.81,337.93L264.50,342.81L260.83,347.41L257.76,351.69L255.3,355.61L253.39,359.12L251.99,362.18L251.03,364.75L250.44,366.80L250.13,368.29L250.02,369.21L250,369.55L249.98,369.29L249.87,368.44L249.56,367.02L248.97,365.05L248.00,362.55L246.59,359.55L244.68,356.09L242.19,352.22L239.11,347.98L235.40,343.41L231.05,338.56L226.08,333.46L220.50,328.15L214.36,322.67L207.70,317.03L200.61,311.26L193.15,305.38L185.43,299.38L177.53,293.28L169.58,287.06L161.69,280.73L153.97,274.27L146.55,267.67L139.53,260.93L133.03,254.04L127.16,247.01L122.00,239.83L117.66,232.52L114.18,225.11L111.65,217.61L110.09,210.08L109.53,202.57L109.99,195.13L111.46,187.82L113.91,180.74L117.30,173.94L121.57,167.53L126.66,161.57L132.48,156.15L138.93,151.36L145.92,147.24L153.32,143.88L161.03,141.32L168.93,139.58L176.89,138.69L184.81,138.65L192.57,139.44L200.07,141.02L207.21,143.33L213.92,146.31L220.12,149.86L225.75,153.88L230.78,158.25L235.18,162.85L238.94,167.53L242.06,172.19L244.58,176.66L246.53,180.84L247.97,184.60L248.95,187.83L249.55,190.44L249.87,192.36L250,193.92L250.02,193.50L250.13,192.30L250.45,190.34L251.06,187.68L252.04,184.39L253.48,180.57L255.44,176.32L257.98,171.77L261.13,167.03L264.92,162.26L269.36,157.57L274.44,153.10L280.13,148.98L286.41,145.32L293.20,142.25L300.45,139.83L308.07,138.15L315.96,137.28L324.02,137.24L332.14,138.06L340.20,139.75L348.08,142.27L355.66,145.61L362.83,149.71L369.47,154.52L375.47,159.96L380.73,165.96L385.17,172.44L388.72,179.31L391.31,186.48L392.90,193.89L393.46,201.45L392.99,209.10L391.49,216.76L388.99,224.41L385.53,231.98L381.16,239.45L375.97,246.80L370.02,254.02L363.43,261.09L356.30,268.02L348.73,274.81L340.86,281.47L332.79,288.01L324.66,294.44L316.57,300.76L308.65,306.97L300.99,313.08L293.69,319.08L286.85,324.95L280.52,330.67L274.76,336.21L269.63,341.55L265.14,346.64L261.30,351.44L258.10,355.91L255.53,359.99L253.54,363.65L252.08,366.85L251.07,369.53L250.46,371.66L250.14,373.22L250.02,374.18L250,374.52L249.98,374.25L249.86,373.37L249.54,371.89L248.92,369.83L247.92,367.21L246.45,364.08L244.44,360.48L241.85,356.44L238.63,352.01L234.76,347.24L230.23,342.18L225.04,336.86L219.22,331.32L212.81,325.60L205.87,319.71L198.47,313.70L190.69,307.56L182.63,301.30L174.40,294.93L166.11,288.45L157.88,281.84L149.83,275.10L142.09,268.22L134.77,261.19L127.99,254.00L121.87,246.66L116.49,239.18L111.96,231.55L108.34,223.82L105.69,216.00L104.07,208.15L103.49,200.31L103.98,192.55L105.51,184.94L108.06,177.55L111.60,170.46L116.06,163.77L121.37,157.56L127.44,151.91L134.17,146.91L141.45,142.63L149.18,139.12L157.22,136.45L165.46,134.64L173.76,133.71L182.02,133.67L190.11,134.50L197.93,136.14L205.38,138.56L212.38,141.67L218.84,145.37L224.71,149.56L229.96,154.12L234.54,158.91L238.46,163.80L241.72,168.65L244.35,173.32L246.39,177.68L247.88,181.60L248.90,184.97L249.53,187.70L249.86,189.69L250,191.32L250.02,190.89L250.14,189.63L250.47,187.59L251.1,184.81L252.13,181.39L253.63,177.41L255.67,172.98L258.31,168.24L261.60,163.30L265.55,158.32L270.18,153.44L275.47,148.78L281.41,144.49L287.95,140.68L295.03,137.47L302.59,134.95L310.52,133.21L318.75,132.3L327.15,132.26L335.61,133.12L344.01,134.87L352.22,137.51L360.13,140.99L367.59,145.26L374.51,150.28L380.76,155.95L386.24,162.20L390.87,168.96L394.56,176.12L397.26,183.60L398.91,191.32L399.50,199.20L399.01,207.16L397.45,215.16L394.84,223.12L391.23,231.01L386.68,238.8L381.26,246.46L375.06,253.98L368.19,261.35L360.76,268.56L352.88,275.64L344.67,282.58L336.27,289.39L327.79,296.09L319.36,302.68L311.11,309.15L303.13,315.52L295.52,321.76L288.39,327.88L281.79,333.83L275.8,339.61L270.45,345.17L265.77,350.47L261.77,355.47L258.44,360.12L255.76,364.38L253.69,368.19L252.16,371.51L251.12,374.30L250.48,376.52L250.14,378.14L250.02,379.14L250,379.50L249.98,379.22L249.86,378.3L249.52,376.75L248.88,374.60L247.83,371.88L246.30,368.62L244.21,364.86L241.51,360.65L238.16,356.04L234.13,351.07L229.41,345.80L224.00,340.25L217.94,334.48L211.27,328.52L204.04,322.40L196.34,316.13L188.24,309.73L179.84,303.22L171.27,296.59L162.64,289.83L154.07,282.95L145.69,275.93L137.63,268.76L130.00,261.44L122.95,253.96L116.57,246.32L110.98,238.52L106.26,230.58L102.49,222.53L99.74,214.40L98.05,206.22L97.45,198.06L97.96,189.98L99.55,182.05L102.22,174.36L105.9,166.98L110.54,160.02L116.07,153.55L122.39,147.67L129.41,142.47L136.99,138.01L145.04,134.36L153.41,131.58L161.98,129.69L170.63,128.73L179.23,128.69L187.66,129.55L195.80,131.27L203.55,133.79L210.83,137.02L217.56,140.88L223.68,145.24L229.14,149.99L233.91,154.98L237.99,160.07L241.39,165.12L244.12,169.98L246.24,174.52L247.79,178.60L248.86,182.11L249.51,184.95L249.85,187.03L250,188.73L250.02,188.27L250.15,186.97L250.49,184.84L251.15,181.95L252.21,178.39L253.77,174.25L255.90,169.64L258.65,164.70L262.07,159.57L266.18,154.39L271.00,149.31L276.51,144.46L282.69,139.99L289.49,136.03L296.86,132.70L304.72,130.08L312.98,128.27L321.54,127.32L330.28,127.28L339.08,128.18L347.82,130.00L356.37,132.75L364.59,136.37L372.36,140.82L379.55,146.04L386.05,151.94L391.76,158.45L396.57,165.48L400.41,172.93L403.21,180.71L404.93,188.74L405.54,196.94L405.03,205.23L403.4,213.55L400.68,221.83L396.93,230.04L392.19,238.15L386.55,246.12L380.11,253.94L372.96,261.6L365.22,269.11L357.02,276.47L348.48,283.69L339.74,290.78L330.92,297.74L322.15,304.59L313.56,311.33L305.26,317.95L297.35,324.45L289.93,330.80L283.07,337.00L276.84,343.01L271.27,348.79L266.40,354.3L262.24,359.50L258.78,364.34L255.99,368.76L253.84,372.73L252.25,376.18L251.16,379.08L250.50,381.39L250.15,383.07L250.02,384.11L250,384.48L249.98,384.19L249.85,383.23L249.50,381.62L248.83,379.38L247.74,376.55L246.15,373.15L243.98,369.25L241.18,364.87L237.69,360.07L233.50,354.90L228.59,349.41L222.97,343.65L216.67,337.65L209.73,331.45L202.21,325.08L194.20,318.56L185.78,311.91L177.06,305.14L168.14,298.24L159.17,291.22L150.26,284.06L141.55,276.76L133.16,269.31L125.24,261.70L117.91,253.92L111.28,245.97L105.47,237.87L100.56,229.62L96.65,221.25L93.79,212.79L92.03,204.29L91.41,195.81L91.94,187.41L93.6,179.17L96.37,171.17L100.20,163.50L105.03,156.26L110.78,149.54L117.35,143.43L124.64,138.02L132.53,133.39L140.89,129.60L149.60,126.71L158.51,124.75L167.50,123.75L176.44,123.71L185.20,124.61L193.66,126.39L201.72,129.01L209.29,132.38L216.29,136.39L222.64,140.92L228.32,145.86L233.28,151.05L237.52,156.34L241.05,161.59L243.89,166.64L246.09,171.36L247.71,175.60L248.81,179.25L249.50,182.20L249.85,184.36L250,186.13L250.02,185.66L250.15,184.30L250.51,182.09L251.19,179.09L252.3,175.39L253.92,171.09L256.13,166.30L258.99,161.17L262.54,155.84L266.82,150.46L271.82,145.17L277.55,140.14L283.97,135.50L291.04,131.39L298.69,127.92L306.86,125.20L315.44,123.32L324.33,122.34L333.41,122.30L342.55,123.24L351.63,125.13L360.51,127.99L369.05,131.75L377.12,136.38L384.59,141.80L391.35,147.93L397.27,154.69L402.27,162.00L406.25,169.74L409.16,177.82L410.95,186.17L411.58,194.69L411.05,203.3L409.35,211.94L406.53,220.55L402.63,229.08L397.70,237.49L391.85,245.77L385.15,253.89L377.72,261.86L369.68,269.66L361.16,277.30L352.29,284.80L343.21,292.16L334.05,299.40L324.94,306.51L316.02,313.51L307.40,320.38L299.18,327.13L291.47,333.73L284.35,340.17L277.87,346.40L272.09,352.41L267.04,358.13L262.71,363.53L259.12,368.55L256.22,373.15L253.98,377.26L252.34,380.85L251.21,383.86L250.51,386.25L250.15,388.00L250.02,389.08L250,389.46L249.98,389.15L249.85,388.16L249.48,386.48L248.79,384.16L247.66,381.22L246.00,377.69L243.75,373.63L240.84,369.08L237.22,364.1L232.87,358.73L227.77,353.03L221.93,347.05L215.39,340.81L208.19,334.38L200.38,327.76L192.06,321.00L183.32,314.09L174.27,307.05L165.01,299.89L155.70,292.60L146.45,285.17L137.40,277.59L128.70,269.86L120.48,261.95L112.87,253.88L105.99,245.63L99.95,237.21L94.86,228.65L90.80,219.96L87.84,211.18L86.02,202.36L85.37,193.55L85.92,184.83L87.65,176.28L90.52,167.98L94.50,160.02L99.52,152.51L105.49,145.53L112.31,139.19L119.88,133.58L128.07,128.77L136.75,124.83L145.79,121.84L155.04,119.81L164.37,118.78L173.65,118.74L182.74,119.66L191.53,121.52L199.90,124.24L207.75,127.73L215.01,131.89L221.61,136.61L227.50,141.73L232.65,147.11L237.05,152.61L240.71,158.06L243.66,163.30L245.94,168.20L247.62,172.60L248.77,176.39L249.48,179.45L249.84,181.69L250,183.53L250.02,183.04L250.16,181.63L250.53,179.34L251.24,176.23L252.39,172.39L254.07,167.93L256.36,162.96L259.33,157.64L263.02,152.11L267.45,146.52L272.64,141.04L278.58,135.82L285.24,131.01L292.58,126.74L300.52,123.15L308.99,120.33L317.90,118.38L327.12,117.36L336.54,117.32L346.03,118.29L355.44,120.26L364.65,123.22L373.51,127.13L381.88,131.93L389.63,137.56L396.64,143.92L402.78,150.94L407.96,158.51L412.1,166.55L415.12,174.94L416.97,183.60L417.62,192.43L417.06,201.37L415.31,210.33L412.38,219.26L408.32,228.11L403.22,236.84L397.14,245.43L390.19,253.85L382.48,262.11L374.14,270.20L365.31,278.13L356.10,285.91L346.68,293.55L337.18,301.05L327.73,308.43L318.48,315.68L309.53,322.81L301.01,329.81L293.01,336.66L285.62,343.33L278.91,349.8L272.91,356.02L267.67,361.96L263.19,367.56L259.46,372.77L256.45,377.53L254.13,381.80L252.42,385.51L251.25,388.64L250.53,391.12L250.16,392.93L250.02,394.04L250,394.44L249.98,394.12L249.84,393.09L249.47,391.35L248.74,388.94L247.57,385.88L245.86,382.23L243.52,378.01L240.50,373.30L236.75,368.13L232.23,362.56L226.95,356.65L220.90,350.44L214.11,343.98L206.65,337.31L198.56,330.45L189.93,323.43L180.87,316.27L171.48,308.97L161.88,301.55L152.22,293.98L142.63,286.28L133.26,278.42L124.24,270.40L115.72,262.21L107.83,253.84L100.69,245.28L94.44,236.56L89.16,227.68L84.95,218.67L81.88,209.57L80.00,200.43L79.33,191.30L79.90,182.26L81.69,173.39L84.68,164.79L88.81,156.54L94.01,148.75L100.19,141.52L107.27,134.95L115.12,129.13L123.61,124.15L132.61,120.07L141.97,116.97L151.57,114.87L161.24,113.80L170.86,113.75L180.28,114.72L189.39,116.65L198.07,119.46L206.21,123.09L213.73,127.40L220.57,132.29L226.68,137.60L232.01,143.18L236.58,148.88L240.37,154.52L243.43,159.96L245.79,165.04L247.53,169.60L248.72,173.53L249.46,176.70L249.88,179.27L249.46,176.70L248.72,173.53L247.53,169.60L245.79,165.04L243.43,159.96L240.37,154.52L240.20,154.26L240.20,154.26L241.57,153.12L241.57,153.12L244.25,149.02L246.32,145.36L247.84,142.18L248.88,139.52L249.53,137.40L249.80,136.13L249.80,136.13L250,127.94L250,127.94L250.04,127.11L250.28,124.65L250.96,120.61L252.25,115.13L254.34,108.35L257.40,100.47L261.57,91.71L266.95,82.31L273.64,72.55L281.69,62.71L291.10,53.05L301.87,43.86L313.94,35.40L327.23,27.90L341.62,21.60L347.39,19.75L347.39,19.75L338.71,17.08L329.55,21.09L315.86,28.81L303.43,37.52L292.34,46.99L282.64,56.94L274.35,67.08L267.46,77.13L261.91,86.81L257.62,95.83L254.47,103.95L252.31,110.93L250.98,116.58L250.29,120.74L250.04,123.28L250,124.13L249.96,127.11L249.72,124.65L249.04,120.61L247.75,115.13L245.66,108.35L242.60,100.47L238.43,91.71L233.05,82.31L226.36,72.55L218.31,62.71L208.90,53.05L198.13,43.86L186.06,35.40L172.77,27.90L158.38,21.60L152.61,19.75L152.61,19.75L160.3,16.65L170.45,21.09L184.14,28.81L196.57,37.52L207.66,46.99L217.36,56.94L225.65,67.08L232.54,77.13L238.09,86.81L242.38,95.83L245.53,103.95L247.69,110.93L249.02,116.58L249.71,120.74L249.96,123.28L250,120.32L250.04,119.44L250.30,116.82L251.01,112.55L252.38,106.74L254.6,99.55L257.84,91.20L262.26,81.91L267.97,71.95L275.06,61.61L283.59,51.17L293.57,40.93L304.99,31.19L317.78,22.22L331.87,14.28L332.02,13.84L326.28,11.92L319.7,15.63L306.54,24.86L294.80,34.87L284.54,45.40L275.77,56.13L268.48,66.77L262.61,77.01L258.06,86.56L254.73,95.15L252.45,102.54L251.04,108.52L250.31,112.91L250.04,115.60L250,116.51L249.96,119.44L249.70,116.82L248.99,112.55L247.62,106.74L245.4,99.55L242.16,91.20L237.74,81.91L232.03,71.95L224.94,61.61L216.41,51.17L206.43,40.93L195.01,31.19L182.22,22.22L168.13,14.28L167.98,13.84L173.72,11.92L180.3,15.63L193.46,24.86L205.20,34.87L215.46,45.40L224.23,56.13L231.52,66.77L237.39,77.01L241.94,86.56L245.27,95.15L247.55,102.54L248.96,108.52L249.69,112.91L249.96,115.60L250,112.69L250.04,111.77L250.32,109.00L251.07,104.49L252.52,98.35L254.86,90.75L258.29,81.93L262.95,72.11L268.99,61.59L276.48,50.66L285.49,39.63L296.04,28.82L308.10,18.52L320.18,10.05L320.18,10.05L314.84,8.55L309.65,12.19L297.27,22.76L286.44,33.86L277.19,45.19L269.50,56.41L263.30,67.21L258.51,77.29L254.99,86.35L252.58,94.15L251.10,100.46L250.33,105.09L250.04,107.93L250,108.88L249.96,111.77L249.68,109.00L248.93,104.49L247.48,98.35L245.14,90.75L241.71,81.93L237.05,72.11L231.01,61.59L223.52,50.66L214.51,39.63L203.96,28.82L191.90,18.52L179.82,10.05L179.82,10.05L185.16,8.55L190.35,12.19L202.73,22.76L213.56,33.86L222.81,45.19L230.50,56.41L236.70,67.21L241.49,77.29L245.01,86.35L247.42,94.15L248.90,100.46L249.67,105.09L249.96,107.93L250,105.07L250.04,104.09L250.34,101.18L251.13,96.43L252.65,89.95L255.12,81.95L258.73,72.65L263.65,62.31L270.00,51.23L277.90,39.71L287.39,28.09L298.50,16.70L309.62,7.21L309.62,7.21L305.02,6.13L299.74,10.64L288.34,22.32L278.61,34.24L270.51,46.05L264.00,57.41L258.95,68.02L255.25,77.56L252.72,85.76L251.16,92.39L250.34,97.27L250.04,100.26L250,101.26L249.96,104.09L249.66,101.18L248.87,96.43L247.35,89.95L244.88,81.95L241.27,72.65L236.35,62.31L230.00,51.23L222.10,39.71L212.61,28.09L201.50,16.70L190.38,7.21L190.38,7.21L194.98,6.13L200.26,10.64L211.66,22.32L221.39,34.24L229.49,46.05L236.00,57.41L241.05,68.02L244.75,77.56L247.28,85.76L248.84,92.39L249.66,97.27L249.96,100.26L250,97.45L250.04,96.42L250.35,93.36L251.19,88.36L252.78,81.56L255.38,73.16L259.18,63.38L264.34,52.52L271.02,40.87L279.32,28.77L289.29,16.56L300.43,5.14L300.43,5.14L296.51,4.36L290.24,10.79L280.03,23.29L271.53,35.69L264.69,47.62L259.40,58.75L255.51,68.76L252.85,77.37L251.21,84.33L250.36,89.45L250.04,92.58L250,93.64L249.96,96.42L249.65,93.36L248.81,88.36L247.22,81.56L244.62,73.16L240.82,63.38L235.66,52.52L228.98,40.87L220.68,28.77L210.71,16.56L199.57,5.14L199.57,5.14L203.49,4.36L209.76,10.79L219.97,23.29L228.47,35.69L235.31,47.62L240.60,58.75L244.49,68.76L247.15,77.37L248.79,84.33L249.64,89.45L249.96,92.58L250,89.82L250.05,88.75L250.37,85.54L251.24,80.30L252.92,73.17L255.64,64.36L259.62,54.11L265.04,42.72L272.04,30.51L280.74,17.82L291.19,5.02L292.53,3.64L292.53,3.64L289.03,3.06L281.44,12.35L272.55,25.33L265.38,37.82L259.84,49.47L255.77,59.96L252.99,68.97L251.27,76.27L250.38,81.63L250.05,84.91L250,86.01L249.95,88.75L249.63,85.54L248.76,80.30L247.08,73.17L244.36,64.36L240.38,54.11L234.96,42.72L227.96,30.51L219.26,17.82L208.81,5.02L207.47,3.64L207.47,3.64L210.97,3.06L218.56,12.35L227.45,25.33L234.62,37.82L240.16,49.47L244.23,59.96L247.01,68.97L248.73,76.27L249.62,81.63L249.95,84.91L250,82.20L250.05,81.07L250.39,77.72L251.3,72.24L253.06,64.78L255.90,55.56L260.06,44.84L265.73,32.92L273.06,20.14L282.15,6.87L285.68,2.56L285.68,2.56L282.38,2.11L273.56,14.97L266.08,28.02L260.29,40.20L256.03,51.16L253.12,60.58L251.33,68.20L250.40,73.81L250.05,77.24L250,78.39L249.95,81.07L249.61,77.72L248.7,72.24L246.94,64.78L244.10,55.56L239.94,44.84L234.27,32.92L226.94,20.14L217.85,6.87L214.32,2.56L214.32,2.56L217.62,2.11L226.44,14.97L233.92,28.02L239.72,40.20L243.97,51.16L246.88,60.58L248.67,68.20L249.60,73.81L249.95,77.24L250,74.58L250.05,73.40L250.41,69.90L251.36,64.17L253.19,56.38L256.16,46.76L260.51,35.56L266.42,23.12L274.07,9.78L279.58,1.76L279.58,1.76L276.75,1.44L274.58,4.60L266.77,18.22L260.73,30.93L256.29,42.36L253.26,52.19L251.39,60.14L250.41,65.99L250.05,69.56L250,70.77L249.95,73.40L249.59,69.90L248.64,64.17L246.81,56.38L243.84,46.76L239.49,35.56L233.58,23.12L225.93,9.78L220.42,1.76L220.42,1.76L223.25,1.44L225.42,4.60L233.23,18.22L239.27,30.93L243.71,42.36L246.74,52.19L248.61,60.14L249.59,65.99L249.95,69.56L250,66.95L250.05,65.73L250.42,62.08L251.41,56.11L253.32,47.99L256.42,37.96L260.95,26.29L267.12,13.32L274.09,1.16L274.09,1.16L271.75,0.95L267.46,8.43L261.17,21.66L256.55,33.56L253.39,43.80L251.44,52.08L250.43,58.17L250.05,61.89L250,63.14L249.95,65.73L249.58,62.08L248.59,56.11L246.68,47.99L243.58,37.96L239.05,26.29L232.88,13.32L225.91,1.16L225.91,1.16L228.25,0.95L232.53,8.43L238.83,21.66L243.45,33.56L246.61,43.80L248.56,52.08L249.57,58.17L249.95,61.89L250,59.33L250.06,58.05L250.44,54.25L251.47,48.05L253.46,39.60L256.68,29.16L261.39,17.02L267.81,3.53L269.40,0.75L269.40,0.75L281.61,2.01L293.74,3.86L305.76,6.30L317.65,9.33L329.38,12.94L340.92,17.12L352.24,21.86L363.31,27.15L374.11,32.98L384.61,39.33L394.78,46.19L404.61,53.54L414.06,61.36L423.12,69.64L431.76,78.35L439.96,87.48L447.71,96.99L454.98,106.88L461.75,117.11L468.02,127.66L473.76,138.50L478.96,149.62L483.61,160.97L487.70,172.54L491.21,184.30L494.15,196.21L496.49,208.26L498.24,220.40L499.39,232.62L499.95,244.88L499.94,255.64L488.55,267.5L473.47,281.72L457.50,295.64L440.89,309.28L423.89,322.68L406.75,335.82L389.73,348.75L373.05,361.45L356.95,373.92L341.62,386.16L327.23,398.12L313.94,409.77L301.87,421.06L291.10,431.91L281.69,442.25L273.64,452.00L266.95,461.05L261.57,469.33L257.40,476.73L254.34,483.17L252.25,488.56L250.96,492.83L250.28,495.93L250.04,497.80L250,498.43L249.96,497.80L249.72,495.93L249.04,492.83L247.75,488.56L245.66,483.17L242.60,476.73L238.43,469.33L233.05,461.05L226.36,452.00L218.31,442.25L208.90,431.91L198.13,421.06L186.06,409.77L172.77,398.12L158.38,386.16L143.05,373.92L126.95,361.45L110.27,348.75L93.25,335.82L76.11,322.68L59.11,309.28L42.50,295.64L26.53,281.72L11.45,267.5L0.06,255.64L0.06,255.64L0.38,263.80L4.30,267.88L19.83,282.52L36.28,296.86L53.39,310.91L70.90,324.70L88.55,338.25L106.08,351.56L123.25,364.64L139.84,377.49L155.63,390.09L170.45,402.41L184.14,414.42L196.57,426.04L207.66,437.22L217.36,447.87L225.65,457.91L232.54,467.24L238.09,475.76L242.38,483.38L245.53,490.01L247.69,495.56L249.02,499.97L249.02,500.00L250.98,499.97L252.31,495.56L254.47,490.01L257.62,483.38L261.91,475.76L267.46,467.24L274.35,457.91L282.64,447.87L292.34,437.22L303.43,426.04L315.86,414.42L329.55,402.41L344.37,390.09L360.16,377.49L376.75,364.64L393.92,351.56L411.45,338.25L429.10,324.70L446.61,310.91L463.72,296.86L480.17,282.52L495.70,267.88L499.62,263.80L499.62,263.80L499.04,271.85L486.88,283.32L469.95,298.08L452.34,312.54L434.32,326.74L416.15,340.67L398.11,354.37L380.44,367.83L363.37,381.06L347.11,394.02L331.87,406.71L317.78,419.06L304.99,431.02L293.57,442.52L283.59,453.49L275.06,463.82L267.97,473.42L262.26,482.19L257.84,490.03L254.6,496.86L253.39,499.98L253.39,499.98L256.53,499.91L258.06,496.69L262.61,488.62L268.48,479.60L275.77,469.73L284.54,459.11L294.80,447.83L306.54,436.00L319.7,423.70L334.18,411.00L349.86,397.96L366.57,384.63L384.13,371.03L402.30,357.18L420.86,343.10L439.54,328.76L458.07,314.17L476.17,299.30L493.58,284.12L498.23,279.74L498.23,279.74L497.15,287.65L482.40,300.51L463.79,315.80L444.75,330.80L425.56,345.52L406.50,360.00L387.82,374.22L369.78,388.19L352.61,401.89L336.50,415.29L321.62,428.35L308.10,440.99L296.04,453.14L285.49,464.72L276.48,475.64L268.99,485.78L262.95,495.05L260.29,499.79L260.29,499.79L264.54,499.58L269.50,491.96L277.19,481.55L286.44,470.34L297.27,458.45L309.65,445.97L323.54,432.99L338.82,419.59L355.36,405.83L372.99,391.76L391.51,377.41L410.69,362.81L430.26,347.95L449.97,332.83L469.52,317.43L488.62,301.73L495.83,295.45L495.84,295.45L494.21,303.47L475.25,319.06L455.19,334.86L434.97,350.37L414.88,365.62L395.20,380.61L376.20,395.33L358.11,409.76L341.13,423.88L325.45,437.63L311.21,450.95L298.50,463.75L287.39,475.96L277.90,487.46L270.00,498.14L269.28,499.25L269.28,499.25L274.60,498.79L278.61,493.37L288.34,481.57L299.74,469.06L312.77,455.93L327.37,442.27L343.45,428.18L360.86,413.70L379.41,398.90L398.89,383.80L419.07,368.43L439.67,352.80L460.40,336.89L480.97,320.69L492.36,311.33L492.36,311.33L490.15,319.48L486.70,322.31L465.62,338.92L444.37,355.22L423.26,371.25L402.59,386.99L382.62,402.46L363.61,417.63L345.77,432.47L329.29,446.92L314.32,460.91L300.97,474.37L289.29,487.19L280.23,498.16L280.23,498.16L286.52,497.32L290.24,492.81L302.20,479.68L315.88,465.89L331.21,451.56L348.09,436.76L366.35,421.57L385.83,406.03L406.28,390.19L427.45,374.06L449.07,357.65L470.84,340.95L487.61,327.74L487.61,327.74L484.67,336.19L476.05,342.98L453.78,360.07L431.65,376.87L409.97,393.38L389.03,409.60L369.10,425.50L350.40,441.06L333.13,456.20L317.44,470.88L303.43,484.98L293.18,496.24L293.18,496.24L300.52,494.84L304.67,490.29L318.99,475.86L335.05,460.85L352.72,445.35L371.85,429.44L392.24,413.17L413.66,396.57L435.84,379.68L458.48,362.50L481.23,345.03L481.23,345.03L477.30,354.08L463.18,364.92L440.03,382.50L417.35,399.77L395.45,416.73L374.6,433.37L355.04,449.64L336.97,465.49L320.55,480.84L308.39,493.08L308.39,493.08L317.15,490.81L322.10,485.82L338.88,470.13L357.35,453.94L377.35,437.31L398.66,420.30L421.04,402.96L444.22,385.31L467.88,367.35L472.66,363.68L472.66,363.68L467.13,373.91L448.41,388.12L424.74,406.15L401.87,423.87L380.10,441.24L359.67,458.23L340.80,474.78L326.73,487.94L326.73,487.94L337.70,484.11L342.72,479.42L361.99,462.52L382.85,445.18L405.08,427.44L428.43,409.35L452.61,390.93L460.41,385.00L460.41,385.00L453.54,395.17L451.83,397.53L432.12,412.54L408.29,431.00L385.59,449.11L364.30,466.82L350.53,478.90L350.53,478.90L361.64,473.69L366.62,471.11L388.34,453.05L411.49,434.57L435.81,415.74L439.84,412.66L439.85,412.66L431.63,421.78L422.99,430.49L413.92,438.76L404.46,446.57L394.63,453.92L384.45,460.77L373.95,467.11L363.14,472.93L352.07,478.21L340.75,482.95L329.21,487.12L317.48,490.72L305.59,493.74L293.56,496.18L281.43,498.02L269.22,499.26L256.97,499.90L246.61,499.98L245.4,496.86L242.16,490.03L237.74,482.19L232.03,473.42L224.94,463.82L216.41,453.49L206.43,442.52L195.01,431.02L182.22,419.06L168.13,406.71L152.89,394.02L136.63,381.06L119.56,367.83L101.89,354.37L83.84,340.67L65.68,326.74L47.66,312.54L30.05,298.08L13.12,283.32L0.96,271.85L0.96,271.85L1.78,279.74L6.42,284.12L23.83,299.30L41.93,314.17L60.46,328.76L79.14,343.10L97.70,357.18L115.87,371.03L133.43,384.63L150.14,397.96L165.82,411.00L180.3,423.70L193.46,436.00L205.20,447.83L215.46,459.11L224.23,469.73L231.52,479.60L237.39,488.62L241.94,496.69L243.47,499.91L243.47,499.91L239.71,499.79L237.05,495.05L231.01,485.78L223.52,475.64L214.51,464.72L203.96,453.14L191.90,440.99L178.38,428.35L163.50,415.29L147.39,401.89L130.22,388.19L112.18,374.22L93.50,360.00L74.44,345.52L55.25,330.80L36.21,315.80L17.60,300.51L2.85,287.65L2.85,287.65L4.16,295.45L11.38,301.73L30.48,317.43L50.03,332.83L69.74,347.95L89.31,362.81L108.49,377.41L127.01,391.76L144.64,405.83L161.18,419.59L176.46,432.99L190.35,445.97L202.73,458.45L213.56,470.34L222.81,481.55L230.50,491.96L235.46,499.58L235.46,499.58L230.72,499.25L230.00,498.14L222.10,487.46L212.61,475.96L201.50,463.75L188.79,450.95L174.55,437.63L158.87,423.88L141.89,409.76L123.80,395.33L104.80,380.61L85.12,365.62L65.03,350.37L44.81,334.86L24.75,319.06L5.79,303.47L5.79,303.47L7.64,311.33L19.03,320.69L39.60,336.89L60.33,352.80L80.93,368.43L101.10,383.80L120.59,398.90L139.14,413.70L156.55,428.18L172.63,442.27L187.23,455.93L200.26,469.06L211.66,481.57L221.39,493.37L225.40,498.79L225.40,498.79L219.77,498.16L210.71,487.19L199.03,474.37L185.68,460.91L170.71,446.92L154.23,432.47L136.39,417.63L117.38,402.46L97.41,386.99L76.74,371.25L55.63,355.22L34.38,338.92L13.30,322.31L9.85,319.48L9.85,319.48L13.45,328.57L29.16,340.95L50.93,357.65L72.55,374.06L93.72,390.19L114.17,406.03L133.65,421.57L151.91,436.76L168.79,451.56L184.12,465.89L197.80,479.68L209.76,492.81L213.48,497.32L213.48,497.32L206.82,496.24L196.57,484.98L182.56,470.88L166.87,456.20L149.60,441.06L130.90,425.50L110.97,409.60L90.03,393.38L68.35,376.87L46.22,360.07L23.95,342.98L16.09,336.79L15.61,336.97L18.77,345.03L41.52,362.50L64.16,379.68L86.34,396.57L107.76,413.17L128.15,429.44L147.28,445.35L164.95,460.85L181.01,475.86L195.33,490.29L199.48,494.84L199.48,494.84L191.60,493.08L179.45,480.84L163.03,465.49L144.96,449.64L125.4,433.37L104.55,416.73L82.65,399.77L59.97,382.50L36.82,364.92L22.70,354.08L22.70,354.08L27.34,363.68L32.12,367.35L55.78,385.31L78.96,402.96L101.34,420.30L122.65,437.31L142.65,453.94L161.12,470.13L177.90,485.82L182.85,490.81L182.85,490.81L173.27,487.94L159.20,474.78L140.33,458.23L119.90,441.24L98.13,423.87L75.26,406.15L51.59,388.12L32.87,373.91L32.87,373.91L39.21,384.41L39.59,385.00L47.40,390.93L71.57,409.35L94.92,427.44L117.16,445.18L138.01,462.52L157.28,479.42L162.30,484.11L162.30,484.11L150.92,479.53L149.47,478.90L135.70,466.82L114.41,449.11L91.71,431.00L67.88,412.54L48.17,397.53L48.17,397.53L55.65,407.25L60.16,412.66L64.19,415.74L88.51,434.57L111.66,453.05L133.38,471.11L133.37,471.13L122.66,465.14L112.26,458.63L102.19,451.62L92.47,444.13L83.14,436.16L74.20,427.75L65.69,418.91L57.63,409.66L50.02,400.03L42.90,390.04L36.28,379.71L30.17,369.06L24.60,358.13L19.56,346.94L15.08,335.52L11.17,323.89L7.83,312.08L5.08,300.13L2.91,288.05L1.34,275.88L0.37,263.65L0.00,251.38L0.24,239.11L1.07,226.87L2.51,214.68L4.54,202.58L7.16,190.60L10.37,178.75L14.15,167.08L18.50,155.61L23.42,144.36L28.87,133.37L34.86,122.66L41.37,112.26L48.38,102.19L55.88,92.47L63.84,83.14L72.25,74.20L81.09,65.69L90.34,57.63L99.97,50.02L109.96,42.90L120.29,36.28L130.94,30.17L141.87,24.60L153.06,19.56L164.48,15.08L176.11,11.17L187.92,7.83L199.87,5.08L211.95,2.91L224.12,1.34L230.60,0.75L232.19,3.53L238.60,17.02L243.32,29.16L246.54,39.60L248.53,48.05L249.56,54.25L249.97,58.29L249.56,54.25L248.53,48.05L246.54,39.60L243.32,29.16L238.60,17.02L232.19,3.53L230.60,0.75L230.60,0.75L230.60,0.75L230.60,0.75L218.39,2.01L206.26,3.86L194.24,6.30L182.35,9.33L170.62,12.94L159.08,17.12L147.76,21.86L136.69,27.15L125.89,32.98L115.40,39.33L105.22,46.19L95.39,53.54L85.94,61.36L76.88,69.64L68.24,78.35L60.04,87.48L52.29,96.99L45.02,106.88L38.25,117.11L31.98,127.66L26.24,138.50L21.04,149.62L16.39,160.97L12.30,172.54L8.79,184.30L5.85,196.21L3.51,208.26L1.76,220.40L0.60,232.62L0.05,244.88L0.10,257.15L0.75,269.40L2.01,281.61L3.86,293.74L6.30,305.76L9.33,317.65L12.94,329.38L17.12,340.92L21.86,352.24L27.15,363.31L32.98,374.11L39.33,384.60L46.19,394.78L53.54,404.61L61.36,414.06L69.64,423.12L78.35,431.76L87.48,439.96L96.99,447.71L106.88,454.98L117.11,461.75L127.66,468.02L138.50,473.76L149.62,478.96L160.97,483.61L172.54,487.70L184.30,491.21L196.21,494.15L208.26,496.49L220.40,498.24L232.62,499.40L244.88,499.95L257.15,499.90L267.28,499.40L267.27,499.40L267.27,499.40L267.27,499.40L266.84,499.43L261.08,487.27L256.50,475.43L253.36,465.24L251.43,456.99L250.43,450.93L250.05,447.23L250,461.89L249.94,463.25L249.54,467.26L248.45,473.83L246.36,482.76L242.96,493.79L240.63,499.82L240.63,499.82L233.16,499.43L238.92,487.27L243.50,475.43L246.64,465.24L248.57,456.99L249.57,450.93L249.95,447.23L250,445.98L250.05,431.21L250.39,434.61L251.31,440.16L253.08,447.72L255.96,457.06L260.16,467.92L265.88,479.99L273.27,492.93L277.09,498.53L277.09,498.53L289.25,496.90L289.54,495.86L279.50,483.53L271.16,471.30L264.43,459.54L259.23,448.56L255.41,438.69L252.80,430.20L251.19,423.33L250.35,418.28L250.04,415.19L250,430.06L249.95,431.21L249.61,434.61L248.69,440.16L246.92,447.72L244.04,457.06L239.84,467.92L234.12,479.99L226.73,492.93L222.91,498.53L222.91,498.53L210.75,496.90L210.46,495.86L220.50,483.53L228.84,471.30L235.57,459.54L240.77,448.56L244.59,438.69L247.20,430.20L248.81,423.33L249.65,418.28L249.96,415.19L250,414.15L250.04,399.17L250.32,401.95L251.07,406.50L252.52,412.68L254.87,420.32L258.31,429.21L262.99,439.08L269.04,449.67L276.55,460.67L285.59,471.78L296.17,482.66L308.26,493.02L308.28,493.11L320.14,489.96L331.83,486.23L333.84,485.52L327.11,482.56L313.84,475.06L301.79,466.58L291.03,457.37L281.63,447.69L273.60,437.82L266.93,428.04L261.55,418.63L257.39,409.85L254.33,401.95L252.24,395.16L250.95,389.66L250.28,385.62L250.04,383.15L250,398.23L249.96,399.17L249.68,401.95L248.93,406.50L247.48,412.68L245.13,420.32L241.69,429.21L237.01,439.08L230.96,449.67L223.45,460.67L214.41,471.78L203.84,482.66L191.74,493.02L191.72,493.11L179.86,489.96L168.17,486.23L166.16,485.52L172.89,482.56L186.16,475.06L198.21,466.58L208.97,457.37L218.37,447.69L226.40,437.82L233.07,428.04L238.45,418.63L242.61,409.85L245.67,401.95L247.76,395.16L249.05,389.66L249.72,385.62L249.96,383.15L250,382.32L250.03,367.13L250.25,369.29L250.84,372.83L251.96,377.64L253.79,383.58L256.46,390.49L260.10,398.18L264.81,406.41L270.65,414.97L277.68,423.60L285.91,432.07L295.31,440.13L305.86,447.55L317.47,454.12L330.03,459.64L343.43,463.96L357.49,466.92L371.67,468.40L371.67,468.40L382.24,462.16L392.49,455.42L402.39,448.18L411.94,440.47L421.09,432.29L429.82,423.68L438.13,414.64L445.98,405.21L446.49,404.11L439.06,410.80L428.61,418.30L417.32,424.72L405.37,429.96L392.93,433.94L380.20,436.61L367.37,437.94L354.62,437.95L342.14,436.65L330.08,434.10L318.60,430.41L307.83,425.67L297.88,420.04L288.84,413.68L280.78,406.77L273.73,399.52L267.70,392.12L262.69,384.78L258.66,377.72L255.54,371.14L253.25,365.21L251.68,360.12L250.72,356.00L250.21,352.97L250.03,351.11L250,366.40L249.97,367.13L249.75,369.29L249.16,372.83L248.04,377.64L246.21,383.58L243.54,390.49L239.90,398.18L235.19,406.41L229.35,414.97L222.32,423.60L214.09,432.07L204.69,440.13L194.14,447.55L182.53,454.12L169.97,459.64L156.57,463.96L142.51,466.92L128.33,468.40L128.33,468.40L139.20,474.11L150.33,479.27L161.70,483.89L173.28,487.94L185.05,491.41L196.97,494.31L209.02,496.62L221.17,498.33L233.39,499.45L245.65,499.96L257.92,499.87L259.37,499.82L257.04,493.79L253.64,482.76L251.55,473.83L250.46,467.26L250.06,463.25L250.46,467.26L251.55,473.83L253.64,482.76L257.04,493.79L259.37,499.82L259.37,499.82L271.62,499.06L283.81,497.70L295.93,495.75L307.93,493.20L319.79,490.06L331.49,486.35L342.99,482.06L354.26,477.22L365.29,471.83L376.03,465.91L386.47,459.46L396.59,452.51L406.35,445.08L415.73,437.17L424.72,428.81L433.28,420.02L441.40,410.83L449.06,401.24L456.24,391.29L462.93,381.00L469.1,370.40L473.24,361.06L475.68,349.56L476.5,337.83L475.68,325.99L473.24,314.11L469.23,302.28L463.69,290.56L456.74,279.01L448.48,267.65L439.06,256.52L428.61,245.61L417.32,234.92L405.37,224.46L392.93,214.20L380.20,204.14L367.37,194.26L354.62,184.55L342.14,175L330.08,165.63L318.60,156.43L307.83,147.44L297.88,138.68L288.84,130.2L280.78,122.04L273.73,114.27L267.70,106.95L262.69,100.14L258.66,93.92L255.54,88.36L253.25,83.52L251.68,79.47L250.72,76.26L250.21,73.93L250.03,72.52L250,72.05L249.97,72.52L249.79,73.93L249.28,76.26L248.32,79.47L246.75,83.52L244.46,88.36L241.34,93.92L237.31,100.14L232.30,106.95L226.27,114.27L219.22,122.04L211.16,130.2L202.12,138.68L192.17,147.44L181.40,156.43L169.92,165.63L157.86,175L145.38,184.55L132.63,194.26L119.80,204.14L107.07,214.20L94.63,224.46L82.68,234.92L71.39,245.61L60.94,256.52L51.52,267.65L43.26,279.01L36.31,290.56L30.78,302.28L26.76,314.11L24.32,325.99L23.5,337.83L24.32,349.56L26.76,361.06L26.17,361.35L20.97,350.23L16.33,338.87L12.25,327.30L8.74,315.54L5.82,303.63L3.65,291.58L8.80,283.01L18.44,269.76L29.44,256.77L41.62,244.04L54.79,231.58L68.74,219.37L83.25,207.40L98.10,195.66L113.07,184.13L127.94,172.80L142.51,161.67L156.57,150.73L169.97,140.00L182.53,129.51L194.14,119.29L204.69,109.40L214.09,99.88L222.32,90.82L229.35,82.27L235.19,74.33L239.90,67.08L243.54,60.59L246.21,54.94L248.04,50.22L249.16,46.47L249.75,43.76L249.97,42.11L250,41.56L250.03,42.11L250.25,43.76L250.84,46.47L251.96,50.22L253.79,54.94L256.46,60.59L260.10,67.08L264.81,74.33L270.65,82.27L277.68,90.82L285.91,99.88L295.31,109.40L305.86,119.29L317.47,129.51L330.03,140.00L343.43,150.73L357.49,161.67L372.06,172.80L386.93,184.13L401.90,195.66L416.75,207.40L431.26,219.37L445.21,231.58L458.38,244.04L470.56,256.77L481.56,269.76L491.20,283.01L496.48,291.79L496.48,291.79L498.24,279.65L499.39,267.43L499.95,255.17L499.95,254.81L488.15,242.47L473.10,228.23L457.15,214.28L440.57,200.60L423.60,187.19L406.49,174.01L389.50,161.06L372.85,148.33L356.77,135.83L341.47,123.57L327.11,111.59L313.84,99.91L301.79,88.60L291.03,77.73L281.63,67.36L273.60,57.60L266.93,48.52L261.55,40.23L257.39,32.81L254.33,26.36L252.24,20.96L250.95,16.68L250.28,13.58L250.04,11.70L250,11.07L249.96,11.70L249.72,13.58L249.05,16.68L247.76,20.96L245.67,26.36L242.61,32.81L238.45,40.23L233.07,48.52L226.40,57.60L218.37,67.36L208.97,77.73L198.21,88.60L186.16,99.91L172.89,111.59L158.53,123.57L143.23,135.83L127.15,148.33L110.50,161.06L93.51,174.01L76.40,187.19L59.43,200.60L42.84,214.28L26.90,228.23L11.85,242.47L0.05,254.81L0.05,254.81L0.11,242.54L0.78,230.28L1.90,222.36L16.95,209.19L35.61,193.80L54.70,178.71L73.95,163.89L93.07,149.32L111.79,135.00L129.88,120.94L147.10,107.15L163.26,93.66L178.18,80.52L191.74,67.80L203.84,55.57L214.41,43.91L223.45,32.92L230.96,22.71L237.01,13.38L241.69,5.04L244.04,0.07L244.04,0.07L255.96,0.07L258.31,5.04L262.99,13.38L269.04,22.71L276.55,32.92L285.59,43.91L296.17,55.57L308.26,67.80L321.82,80.52L336.74,93.66L352.90,107.15L370.12,120.94L388.21,135.00L406.93,149.32L426.05,163.89L445.30,178.71L464.39,193.80L483.05,209.19L498.51,222.71L498.51,222.71L496.87,210.55L494.63,198.49L492.91,190.88L488.21,187.00L467.00,170.23L445.61,153.76L424.37,137.58L403.56,121.67L383.47,106.04L364.33,90.72L346.38,75.73L329.80,61.14L314.73,47L301.29,33.41L289.54,20.45L279.50,8.25L274.31,1.19L274.31,1.18L286.49,2.68L298.58,4.76L300.99,5.25L306.42,11.25L321.21,26.20L337.78,41.75L356.02,57.81L375.77,74.29L396.81,91.14L418.92,108.33L441.81,125.83L465.18,143.64L481.85,156.48L481.85,156.48L476.98,145.22L471.57,134.21L465.62,123.47L459.25,114.09L434.27,95.00L410.16,76.25L387.20,57.86L365.66,39.88L345.76,22.36L339.64,16.62L339.64,16.62L328.08,12.51L316.34,8.96L304.43,6.00L292.39,3.62L280.25,1.84L268.04,0.65L255.78,0.07L243.51,0.08L231.25,0.70L225.69,1.19L220.50,8.25L210.46,20.45L198.71,33.41L185.27,47L170.20,61.14L153.62,75.73L135.67,90.72L116.53,106.04L96.44,121.67L75.63,137.58L54.39,153.76L33.00,170.23L11.79,187.00L7.09,190.88L7.09,190.88L10.29,179.03L14.06,167.35L18.40,155.87L18.98,155.84L34.82,143.64L58.19,125.83L81.08,108.33L103.19,91.14L124.23,74.29L143.98,57.81L162.22,41.75L178.79,26.20L193.58,11.25L199.01,5.25L199.01,5.25L187.06,8.05L175.27,11.43L163.65,15.38L160.36,16.62L154.24,22.36L134.34,39.88L112.80,57.86L89.84,76.25L65.72,95.00L41.89,113.22L41.08,112.69L34.60,123.11L28.63,133.83L23.20,144.83L18.31,156.09L13.98,167.57L10.22,179.25L7.04,191.10L4.44,203.09L2.43,215.20L1.03,227.39L0.22,239.63L0.01,251.90L0.40,264.16L1.40,276.39L2.99,288.56L5.18,300.63L7.96,312.59L11.32,324.39L15.26,336.01L19.76,347.42L24.82,358.60L30.42,369.52L36.55,380.15L43.19,390.47L50.34,400.45L52.29,403.00L60.94,410.80L71.39,418.30L82.68,424.72L94.63,429.96L107.07,433.94L119.80,436.61L132.63,437.94L145.38,437.95L157.86,436.65L169.92,434.10L181.40,430.41L192.17,425.67L202.12,420.04L211.16,413.68L219.22,406.77L226.27,399.52L232.30,392.12L237.31,384.78L241.34,377.72L244.46,371.14L246.75,365.21L248.32,360.12L249.28,356.00L249.79,352.97L249.97,351.11L250,350.49L250.02,335.09L250.18,336.64L250.60,339.16L251.40,342.60L252.71,346.84L254.62,351.78L257.22,357.27L260.58,363.15L264.75,369.26L269.77,375.43L275.65,381.48L282.37,387.24L289.9,392.53L298.19,397.23L307.17,401.17L316.73,404.25L326.78,406.37L337.19,407.46L347.81,407.45L358.50,406.34L369.11,404.12L379.47,400.80L389.44,396.44L398.85,391.09L407.55,384.83L415.40,377.76L422.28,369.97L428.08,361.57L432.69,352.67L436.04,343.38L438.07,333.80L438.75,324.03L438.07,314.15L436.04,304.25L432.69,294.40L428.08,284.63L422.28,275.01L415.40,265.54L407.55,256.26L398.85,247.17L389.44,238.27L379.47,229.55L369.11,221.00L358.50,212.62L347.81,204.38L337.19,196.29L326.78,188.33L316.73,180.52L307.17,172.86L298.19,165.37L289.9,158.07L282.37,151L275.65,144.20L269.77,137.73L264.75,131.62L260.58,125.95L257.22,120.77L254.62,116.13L252.71,112.10L251.40,108.73L250.60,106.05L250.18,104.11L250.02,102.94L250,102.54L249.98,102.94L249.82,104.11L249.40,106.05L248.60,108.73L247.29,112.10L245.38,116.13L242.78,120.77L239.42,125.95L235.25,131.62L230.23,137.73L224.35,144.20L217.63,151L210.1,158.07L201.81,165.37L192.83,172.86L183.27,180.52L173.22,188.33L162.81,196.29L152.19,204.38L141.50,212.62L130.89,221.00L120.53,229.55L110.56,238.27L101.16,247.17L92.45,256.26L84.60,265.54L77.72,275.01L71.92,284.63L67.31,294.40L63.96,304.25L61.93,314.15L61.25,324.03L61.93,333.80L63.96,343.38L67.31,352.67L71.92,361.57L77.72,369.97L84.60,377.76L92.45,384.83L101.16,391.09L110.56,396.44L120.53,400.80L130.89,404.12L141.50,406.34L152.19,407.45L162.81,407.46L173.22,406.37L183.27,404.25L192.83,401.17L201.81,397.23L210.1,392.53L217.63,387.24L224.35,381.48L230.23,375.43L235.25,369.26L239.42,363.15L242.78,357.27L245.38,351.78L247.29,346.84L248.60,342.60L249.40,339.16L249.82,336.64L249.98,335.09L250,334.57L250.02,319.08L250.14,320.31L250.48,322.33L251.12,325.08L252.17,328.48L253.69,332.43L255.77,336.81L258.46,341.52L261.80,346.41L265.82,351.35L270.52,356.18L275.89,360.79L281.92,365.03L288.55,368.78L295.73,371.94L303.39,374.40L311.43,376.10L319.75,376.97L328.25,376.96L336.80,376.07L345.28,374.29L353.58,371.64L361.55,368.15L369.08,363.87L376.04,358.86L382.32,353.21L387.83,346.98L392.46,340.26L396.15,333.14L398.83,325.70L400.46,318.04L401,310.22L400.46,302.32L398.83,294.40L396.15,286.52L392.46,278.71L387.83,271.01L382.32,263.44L376.04,256.01L369.08,248.74L361.55,241.62L353.58,234.64L345.28,227.80L336.80,221.09L328.25,214.50L319.75,208.03L311.43,201.67L303.39,195.42L295.73,189.29L288.55,183.29L281.92,177.45L275.89,171.8L270.52,166.36L265.82,161.18L261.80,156.30L258.46,151.76L255.77,147.62L253.69,143.91L252.17,140.68L251.12,137.98L250.48,135.84L250.14,134.29L250.02,133.35L250,133.03L249.98,133.35L249.86,134.29L249.52,135.84L248.88,137.98L247.83,140.68L246.31,143.91L244.23,147.62L241.54,151.76L238.20,156.30L234.18,161.18L229.48,166.36L224.11,171.8L218.08,177.45L211.45,183.29L204.27,189.29L196.61,195.42L188.57,201.67L180.25,208.03L171.75,214.50L163.20,221.09L154.72,227.80L146.42,234.64L138.45,241.62L130.92,248.74L123.96,256.01L117.68,263.44L112.17,271.01L107.54,278.71L103.85,286.52L101.17,294.40L99.54,302.32L99,310.22L99.54,318.04L101.17,325.70L103.85,333.14L107.54,340.26L112.17,346.98L117.68,353.21L123.96,358.86L130.92,363.87L138.45,368.15L146.42,371.64L154.72,374.29L163.20,376.07L171.75,376.96L180.25,376.97L188.57,376.10L196.61,374.40L204.27,371.94L211.45,368.78L218.08,365.03L224.11,360.79L229.48,356.18L234.18,351.35L238.20,346.41L241.54,341.52L244.23,336.81L246.31,332.43L247.83,328.48L248.88,325.08L249.52,322.33L249.86,320.31L249.98,319.08L250.02,318.21L250.02,318.21L246.27,308.18L246.27,308.18L244.54,311.24L242.38,314.42L239.79,317.62L236.75,320.77L233.28,323.76L229.39,326.52L225.11,328.96L220.47,331.01L215.53,332.61L210.34,333.71L204.96,334.28L199.48,334.28L193.95,333.70L188.47,332.54L183.12,330.82L177.97,328.55L173.11,325.76L168.62,322.51L164.56,318.83L161.01,314.78L158.01,310.42L155.63,305.79L153.90,300.96L152.85,295.98L152.5,290.89L152.85,285.76L153.90,280.61L155.63,275.49L158.01,270.41L161.01,265.40L164.56,260.48L168.62,255.66L173.11,250.93L177.97,246.3L183.12,241.76L188.47,237.32L193.95,232.96L199.48,228.68L204.96,224.47L210.34,220.33L215.53,216.27L220.47,212.29L225.11,208.39L229.39,204.60L233.28,200.92L236.75,197.39L239.79,194.02L242.38,190.84L244.54,187.89L246.27,185.2L247.62,182.79L248.60,180.69L249.28,178.94L249.69,177.55L249.91,176.54L249.99,175.93L250,175.72L250.01,175.93L250.09,176.54L250.31,177.55L250.72,178.94L251.40,180.69L252.38,182.79L253.73,185.2L255.46,187.89L257.62,190.84L260.21,194.02L263.25,197.39L266.72,200.92L270.61,204.60L274.89,208.39L279.53,212.29L284.47,216.27L289.66,220.33L295.04,224.47L300.52,228.68L306.05,232.96L311.52,237.32L316.88,241.76L322.03,246.3L326.89,250.93L331.38,255.66L335.44,260.48L338.99,265.40L341.99,270.41L344.37,275.49L346.10,280.61L347.15,285.76L347.5,290.89L347.15,295.98L346.10,300.96L344.37,305.79L341.99,310.42L338.99,314.78L335.44,318.83L331.38,322.51L326.89,325.76L322.03,328.55L316.88,330.82L311.52,332.54L306.05,333.70L300.52,334.28L295.04,334.28L289.66,333.71L284.47,332.61L279.53,331.01L274.89,328.96L270.61,326.52L266.72,323.76L263.25,320.77L260.21,317.62L257.62,314.42L255.46,311.24L253.73,308.18L252.38,305.33L251.40,302.76L250.72,300.55L250.31,298.76L250.09,297.45L250.01,296.65L250.09,297.45L250.31,298.76L250.72,300.55L251.40,302.76L252.38,305.33L253.73,308.18L255.46,311.24L257.62,314.42L260.21,317.62L263.25,320.77L266.72,323.76L270.61,326.52L274.89,328.96L279.53,331.01L284.47,332.61L289.66,333.71L295.04,334.28L300.52,334.28L306.05,333.70L311.52,332.54L316.88,330.82L322.03,328.55L326.89,325.76L331.38,322.51L335.44,318.83L338.99,314.78L341.99,310.42L344.37,305.79L346.10,300.96L347.15,295.98L347.5,290.89L347.15,285.76L346.10,280.61L344.37,275.49L341.99,270.41L338.99,265.40L335.44,260.48L331.38,255.66L326.89,250.93L322.03,246.3L316.88,241.76L311.52,237.32L306.05,232.96L300.52,228.68L295.04,224.47L289.66,220.33L284.47,216.27L279.53,212.29L274.89,208.39L270.61,204.60L266.72,200.92L263.25,197.39L260.21,194.02L257.62,190.84L255.46,187.89L253.73,185.2L252.38,182.79L251.40,180.69L250.72,178.94L250.31,177.55L250.09,176.54L250.01,175.93L250,175.72L249.99,175.93L249.91,176.54L249.69,177.55L249.28,178.94L248.60,180.69L247.62,182.79L246.27,185.2L244.54,187.89L242.38,190.84L239.79,194.02L236.75,197.39L233.28,200.92L229.39,204.60L225.11,208.39L220.47,212.29L215.53,216.27L210.34,220.33L204.96,224.47L199.48,228.68L193.95,232.96L188.47,237.32L183.12,241.76L177.97,246.3L173.11,250.93L168.62,255.66L164.56,260.48L161.01,265.40L158.01,270.41L155.63,275.49L153.90,280.61L152.85,285.76L152.5,290.89L152.85,295.98L153.90,300.96L155.63,305.79L158.01,310.42L161.01,314.78L164.56,318.83L168.62,322.51L173.11,325.76L177.97,328.55L183.12,330.82L188.47,332.54L193.95,333.70L199.48,334.28L204.96,334.28L210.34,333.71L215.53,332.61L220.47,331.01L225.11,328.96L229.39,326.52L233.28,323.76L236.75,320.77L239.79,317.62L242.38,314.42L244.54,311.24L246.27,308.18L247.62,305.33L248.60,302.76L249.28,300.55L249.69,298.76L249.91,297.45L249.99,296.65L250,296.38L250.01,283.83L250.06,284.39L250.21,285.30L250.50,286.53L250.97,288.06L251.65,289.84L252.58,291.82L253.78,293.94L255.28,296.13L257.07,298.36L259.17,300.53L261.57,302.61L264.27,304.51L267.23,306.20L270.44,307.62L273.87,308.73L277.46,309.49L281.18,309.88L284.98,309.88L288.80,309.48L292.59,308.68L296.30,307.49L299.87,305.92L303.23,303.99L306.34,301.74L309.15,299.19L311.61,296.39L313.68,293.37L315.33,290.16L316.53,286.82L317.26,283.37L317.5,279.85L317.26,276.30L316.53,272.73L315.33,269.18L313.68,265.67L311.61,262.20L309.15,258.80L306.34,255.46L303.23,252.18L299.87,248.98L296.30,245.84L292.59,242.76L288.80,239.74L284.98,236.78L281.18,233.86L277.46,231L273.87,228.19L270.44,225.43L267.23,222.73L264.27,220.11L261.57,217.56L259.17,215.11L257.07,212.78L255.28,210.58L253.78,208.54L252.58,206.68L251.65,205.01L250.97,203.56L250.50,202.34L250.21,201.38L250.06,200.68L250.01,200.26L250,200.12L249.99,200.26L249.94,200.68L249.79,201.38L249.50,202.34L249.03,203.56L248.35,205.01L247.42,206.68L246.22,208.54L244.72,210.58L242.93,212.78L240.83,215.11L238.43,217.56L235.73,220.11L232.77,222.73L229.56,225.43L226.13,228.19L222.54,231L218.82,233.86L215.02,236.78L211.20,239.74L207.41,242.76L203.70,245.84L200.13,248.98L196.77,252.18L193.66,255.46L190.85,258.80L188.39,262.20L186.32,265.67L184.67,269.18L183.47,272.73L182.74,276.30L182.5,279.85L182.74,283.37L183.47,286.82L184.67,290.16L186.32,293.37L188.39,296.39L190.85,299.19L193.66,301.74L196.77,303.99L200.13,305.92L203.70,307.49L207.41,308.68L211.20,309.48L215.02,309.88L218.82,309.88L222.54,309.49L226.13,308.73L229.56,307.62L232.77,306.20L235.73,304.51L238.43,302.61L240.83,300.53L242.93,298.36L244.72,296.13L246.22,293.94L247.42,291.82L248.35,289.84L249.03,288.06L249.50,286.53L249.79,285.30L249.94,284.39L249.99,283.83L250,283.65L250.00,271.02L250.03,271.33L250.12,271.83L250.28,272.52L250.54,273.37L250.92,274.36L251.43,275.45L252.10,276.63L252.93,277.85L253.93,279.09L255.09,280.30L256.43,281.45L257.93,282.51L259.57,283.44L261.36,284.24L263.26,284.85L265.25,285.27L267.32,285.49L269.43,285.49L271.56,285.27L273.66,284.82L275.72,284.16L277.70,283.29L279.57,282.22L281.30,280.97L282.86,279.55L284.23,277.99L285.38,276.31L286.30,274.53L286.96,272.68L287.37,270.76L287.5,268.81L287.37,266.83L286.96,264.85L286.30,262.88L285.38,260.93L284.23,259.00L282.86,257.11L281.30,255.25L279.57,253.43L277.70,251.65L275.72,249.91L273.66,248.2L271.56,246.52L269.43,244.88L267.32,243.26L265.25,241.67L263.26,240.10L261.36,238.57L259.57,237.07L257.93,235.61L256.43,234.2L255.09,232.84L253.93,231.55L252.93,230.32L252.10,229.19L251.43,228.15L250.92,227.23L250.54,226.42L250.28,225.75L250.12,225.21L250.03,224.82L250.00,224.59L250,224.51L250.00,224.59L249.97,224.82L249.88,225.21L249.72,225.75L249.46,226.42L249.08,227.23L248.57,228.15L247.90,229.19L247.07,230.32L246.07,231.55L244.91,232.84L243.57,234.2L242.07,235.61L240.43,237.07L238.64,238.57L236.74,240.10L234.75,241.67L232.68,243.26L230.57,244.88L228.44,246.52L226.34,248.2L224.28,249.91L222.30,251.65L220.43,253.43L218.70,255.25L217.14,257.11L215.77,259.00L214.62,260.93L213.70,262.88L213.04,264.85L212.63,266.83L212.5,268.81L212.63,270.76L213.04,272.68L213.70,274.53L214.62,276.31L215.77,277.99L217.14,279.55L218.70,280.97L220.43,282.22L222.30,283.29L224.28,284.16L226.34,284.82L228.44,285.27L230.57,285.49L232.68,285.49L234.75,285.27L236.74,284.85L238.64,284.24L240.43,283.44L242.07,282.51L243.57,281.45L244.91,280.30L246.07,279.09L247.07,277.85L247.90,276.63L248.57,275.45L249.08,274.36L249.46,273.37L249.72,272.52L249.88,271.83L249.97,271.33L250.00,271.02L250.01,270.65L250.00,271.02L249.97,271.33L249.88,271.83L249.72,272.52L249.46,273.37L249.08,274.36L248.57,275.45L247.90,276.63L247.07,277.85L246.07,279.09L244.91,280.30L243.57,281.45L242.07,282.51L240.43,283.44L238.64,284.24L236.74,284.85L234.75,285.27L232.68,285.49L230.57,285.49L228.44,285.27L226.34,284.82L224.28,284.16L222.30,283.29L220.43,282.22L218.70,280.97L217.14,279.55L215.77,277.99L214.62,276.31L213.70,274.53L213.04,272.68L212.63,270.76L212.5,268.81L212.63,266.83L213.04,264.85L213.70,262.88L214.62,260.93L215.77,259.00L217.14,257.11L218.70,255.25L220.43,253.43L222.30,251.65L224.28,249.91L226.34,248.2L228.44,246.52L230.57,244.88L232.68,243.26L233.06,242.96L233.06,242.96L233.72,241.44L233.72,241.44L234.62,240.79L235.59,240.23L236.62,239.78L237.69,239.43L238.79,239.20L239.90,239.08L240.99,239.08L242.07,239.19L243.11,239.42L244.09,239.74L245.02,240.15L245.88,240.64L246.66,241.19L247.35,241.79L247.96,242.43L248.48,243.07L248.91,243.71L249.25,244.32L249.52,244.89L249.64,245.19L250,250"/>

  </g>
</svg>
