<?xml version="1.0" standalone="no"?>
<!DOCTYPE svg PUBLIC "-//W3C//DTD SVG 1.1//EN" "http://www.w3.org/Graphics/SVG/1.1/DTD/svg11.dtd">
<svg width="500" height="500" title="polygons" version="1.1" viewBox="0 0 500 500" xmlns="http://www.w3.org/2000/svg" class="svg-paper">
  <g>

    <!-- File name: '1-0-spirograph-medallion' -->
    <!-- File type: svg -->


    <desc>pwidth:500;pheight:500;</desc>
    <path
       stroke="#000000"
       stroke-width="0.4mm"
       fill="none"
       d="M243.89,0.07L243.89,0.07L244.02,5.65L238.00,5.79L226.03,6.68L214.12,8.15L202.3,10.20L190.59,12.83L179.03,16.03L167.63,19.79L156.43,24.11L145.46,28.98L134.74,34.37L124.30,40.28L114.16,46.71L104.35,53.62L94.89,61.00L85.80,68.84L77.11,77.11L68.84,85.80L61.00,94.89L53.62,104.35L46.71,114.16L40.28,124.30L34.37,134.74L28.97,145.46L24.11,156.43L19.79,167.63L16.03,179.02L12.83,190.59L10.20,202.3L8.15,214.12L6.68,226.04L5.79,238.00L5.5,250L5.79,262.00L6.68,273.97L8.15,285.88L10.20,297.7L12.83,309.41L16.03,320.98L19.79,332.37L24.11,343.57L28.97,354.54L34.37,365.26L40.28,375.70L46.71,385.84L53.62,395.65L61.00,405.11L68.84,414.20L77.11,422.89L85.80,431.16L94.89,439.00L104.35,446.38L114.16,453.29L124.30,459.72L134.74,465.63L145.46,471.02L156.43,475.89L167.63,480.21L179.03,483.97L190.59,487.17L202.3,489.80L214.12,491.85L226.03,493.32L238.00,494.21L250,494.5L262.00,494.21L273.96,493.32L285.88,491.85L297.7,489.80L309.41,487.17L320.98,483.97L332.37,480.21L343.57,475.89L354.54,471.02L365.26,465.63L375.70,459.72L385.84,453.29L395.65,446.38L405.11,439.00L414.20,431.16L422.89,422.89L431.16,414.20L439.00,405.11L446.38,395.65L453.29,385.84L459.72,375.70L465.63,365.26L471.02,354.54L475.89,343.57L480.21,332.37L483.97,320.98L487.17,309.41L489.80,297.7L491.85,285.88L493.32,273.97L494.21,262.00L494.5,250L494.21,238.00L493.32,226.04L491.85,214.12L489.80,202.3L487.17,190.59L483.97,179.02L480.21,167.63L475.89,156.43L471.02,145.46L465.63,134.74L459.72,124.30L453.29,114.16L446.38,104.35L439.00,94.89L431.16,85.80L422.89,77.11L414.20,68.84L405.11,61.00L395.65,53.62L385.84,46.71L375.70,40.28L365.26,34.37L354.54,28.98L343.57,24.11L332.37,19.79L320.98,16.03L309.41,12.83L297.7,10.20L285.88,8.15L273.96,6.68L262.00,5.79L250,5.5L244.11,5.64L244.11,5.64L244.24,12.07L244.24,12.07L243.62,12.09L244.09,16.04L243.8,26.68L245.57,38.61L253.64,45.95L263.90,42.78L270.25,32.81L274.19,23.16L279.60,14.08L279.63,13.85L268.01,12.68L265.24,12.49L263.17,19.42L258.62,29.21L255.44,41.04L259.85,51.29L270.46,52.84L280.20,46.55L287.61,39.56L296.15,33.71L303.67,25.67L303.36,18.06L295.08,16.98L285.95,24.23L278.85,32.74L270.76,39.99L263.11,49.68L263.02,61.06L272.06,67.07L283.44,65.55L292.97,62.44L303.08,60.83L313.13,56.80L316.00,49.56L308.70,45.69L297.44,48.72L287.53,53.74L277.23,57.21L266.34,63.08L261.70,73.63L267.54,83.07L278.51,86.60L288.44,87.90L298.30,90.81L309.07,91.50L314.56,86.27L309.42,79.90L297.91,78.20L286.83,78.87L276.01,77.96L263.71,79.01L255.24,86.92L256.79,98.15L265.39,106.13L273.93,111.63L281.75,118.57L291.30,123.86L298.39,121.55L296.22,113.80L286.37,107.67L275.97,103.88L266.43,98.76L254.77,94.82L243.86,98.73L240.78,109.83L245.45,120.88L251.04,129.64L255.41,139.43L256.72,141.21L262.05,141.67L267.35,142.39L270.32,142.91L270.50,141.65L263.94,132.16L255.94,124.59L249.27,116.15L240.18,107.90L228.65,107.15L221.40,116.21L221.25,128.44L222.86,138.96L222.9,144.42L222.9,144.42L228.11,143.22L231.49,142.58L229.34,137.55L226.60,127.28L221.59,116.17L211.36,110.90L201.12,116.37L196.11,127.67L193.38,138.14L189.09,148.38L186.88,159.77L187.47,160.72L191.93,157.76L196.52,155.02L199.34,153.49L199.78,151.48L199.87,140.73L201.48,130.40L201.34,118.37L194.1,109.51L182.57,110.46L173.49,118.90L166.83,127.53L158.83,135.30L152.28,144.99L153.39,152.97L160.78,152.14L167.40,143.35L171.78,133.76L177.38,125.19L182.06,114.34L178.99,103.44L168.10,99.72L156.44,103.87L146.92,109.19L136.53,113.16L126.69,119.49L124.54,127.44L131.64,129.94L141.20,124.85L149.05,118.11L157.6,112.80L166.22,105.02L167.79,93.98L159.33,86.26L147.05,85.41L136.25,86.52L125.19,86.04L113.70,87.94L108.58,94.50L114.09,99.93L124.88,99.44L134.76,96.72L144.71,95.61L155.71,92.28L161.57,83.04L156.94,72.68L146.09,67.00L135.80,63.73L125.92,58.90L114.69,56.07L107.42,60.13L110.31,67.57L120.38,71.79L130.52,73.60L140.08,76.91L151.49,78.62L160.56,72.80L160.5,61.61L152.88,52.12L144.82,45.06L139.73,39.09L129.51,44.75L127.67,47.00L136.24,53.05L143.69,60.23L153.47,66.72L164.10,65.35L168.55,55.30L165.40,43.66L160.89,34.06L159.62,29.83L148.93,34.53L147.80,35.06L150.10,38.97L154.08,48.80L160.46,58.97L170.76,62.33L178.87,55.19L180.68,43.44L180.43,33.00L181.76,22.45L181.63,22.03L170.53,25.66L167.95,26.59L168.87,34.14L168.63,44.97L170.44,57.10L178.56,64.63L188.87,61.65L195.25,51.87L199.24,42.41L204.71,33.52L208.37,23.06L205.07,16.28L197.06,18.68L191.61,29.09L188.51,39.81L184.02,49.79L180.89,61.81L185.35,72.25L196.00,73.99L205.80,67.89L213.27,61.09L221.86,55.42L229.43,47.58L229.16,39.78L220.95,39.26L211.88,46.70L204.83,55.40L196.79,62.84L189.20,72.71L189.16,84.28L198.26,90.48L209.70,89.15L219.29,86.23L229.46,84.80L239.57,80.96L242.49,73.91L235.26,70.22L224.06,73.44L214.21,78.65L203.96,82.30L193.14,88.36L188.56,99.10L194.46,108.72L205.50,112.43L215.49,113.92L225.42,117.02L236.25,117.89L241.80,112.84L236.73,106.66L225.28,105.14L214.27,106.00L203.52,105.27L191.28,106.50L182.88,114.60L184.50,126.02L193.17,134.18L201.77,139.87L209.67,146.99L211.49,148.03L216.54,146.26L221.67,144.75L224.68,143.98L224.35,142.76L214.57,136.81L204.24,133.22L194.77,128.28L183.18,124.51L172.34,128.60L169.34,139.89L174.08,151.12L179.75,160.06L181.52,164.04L182.08,164.75L186.35,161.52L188.96,159.69L185.10,156.09L178.51,147.84L169.50,139.77L158.04,139.20L150.88,148.44L150.81,160.84L152.49,171.54L152.66,182.67L155.18,193.99L156.12,194.62L158.94,190.08L162.00,185.69L164.03,182.99L163.66,181.06L159.45,171.21L156.81,161.11L151.88,150.18L141.72,145.08L131.57,150.73L126.64,162.21L124.00,172.86L119.79,183.27L117.67,194.83L121.87,201.66L128.30,197.84L130.83,187.07L131.01,176.49L132.71,166.34L132.65,154.49L125.50,145.8L114.06,146.92L105.07,155.54L98.50,164.35L90.59,172.29L84.13,182.15L85.33,190.3L92.82,189.65L99.52,181.03L104.00,171.61L109.69,163.22L114.46,152.54L111.49,141.81L100.69,138.26L89.13,142.58L79.70,148.07L69.41,152.21L59.67,158.71L57.61,166.83L64.81,169.50L74.47,164.59L82.41,158.01L91.06,152.87L99.78,145.26L101.44,134.39L93.09,126.84L80.90,126.16L70.20,127.43L59.24,127.12L47.85,129.19L42.84,135.92L48.44,141.51L59.33,141.19L69.31,138.64L79.37,137.70L90.47,134.53L96.44,125.45L91.92,115.26L81.16,109.75L70.99,106.64L62.97,102.82L55.97,112.17L54.20,114.70L56.10,115.52L66.34,117.49L76.01,120.96L87.53,122.83L96.70,117.18L96.75,106.16L89.24,96.83L81.29,89.93L77.74,85.77L69.89,94.43L68.84,95.64L73.38,98.88L80.94,106.22L90.83,112.86L101.58,111.66L106.13,101.77L103.10,90.29L98.71,80.85L95.71,70.67L95.01,69.38L86.34,77.20L84.21,79.25L88.61,86.69L92.70,96.69L99.20,107.01L109.62,110.53L117.85,103.53L119.78,91.95L119.65,81.65L121.09,71.27L120.27,60.19L114.23,55.09L108.18,60.88L107.36,72.65L108.81,83.73L108.69,94.71L110.62,106.99L118.86,114.67L129.29,111.84L135.80,102.21L139.91,92.90L145.50,84.16L149.29,73.86L145.93,66.84L138.22,69.77L132.90,80.33L129.93,91.20L125.56,101.33L122.56,113.50L127.15,124.08L137.93,125.97L147.85,120.02L155.44,113.37L164.17,107.85L171.87,100.15L171.72,92.49L163.64,92.12L154.70,99.71L147.78,108.55L139.88,116.14L132.41,126.15L132.51,137.87L141.74,144.21L153.31,143.03L163.03,140.25L173.33,138.96L183.57,135.26L186.63,128.35L179.53,124.81L168.47,128.17L158.75,133.52L148.64,137.31L137.95,143.51L133.50,154.39L139.54,164.15L150.71,168.00L160.84,169.63L170.90,172.87L172.81,173.04L176.68,169.35L180.72,165.85L183.32,163.77L182.62,162.92L171.31,161.54L160.44,162.54L149.83,161.95L137.73,163.31L129.47,171.55L131.22,183.10L140.04,191.39L148.78,197.22L152.01,200.14L152.86,200.56L155.40,195.86L157.06,193.06L152.09,191.37L142.77,186.56L131.32,182.93L120.63,187.15L117.77,198.57L122.65,209.93L128.46,219.00L133.05,229.10L139.88,238.39L141.59,238.69L142.27,233.39L143.22,228.12L143.88,225.11L142.47,223.07L134.69,215.81L128.24,207.68L119.38,199.74L108.07,199.30L101.05,208.66L101.13,221.19L102.96,232.02L103.27,243.27L105.95,254.72L112.51,259.21L116.85,253.06L114.88,242.17L110.82,232.43L108.32,222.46L103.54,211.65L93.54,206.68L83.53,212.45L78.76,224.05L76.26,234.82L72.21,245.35L70.24,257.04L74.60,263.99L81.17,260.28L83.86,249.63L84.19,239.18L86.04,229.15L86.14,217.41L79.14,208.84L67.86,210.08L59.02,218.81L52.60,227.74L44.85,235.79L38.54,245.77L39.91,254.04L47.54,253.50L54.41,245L59.04,235.70L64.89,227.42L69.82,216.85L67.00,206.23L56.36,202.80L44.96,207.23L35.69,212.83L25.55,217.09L15.97,223.70L14.07,231.92L21.43,234.71L31.25,229.90L39.35,223.43L48.16,218.40L57.04,210.90L58.87,200.14L50.67,192.70L38.65,192.13L28.11,193.51L18.84,193.33L16.34,204.74L15.76,207.84L18.05,207.80L28.20,205.35L38.41,204.51L49.68,201.44L55.81,192.47L51.45,182.38L40.87,176.98L30.85,173.97L25.37,171.37L21.78,182.49L21.26,184.25L27.20,185.43L37.03,189.00L48.72,190.97L58.06,185.41L58.28,174.48L50.93,165.25L43.14,158.45L36.35,150.39L34.51,148.97L29.81,159.67L28.64,162.56L36.25,167.98L43.98,175.41L54.03,182.15L64.95,181.04L69.68,171.24L66.82,159.85L62.59,150.50L59.77,140.42L54.60,130.64L47.04,128.49L43.83,136.28L47.77,147.37L53.52,156.89L57.79,166.97L64.46,177.39L75.05,180.99L83.45,174.08L85.55,162.58L85.60,152.38L87.21,142.08L86.56,131.09L80.69,126.08L74.82,131.95L74.17,143.8L75.80,154.96L75.85,166.03L77.96,178.39L86.37,186.15L96.98,183.41L103.66,173.86L107.95,164.63L113.72,155.98L117.68,145.75L114.49,138.81L106.96,141.83L101.82,152.46L99.03,163.41L94.83,173.62L92.01,185.87L96.77,196.53L107.73,198.49L117.83,192.62L125.60,186.04L134.5,180.60L142.38,172.97L142.42,165.39L134.51,165.10L125.75,172.75L119.01,181.67L111.28,189.33L103.99,199.42L104.27,211.21L113.68,217.62L125.43,216.51L135.33,213.80L145.81,212.58L147.89,211.86L149.88,206.89L152.12,202.03L153.59,199.15L152.55,198.63L141.67,202.06L132.13,207.48L122.20,211.34L111.70,217.61L107.43,228.56L113.65,238.38L125.01,242.30L135.32,244.00L141.08,245.85L141.41,240.51L141.81,236.71L136.01,237.28L125.58,236.75L113.67,238.18L105.58,246.48L107.53,258.09L116.52,266.44L125.45,272.32L133.67,279.64L143.62,285.31L146.61,284.53L145.04,279.41L143.73,274.23L143.31,272.33L139.87,270.23L129.86,266.82L120.73,262.07L109.46,258.50L98.96,262.78L96.28,274.25L101.35,285.66L107.34,294.79L112.12,304.94L119.13,314.29L126.92,315.67L128.43,308.25L122.28,299.12L114.69,291.91L108.42,283.83L99.75,275.94L88.62,275.55L81.79,284.96L82.06,297.54L84.07,308.41L84.57,319.72L87.44,331.21L94.19,335.75L98.72,329.64L96.93,318.8L93.06,309.11L90.74,299.18L86.15,288.42L76.34,283.49L66.53,289.3L61.94,300.94L59.63,311.76L55.77,322.33L53.99,334.06L58.53,341.05L65.29,337.39L68.17,326.78L68.69,316.36L70.73,306.37L71.02,294.67L64.21,286.14L53.11,287.42L44.46,296.19L38.23,305.15L30.67,313.24L24.56,323.25L23.65,323.55L26.40,331.54L33.93,331.05L40.99,322.59L45.81,313.32L51.85,305.07L56.97,294.54L54.34,283.95L43.89,280.55L32.68,285.01L23.60,290.64L16.08,293.88L18.52,305.31L20.11,307.86L28.40,301.42L37.40,296.42L46.47,288.95L48.49,278.21L40.49,270.80L28.66,270.25L18.31,271.66L12.98,271.57L14.32,283.17L14.56,284.81L19.54,283.64L29.95,282.82L41.41,279.78L47.73,270.83L43.57,260.75L33.17,255.37L23.35,252.38L13.92,247.84L12.01,247.39L12.17,259.07L12.32,262.27L20.85,263.95L30.87,267.53L42.75,269.52L52.28,263.98L52.69,253.06L45.53,243.85L37.94,237.06L31.34,229.01L22.71,222.23L14.95,223.39L15.13,231.85L23.16,240.34L32.20,246.66L40.12,254.10L50.37,260.85L61.49,259.75L66.41,249.95L63.74,238.57L59.71,229.23L57.07,219.15L52.09,209.38L44.73,207.24L41.71,215.04L45.85,226.13L51.78,235.65L56.25,245.74L63.11,256.16L73.89,259.77L82.49,252.86L84.78,241.36L85.02,231.16L86.83,220.86L86.37,209.87L80.69,204.86L75.02,210.74L74.56,222.58L76.38,233.74L76.62,244.81L78.92,257.17L87.53,264.93L98.33,262.18L105.21,252.63L109.69,243.40L115.64,234.74L119.80,224.50L116.81,217.56L109.47,220.57L104.52,231.20L101.91,242.14L97.91,252.34L95.28,264.58L100.24,275.23L111.39,277.19L121.68,271.30L129.65,264.72L138.74,259.26L141.22,256.92L141.01,251.57L141.07,246.22L141.18,243.80L139.33,243.73L130.75,251.37L124.21,260.28L116.67,267.92L109.58,278.00L110.05,289.77L119.65,296.17L131.59,295.04L141.68,292.31L149.19,291.45L147.28,286.45L145.89,282.28L139.64,285.89L129.90,289.74L119.59,295.98L115.51,306.91L121.92,316.71L133.47,320.61L143.97,322.29L154.40,325.56L165.75,326.61L169.14,323.88L169.53,323.53L166.02,319.49L162.71,315.28L162.63,315.17L156.31,314.40L145.81,315.43L135.57,314.88L123.85,316.28L115.96,324.55L118.09,336.13L127.28,344.46L136.39,350.31L144.81,357.61L154.94,363.24L162.61,361.27L161.03,353.87L151.77,348.08L141.95,344.64L133.01,339.86L121.94,336.25L111.62,340.50L109.13,351.93L114.39,363.31L120.57,372.41L125.54,382.53L132.74,391.84L140.72,393.19L142.42,385.73L136.46,376.57L129.06,369.32L122.98,361.21L114.49,353.28L103.56,352.85L96.91,362.22L97.37,374.76L99.58,385.60L100.27,396.86L103.32,408.31L110.26,412.81L114.97,406.67L113.37,395.78L109.69,386.05L107.57,376.07L103.16,365.27L93.54,360.30L83.91,366.07L79.51,377.67L77.39,388.43L73.72,398.96L72.43,408.39L72.39,408.43L79.58,416.13L83.80,413.88L86.87,403.22L87.57,392.76L89.80,382.72L90.27,370.97L83.65,362.39L72.74,363.62L64.28,372.34L58.24,381.25L54.34,385.5L61.22,394.94L62.74,396.90L66.93,389.11L73.15,380.80L78.46,370.22L76.02,359.57L65.75,356.12L54.72,360.52L45.83,366.10L42.94,367.35L48.95,377.37L49.50,378.24L51.74,376.53L60.92,371.47L70.17,363.94L72.37,353.14L64.55,345.67L52.90,345.06L42.74,346.40L33.22,346.18L32.45,346.52L37.45,357.08L38.69,359.51L45.07,358.00L55.66,357.12L67.30,354.01L73.80,344.99L69.82,334.86L59.60,329.40L49.96,326.35L40.72,321.74L30.13,319.12L23.58,323.35L27.04,331.05L37.76,335.48L48.54,337.50L58.75,341.01L70.81,342.93L80.52,337.31L81.11,326.33L74.13,317.04L66.72,310.18L60.29,302.06L51.84,295.20L44.26,296.29L44.62,304.67L52.82,313.09L62.04,319.33L70.14,326.69L80.57,333.37L91.86,332.19L96.96,322.32L94.47,310.86L90.61,301.44L88.16,291.28L83.35,281.44L76.17,279.21L73.32,286.93L77.63,297.94L83.75,307.39L88.38,317.39L95.42,327.73L106.38,331.25L115.15,324.27L117.62,312.68L118.03,302.40L120.01,292.01L119.73,280.94L114.23,275.84L108.72,281.63L108.44,293.39L110.43,304.47L110.84,315.44L113.32,327.72L122.10,335.39L133.07,332.56L140.12,322.91L144.77,313.60L150.90,304.85L152.59,300.82L153.36,300.42L151.00,295.62L148.89,290.70L148.28,289.17L145.24,290.41L140.46,300.94L138.03,311.80L134.20,321.90L131.74,334.05L136.86,344.61L148.19,346.48L158.64,340.49L166.78,333.82L174.26,329.33L174.73,328.84L170.95,325.05L167.68,321.44L162.35,328.80L154.98,336.35L148.05,346.33L148.69,358L158.46,364.30L170.56,363.07L180.83,360.25L191.67,358.92L202.45,355.17L205.40,349.46L200.57,347.15L197.17,345.34L188.95,347.93L179.77,353.22L170.20,356.96L160.05,363.10L156.14,373.93L162.71,383.63L174.42,387.43L185.09,388.99L195.69,392.17L207.19,393.11L213.41,388.14L209.01,382.02L198.24,380.58L187.90,381.50L177.83,380.85L166.27,382.14L158.53,390.30L160.83,401.78L170.18,409.99L179.45,415.74L188.03,422.92L198.32,428.44L206.15,426.37L204.73,418.85L195.62,412.95L185.97,409.40L177.18,404.51L166.26,400.78L156.10,404.92L153.78,416.24L159.19,427.51L165.53,436.49L170.66,446.50L178.01,455.69L186.15,456.93L188.01,449.36L182.20,440.07L174.95,432.71L169.03,424.48L160.70,416.44L149.92,415.88L143.43,425.14L144.04,437.57L146.40,448.28L147.24,459.42L148.95,465.48L159.65,470.18L160.97,470.72L162.41,468.87L160.95,457.86L157.42,448.01L155.45,437.91L151.20,426.99L141.72,421.89L132.25,427.54L128.00,439.02L126.03,449.66L125.05,452.56L135.14,458.45L136.62,459.26L137.10,453.24L139.48,443.07L140.10,431.20L133.63,422.49L122.86,423.59L114.55,432.19L108.65,440.97L108.40,441.30L117.96,448.01L118.21,448.05L124.58,439.61L130.03,428.90L127.73,418.12L117.60,414.54L106.72,418.81L97.97,424.25L91.09,427.18L99.98,434.76L101.74,436.18L104.73,433.88L114.05,428.69L123.44,421.02L125.78,410.09L118.10,402.48L106.59,401.73L96.57,402.94L86.28,402.56L75.56,404.55L72.76,408.84L80.08,416.64L89.06,416.34L99.72,413.71L110.45,412.69L122.22,409.44L128.86,400.28L125.01,390.01L114.93,384.41L105.42,381.22L96.31,376.47L85.86,373.70L79.37,377.84L83.03,385.35L93.89,389.64L104.80,391.51L115.14,394.89L127.33,396.66L137.18,390.90L137.89,379.77L131.05,370.34L123.77,363.33L117.47,355.07L109.15,348.06L101.70,349.01L102.18,357.24L110.51,365.51L119.87,371.61L128.09,378.83L138.65,385.35L150.06,384.02L155.29,374.01L152.92,362.40L149.19,352.83L146.86,342.53L142.18,332.53L135.12,330.15L132.41,337.72L136.84,348.59L143.08,357.88L147.83,367.73L155.00,377.92L166.08,381.29L174.97,374.15L177.56,362.42L178.09,351.98L180.20,341.44L180.08,333.62L176.06,330.09L172.78,326.93L169.27,330.6L169.11,342.21L171.21,353.13L171.75,363.95L174.34,376.07L183.24,383.59L194.33,380.60L201.50,370.80L206.26,361.32L212.51,352.42L212.53,352.36L207.55,350.40L202.68,348.19L202.48,348.10L200.21,358.58L196.50,368.53L194.15,380.52L199.39,390.92L210.82,392.62L221.40,386.48L229.64,379.65L239.01,373.94L247.37,366.05L247.82,358.98L242.48,358.74L239.48,358.49L232.15,365.02L225.88,373.67L218.62,381.05L211.80,390.87L212.55,402.38L222.42,408.52L234.64,407.13L245.01,404.14L255.95,402.65L266.84,398.74L270.54,391.61L264.08,387.85L253.66,391.00L244.59,396.13L235.12,399.71L225.08,405.68L221.27,416.34L227.94,425.88L239.76,429.51L250.53,430.91L261.23,433.92L272.84,434.69L279.16,429.55L274.86,423.27L264.19,421.66L253.95,422.42L243.97,421.59L232.51,422.72L224.88,430.71L227.27,442.02L236.72,450.06L246.09,455.64L254.76,462.65L265.16,468.01L273.08,465.76L271.76,458.07L262.75,452.00L253.19,448.28L244.50,443.22L233.67,439.32L223.61,443.29L221.37,454.44L226.88,465.53L233.32,474.35L238.53,484.18L241.56,487.85L253.25,487.98L255.8,487.93L256.16,486.52L250.44,477.06L243.28,469.52L237.45,461.12L229.21,452.90L218.52,452.18L212.12,461.26L212.81,473.51L215.26,484.05L215.38,485.47L226.98,486.88L228.28,487.01L226.80,482.72L224.92,472.45L220.75,461.35L211.36,456.08L201.97,461.55L197.80,472.85L196.18,481.83L207.62,484.20L207.85,484.24L209.93,475.47L210.63,463.42L204.23,454.53L193.55,455.46L185.31,463.87L179.49,472.47L176.03,476.21L187.22,479.57L188.69,479.97L189.50,478.47L195.95,469.85L201.47,458.96L199.25,448.00L189.19,444.23L178.38,448.32L169.7,453.58L160.15,457.50L151.16,463.77L150.74,466.31L161.47,470.92L162.98,471.52L168.19,468.93L176.88,462.12L186.27,456.74L195.73,448.88L198.14,437.77L190.53,429.98L179.09,429.04L169.13,430.07L158.91,429.50L148.25,431.31L143.98,437.79L150.32,443.12L161.95,442.54L172.67,439.73L183.46,438.52L195.30,435.09L202.00,425.75L198.21,415.28L188.19,409.50L178.75,406.12L169.70,401.19L159.30,398.24L152.87,402.19L156.60,409.51L167.51,413.61L178.48,415.3L188.88,418.48L201.13,420.07L211.03,414.12L211.80,402.81L205.01,393.18L197.79,385.99L191.55,377.54L183.28,370.35L175.88,371.10L176.42,379.15L184.81,387.23L194.21,393.13L202.49,400.16L213.10,406.50L224.57,404.99L229.84,394.78L227.53,382.98L223.85,373.23L221.57,362.73L217.96,354.79L218.13,354.24L213.05,352.55L209.48,351.19L207.25,357.35L211.74,368.03L218.02,377.13L222.83,386.79L230.03,396.79L241.16,399.97L250.10,392.64L252.74,380.71L253.31,370.08L255.46,359.36L255.44,358.86L250.09,359L244.74,358.87L247.41,358.97L250.09,359L252.76,358.97L255.44,358.86L258.11,358.70L260.77,358.47L263.43,358.17L266.08,357.81L268.72,357.38L271.35,356.89L273.97,356.33L276.57,355.71L279.16,355.03L281.73,354.28L284.28,353.47L286.81,352.60L289.31,351.66L291.80,350.67L294.25,349.61L296.68,348.50L299.09,347.32L301.46,346.09L303.80,344.80L306.11,343.45L308.39,342.04L310.63,340.58L312.84,339.06L315.00,337.50L317.13,335.88L319.22,334.20L321.26,332.48L323.27,330.70L325.22,328.88L327.14,327.01L329.00,325.10L330.82,323.13L332.59,321.13L334.31,319.08L335.99,316.99L337.60,314.86L339.17,312.69L340.68,310.48L342.14,308.24L343.54,305.96L344.88,303.65L346.17,301.30L347.40,298.93L348.57,296.52L349.69,294.09L350.74,291.63L351.73,289.14L352.66,286.64L353.53,284.11L354.33,281.56L355.07,278.99L355.75,276.40L356.37,273.80L356.92,271.18L357.41,268.55L357.83,265.90L358.19,263.25L358.48,260.60L358.71,257.93L358.87,255.26L358.97,252.59L359,249.91L358.97,247.24L358.86,244.56L358.70,241.89L358.47,239.23L358.17,236.57L357.81,233.92L357.38,231.28L356.89,228.65L356.33,226.03L355.71,223.43L355.03,220.84L354.28,218.27L353.47,215.72L352.60,213.19L351.66,210.69L350.67,208.20L349.61,205.75L348.50,203.32L347.32,200.91L346.09,198.54L344.80,196.20L343.45,193.89L342.04,191.61L340.58,189.37L339.06,187.16L337.50,185.00L335.88,182.87L334.20,180.78L332.48,178.74L330.70,176.73L328.88,174.78L327.01,172.86L325.10,171.00L323.13,169.18L321.13,167.41L319.08,165.69L316.99,164.01L314.86,162.40L312.69,160.83L310.48,159.32L308.24,157.86L305.96,156.46L303.65,155.12L301.30,153.83L298.93,152.60L296.52,151.43L294.09,150.31L291.63,149.26L289.14,148.27L286.64,147.34L284.11,146.47L281.56,145.67L278.99,144.93L276.40,144.25L273.80,143.63L271.18,143.08L268.55,142.59L265.90,142.17L263.25,141.81L260.60,141.52L257.93,141.29L255.26,141.13L252.59,141.03L249.91,141L247.24,141.03L244.56,141.14L241.89,141.30L239.23,141.53L236.57,141.83L233.92,142.19L231.28,142.62L228.65,143.11L226.03,143.67L223.43,144.29L220.84,144.97L218.27,145.72L215.72,146.53L213.19,147.40L210.69,148.34L208.20,149.33L205.75,150.39L203.32,151.50L200.91,152.68L198.54,153.91L196.20,155.20L193.89,156.55L191.61,157.96L189.37,159.42L187.16,160.94L185.00,162.50L182.87,164.13L180.78,165.80L178.74,167.52L176.73,169.30L174.78,171.12L172.86,172.99L171.00,174.90L169.18,176.87L167.41,178.87L165.69,180.92L164.01,183.01L162.40,185.14L160.83,187.31L159.32,189.52L157.86,191.76L156.46,194.04L155.12,196.35L153.83,198.70L152.60,201.07L151.43,203.48L150.31,205.91L149.26,208.37L148.27,210.86L147.34,213.36L146.47,215.89L145.67,218.44L144.93,221.01L144.25,223.60L143.63,226.20L143.08,228.82L142.59,231.45L142.17,234.10L141.81,236.75L141.52,239.40L141.29,242.07L141.13,244.74L141.03,247.41L141,250.09L141.03,252.76L141.14,255.44L141.30,258.11L141.53,260.77L141.83,263.43L142.19,266.08L142.62,268.72L143.11,271.35L143.67,273.97L144.29,276.57L144.97,279.16L145.72,281.73L146.53,284.28L147.40,286.81L148.34,289.31L149.33,291.80L150.39,294.25L151.50,296.68L152.68,299.09L153.91,301.46L155.20,303.80L156.55,306.11L157.96,308.39L159.42,310.63L160.94,312.84L162.50,315.00L164.13,317.13L165.80,319.22L167.52,321.26L169.30,323.27L171.12,325.22L172.99,327.14L174.91,329.00L176.87,330.82L178.87,332.59L180.92,334.31L183.01,335.99L185.14,337.60L187.31,339.17L189.52,340.68L191.76,342.14L194.04,343.54L196.35,344.88L198.70,346.17L201.07,347.40L203.48,348.57L205.91,349.69L208.37,350.74L210.85,351.73L213.36,352.66L215.89,353.53L218.44,354.33L221.01,355.07L223.60,355.75L226.20,356.37L228.82,356.92L231.45,357.41L234.09,357.83L236.75,358.19L239.41,358.48L242.07,358.71L244.74,358.87L244.54,359.36L246.69,370.08L247.26,380.71L249.90,392.64L258.84,399.97L269.97,396.79L277.17,386.79L281.98,377.13L288.26,368.03L292.75,357.35L290.52,351.19L285.50,353.06L282.36,354.08L278.43,362.73L276.15,373.23L272.47,382.98L270.16,394.78L275.43,404.99L286.90,406.50L297.51,400.16L305.79,393.13L315.19,387.23L323.58,379.15L324.12,371.10L316.72,370.35L308.45,377.54L302.21,385.99L294.99,393.18L288.20,402.81L288.97,414.12L298.87,420.07L311.12,418.48L321.52,415.3L332.49,413.61L343.40,409.51L347.13,402.19L340.70,398.24L330.30,401.19L321.25,406.12L311.81,409.50L301.79,415.28L298.00,425.75L304.70,435.09L316.54,438.52L327.33,439.73L338.05,442.54L349.68,443.12L356.02,437.79L351.75,431.31L341.09,429.50L330.88,430.07L320.91,429.04L309.47,429.98L301.86,437.77L304.27,448.88L313.73,456.74L323.12,462.12L331.81,468.93L337.02,471.52L347.79,466.98L349.26,466.31L348.84,463.77L339.85,457.50L330.3,453.58L321.62,448.32L310.81,444.23L300.75,448.00L298.53,458.96L304.05,469.85L310.50,478.47L311.31,479.97L322.52,476.68L323.97,476.21L320.51,472.47L314.69,463.87L306.45,455.46L295.77,454.53L289.37,463.42L290.07,475.47L292.15,484.24L303.60,481.89L303.82,481.83L302.20,472.85L298.03,461.55L288.64,456.08L279.25,461.35L275.08,472.45L273.20,482.72L271.73,487.01L283.33,485.65L284.62,485.47L284.74,484.05L287.19,473.51L287.88,461.26L281.48,452.18L270.79,452.90L262.55,461.12L256.72,469.52L249.56,477.06L243.84,486.52L244.2,487.93L255.88,487.93L258.44,487.85L261.47,484.18L266.68,474.35L273.12,465.53L278.63,454.44L276.39,443.29L266.33,439.32L255.50,443.22L246.81,448.28L237.25,452.00L228.24,458.07L226.92,465.76L234.84,468.01L245.24,462.65L253.91,455.64L263.28,450.06L272.73,442.02L275.12,430.71L267.49,422.72L256.03,421.59L246.05,422.42L235.81,421.66L225.14,423.27L220.84,429.55L227.16,434.69L238.77,433.92L249.47,430.91L260.24,429.51L272.06,425.88L278.73,416.34L274.92,405.68L264.88,399.71L255.41,396.13L246.34,391.00L235.92,387.85L229.46,391.61L233.16,398.74L244.05,402.65L254.99,404.14L265.36,407.13L277.58,408.52L287.45,402.38L288.20,390.87L281.38,381.05L274.12,373.67L267.85,365.02L261.34,359.22L261.25,358.42L255.92,358.84L252.18,358.98L252.63,366.05L260.99,373.94L270.36,379.65L278.60,386.48L289.18,392.62L300.61,390.92L305.85,380.52L303.50,368.53L299.79,358.58L297.52,348.10L292.64,350.31L287.67,352.28L287.49,352.42L293.74,361.32L298.50,370.80L305.67,380.60L316.76,383.59L325.65,376.07L328.25,363.95L328.79,353.13L330.89,342.21L330.73,330.6L327.72,327.45L327.21,326.94L323.34,330.63L319.92,333.62L319.80,341.44L321.91,351.98L322.44,362.42L325.03,374.15L333.92,381.29L345.00,377.92L352.17,367.73L356.92,357.88L363.16,348.59L367.60,337.72L364.88,330.15L357.82,332.53L353.14,342.53L350.81,352.83L347.08,362.40L344.71,374.01L349.94,384.02L361.35,385.35L371.91,378.83L380.13,371.61L389.49,365.51L397.82,357.24L398.30,349.01L390.85,348.06L382.53,355.07L376.24,363.33L368.95,370.34L362.11,379.77L362.82,390.90L372.67,396.66L384.86,394.89L395.20,391.51L406.11,389.64L416.97,385.35L420.63,377.84L414.14,373.70L403.69,376.47L394.58,381.22L385.07,384.41L374.99,390.01L371.14,400.28L377.78,409.44L389.55,412.69L400.28,413.71L410.94,416.34L419.92,416.64L427.24,408.84L424.44,404.55L413.72,402.56L403.43,402.94L393.41,401.73L381.90,402.48L374.22,410.09L376.56,421.02L385.95,428.69L395.27,433.88L398.26,436.18L407.22,428.68L408.90,427.18L402.03,424.25L393.28,418.81L382.40,414.54L372.27,418.12L369.97,428.90L375.42,439.61L381.79,448.05L381.85,448.14L391.41,441.43L391.35,440.97L385.45,432.19L377.14,423.59L366.38,422.49L359.90,431.20L360.52,443.07L362.90,453.24L363.38,459.26L373.51,453.44L374.95,452.56L373.97,449.66L372.00,439.02L367.75,427.54L358.28,421.89L348.80,426.99L344.55,437.91L342.58,448.01L339.05,457.86L337.59,468.87L339.03,470.72L349.75,466.09L351.05,465.48L352.76,459.42L353.60,448.28L355.96,437.57L356.57,425.14L350.08,415.88L339.30,416.44L330.97,424.48L325.05,432.71L317.80,440.07L311.99,449.36L313.85,456.93L321.99,455.69L329.34,446.50L334.47,436.49L340.81,427.51L346.23,416.24L343.90,404.92L333.74,400.78L322.82,404.51L314.03,409.40L304.38,412.95L295.27,418.85L293.85,426.37L301.68,428.44L311.97,422.92L320.55,415.74L329.82,409.99L339.17,401.78L341.47,390.30L333.73,382.14L322.17,380.85L312.10,381.50L301.76,380.58L290.99,382.02L286.59,388.14L292.81,393.11L304.31,392.17L314.91,388.99L325.58,387.43L337.29,383.63L343.86,373.93L339.95,363.10L329.80,356.96L320.23,353.22L311.05,347.93L302.83,345.34L298.09,347.82L294.60,349.46L297.55,355.17L308.33,358.92L319.17,360.25L329.44,363.07L341.54,364.30L351.31,358L351.95,346.33L345.02,336.35L337.65,328.80L332.54,321.74L332.27,321.50L328.66,325.46L325.13,328.97L333.22,333.82L341.36,340.49L351.81,346.48L363.14,344.61L368.26,334.05L365.80,321.90L361.97,311.80L359.54,300.94L354.76,290.41L351.72,289.17L349.67,294.12L347.39,298.95L346.97,299.77L349.10,304.85L355.23,313.60L359.88,322.91L366.93,332.56L377.90,335.39L386.68,327.72L389.15,315.44L389.57,304.47L391.56,293.39L391.28,281.63L385.77,275.84L380.27,280.94L379.99,292.01L381.97,302.40L382.38,312.68L384.85,324.27L393.62,331.25L404.58,327.73L411.62,317.39L416.25,307.39L422.37,297.94L426.68,286.93L423.83,279.21L416.65,281.44L411.84,291.28L409.39,301.44L405.53,310.86L403.04,322.32L408.14,332.19L419.43,333.37L429.86,326.69L437.96,319.33L447.18,313.09L455.38,304.67L455.74,296.29L448.16,295.20L439.71,302.06L433.28,310.18L425.87,317.04L418.89,326.33L419.48,337.31L429.19,342.93L441.25,341.01L451.46,337.50L462.24,335.48L472.96,331.05L473.68,331.31L476.42,323.35L469.87,319.12L459.28,321.74L450.04,326.35L440.40,329.40L430.18,334.86L426.2,344.99L432.70,354.01L444.34,357.12L454.93,358.00L461.31,359.51L466.43,349.01L467.68,346.16L457.26,346.40L447.10,345.06L435.45,345.67L427.63,353.14L429.83,363.94L439.08,371.47L448.26,376.53L450.50,378.24L456.55,368.25L457.06,367.35L454.17,366.10L445.28,360.52L434.25,356.12L423.98,359.57L421.54,370.22L426.85,380.80L433.07,389.11L437.26,396.90L444.24,387.53L445.66,385.5L441.76,381.25L435.72,372.34L427.26,363.62L416.35,362.39L409.73,370.97L410.20,382.72L412.43,392.76L413.13,403.22L416.20,413.88L420.42,416.13L427.58,408.46L426.28,398.96L422.61,388.43L420.49,377.67L416.09,366.07L406.46,360.30L396.84,365.27L392.43,376.07L390.31,386.05L386.63,395.78L385.02,406.67L389.74,412.81L396.68,408.31L399.73,396.86L400.42,385.60L402.63,374.76L403.09,362.22L396.44,352.85L385.51,353.28L377.02,361.21L370.94,369.32L363.54,376.57L357.58,385.73L359.28,393.19L367.26,391.84L374.46,382.53L379.43,372.41L385.61,363.31L390.87,351.93L388.38,340.50L378.06,336.25L366.99,339.86L358.05,344.64L348.23,348.08L338.97,353.87L337.39,361.27L345.06,363.24L355.19,357.61L363.61,350.31L372.72,344.46L381.91,336.13L384.04,324.55L376.15,316.28L364.43,314.88L354.19,315.43L343.69,314.40L337.37,315.17L334.07,319.38L330.56,323.42L330.44,323.55L334.25,326.61L345.60,325.56L356.03,322.29L366.53,320.61L378.08,316.71L384.49,306.91L380.41,295.98L370.10,289.74L360.36,285.89L354.11,282.28L352.40,287.35L350.81,291.45L358.32,292.31L368.41,295.04L380.35,296.17L389.95,289.77L390.42,278.00L383.33,267.92L375.79,260.28L369.25,251.37L360.67,243.73L358.82,243.80L359.00,249.15L358.91,254.5L358.78,256.92L361.26,259.26L370.35,264.72L378.32,271.30L388.61,277.19L399.76,275.23L404.72,264.58L402.09,252.34L398.09,242.14L395.48,231.20L390.53,220.57L383.19,217.56L380.20,224.50L384.36,234.74L390.31,243.40L394.79,252.63L401.67,262.18L412.47,264.93L421.08,257.17L423.38,244.81L423.63,233.74L425.44,222.58L424.98,210.74L419.31,204.86L413.63,209.87L413.17,220.86L414.98,231.16L415.22,241.36L417.51,252.86L426.11,259.77L436.89,256.16L443.75,245.74L448.22,235.65L454.15,226.13L458.29,215.04L455.27,207.24L447.91,209.38L442.93,219.15L440.29,229.23L436.26,238.57L433.60,249.95L438.51,259.75L449.63,260.85L459.88,254.10L467.80,246.66L476.84,240.34L484.87,231.85L485.05,223.39L477.29,222.23L468.66,229.01L462.06,237.06L454.47,243.85L447.31,253.06L447.72,263.98L457.25,269.52L469.13,267.53L479.15,263.95L487.68,262.27L488.00,250.59L487.99,247.39L486.08,247.84L476.65,252.38L466.83,255.37L456.43,260.75L452.27,270.83L458.59,279.78L470.05,282.82L480.46,283.64L485.44,284.81L486.87,273.21L487.02,271.57L481.69,271.66L471.35,270.25L459.51,270.80L451.51,278.21L453.53,288.95L462.60,296.42L471.60,301.42L479.89,307.86L480.80,308.09L483.37,296.70L483.92,293.88L476.40,290.64L467.32,285.01L456.11,280.55L445.66,283.95L443.03,294.54L448.15,305.07L454.19,313.32L459.01,322.59L466.07,331.05L473.60,331.54L475.44,323.25L469.33,313.24L461.77,305.15L455.54,296.19L446.89,287.42L435.79,286.14L428.98,294.67L429.27,306.37L431.31,316.36L431.83,326.78L434.71,337.39L441.47,341.05L446.01,334.06L444.23,322.33L440.37,311.76L438.06,300.94L433.48,289.3L423.66,283.49L413.85,288.42L409.26,299.18L406.94,309.11L403.07,318.8L401.28,329.64L405.81,335.75L412.56,331.21L415.43,319.72L415.93,308.41L417.94,297.54L418.21,284.96L411.38,275.55L400.25,275.94L391.58,283.83L385.31,291.91L377.72,299.12L371.57,308.25L373.08,315.67L380.87,314.29L387.88,304.94L392.66,294.79L398.65,285.66L403.72,274.25L401.04,262.78L390.54,258.50L379.27,262.07L370.14,266.82L360.13,270.23L356.69,272.33L355.46,277.54L353.99,282.68L353.39,284.53L356.38,285.31L366.33,279.64L374.55,272.32L383.48,266.44L392.48,258.09L394.42,246.48L386.33,238.18L374.42,236.75L363.99,237.28L358.19,236.71L358.71,242.03L358.92,245.85L364.68,244.00L374.99,242.30L386.35,238.38L392.57,228.56L388.30,217.61L377.80,211.34L367.87,207.48L358.33,202.06L347.45,198.63L346.42,199.15L348.79,203.95L350.93,208.85L352.11,211.86L354.19,212.58L364.67,213.80L374.57,216.51L386.32,217.62L395.73,211.21L396.01,199.42L388.72,189.33L380.99,181.67L374.25,172.75L365.49,165.10L357.58,165.39L357.62,172.97L365.5,180.60L374.40,186.04L382.17,192.62L392.27,198.49L403.23,196.53L407.99,185.87L405.17,173.62L400.98,163.41L398.18,152.46L393.04,141.83L385.51,138.81L382.32,145.75L386.28,155.98L392.05,164.63L396.34,173.86L403.02,183.41L413.63,186.15L422.04,178.39L424.15,166.03L424.20,154.96L425.83,143.8L425.18,131.95L419.31,126.08L413.44,131.09L412.79,142.08L414.40,152.38L414.45,162.58L416.55,174.08L424.95,180.99L435.54,177.39L442.21,166.97L446.48,156.89L452.23,147.37L456.17,136.28L452.96,128.49L445.40,130.64L440.23,140.42L437.40,150.50L433.18,159.85L430.32,171.24L435.05,181.04L445.97,182.15L456.02,175.41L463.75,167.98L471.36,162.56L466.8,151.81L465.49,148.97L463.65,150.39L456.86,158.45L449.07,165.25L441.73,174.48L441.94,185.41L451.28,190.97L462.97,189.00L472.80,185.43L478.74,184.25L475.24,173.10L474.63,171.37L469.15,173.97L459.13,176.98L448.55,182.38L444.19,192.47L450.32,201.44L461.59,204.51L471.80,205.35L481.95,207.80L484.24,207.84L481.88,196.40L481.15,193.33L471.89,193.51L461.35,192.13L449.33,192.70L441.13,200.14L442.96,210.90L451.84,218.40L460.65,223.43L468.75,229.90L478.57,234.71L485.93,231.92L484.03,223.70L474.45,217.09L464.31,212.83L455.04,207.23L443.64,202.80L433.00,206.23L430.18,216.85L435.11,227.42L440.96,235.70L445.59,245L452.46,253.50L460.10,254.04L461.46,245.77L455.15,235.79L447.40,227.74L440.98,218.81L432.14,210.08L420.86,208.84L413.86,217.41L413.96,229.15L415.81,239.18L416.14,249.63L418.83,260.28L425.40,263.99L429.76,257.04L427.79,245.35L423.74,234.82L421.24,224.05L416.47,212.45L406.46,206.68L396.46,211.65L391.68,222.46L389.18,232.43L385.13,242.17L383.15,253.06L387.49,259.21L394.05,254.72L396.73,243.27L397.04,232.02L398.87,221.19L398.95,208.66L391.93,199.30L380.62,199.74L371.76,207.68L365.31,215.81L357.53,223.07L356.12,225.11L357.21,230.35L358.05,235.63L358.41,238.69L360.12,238.39L366.95,229.10L371.54,219.00L377.35,209.93L382.23,198.57L379.37,187.15L368.68,182.93L357.23,186.56L347.91,191.37L343.78,192.77L343.05,193.22L345.72,197.86L347.26,200.79L351.22,197.22L359.96,191.39L368.78,183.10L370.53,171.55L362.27,163.31L350.17,161.95L339.56,162.54L328.69,161.54L317.38,162.92L316.68,163.77L320.83,167.15L324.81,170.73L327.19,173.04L329.10,172.87L339.16,169.63L349.29,168.00L360.46,164.15L366.50,154.39L362.05,143.51L351.36,137.31L341.25,133.52L331.53,128.17L320.47,124.81L313.37,128.35L316.43,135.26L326.67,138.96L336.97,140.25L346.69,143.03L358.26,144.21L367.49,137.87L367.59,126.15L360.12,116.14L352.22,108.55L345.30,99.71L336.36,92.12L328.27,92.49L328.13,100.15L335.83,107.85L344.56,113.37L352.15,120.02L362.07,125.97L372.85,124.08L377.44,113.50L374.44,101.33L370.07,91.20L367.10,80.33L361.78,69.77L354.07,66.84L350.71,73.86L354.50,84.16L360.09,92.90L364.20,102.21L370.71,111.84L381.14,114.67L389.38,106.99L391.31,94.71L391.19,83.73L392.64,72.65L391.82,60.88L385.77,55.09L379.73,60.19L378.90,71.27L380.35,81.65L380.22,91.95L382.15,103.53L390.38,110.53L400.80,107.01L407.30,96.69L411.39,86.69L415.79,79.25L407.22,71.32L404.99,69.38L404.29,70.67L401.29,80.85L396.89,90.29L393.87,101.77L398.42,111.66L409.17,112.86L419.06,106.22L426.62,98.88L431.15,95.64L423.36,86.94L422.26,85.77L418.71,89.93L410.76,96.83L403.25,106.16L403.30,117.18L412.47,122.83L423.99,120.96L433.66,117.49L443.90,115.52L445.80,114.70L438.93,105.26L437.03,102.82L429.01,106.64L418.84,109.75L408.08,115.26L403.56,125.45L409.53,134.53L420.63,137.70L430.69,138.64L440.67,141.19L451.56,141.51L457.16,135.92L452.15,129.19L440.76,127.12L429.80,127.43L419.10,126.16L406.91,126.84L398.56,134.39L400.22,145.26L408.94,152.87L417.59,158.01L425.53,164.59L435.19,169.50L442.39,166.83L440.33,158.71L430.59,152.21L420.30,148.07L410.87,142.58L399.31,138.26L388.51,141.81L385.54,152.54L390.31,163.22L396.00,171.61L400.48,181.03L407.18,189.65L414.67,190.3L415.87,182.15L409.41,172.29L401.50,164.35L394.93,155.54L385.94,146.92L374.50,145.8L367.35,154.49L367.29,166.34L368.99,176.49L369.17,187.07L371.70,197.84L378.13,201.66L382.33,194.83L380.21,183.27L376.00,172.86L373.36,162.21L368.43,150.73L358.28,145.08L348.12,150.18L343.19,161.11L340.55,171.21L336.34,181.06L335.97,182.99L339.15,187.28L342.12,191.74L343.88,194.62L344.82,193.99L347.35,182.67L347.51,171.54L349.19,160.84L349.13,148.44L341.96,139.20L330.50,139.77L321.49,147.84L314.90,156.09L311.71,159.07L311.21,159.81L315.56,162.92L318.1,164.89L320.25,160.06L325.92,151.12L330.66,139.89L327.66,128.60L316.82,124.51L305.23,128.28L295.76,133.22L285.43,136.81L275.65,142.76L275.32,143.98L280.49,145.35L285.59,146.97L288.51,148.03L290.33,146.99L298.23,139.87L306.83,134.18L315.50,126.02L317.12,114.60L308.72,106.50L296.48,105.27L285.73,106.00L274.72,105.14L263.27,106.66L258.20,112.84L263.75,117.89L274.58,117.02L284.51,113.92L294.50,112.43L305.54,108.72L311.44,99.10L306.86,88.36L296.04,82.30L285.79,78.65L275.94,73.44L264.74,70.22L257.51,73.91L260.43,80.96L270.54,84.80L280.71,86.23L290.30,89.15L301.74,90.48L310.84,84.28L310.80,72.71L303.21,62.84L295.17,55.40L288.12,46.70L279.05,39.26L270.84,39.78L270.57,47.58L278.14,55.42L286.73,61.09L294.20,67.89L304.00,73.99L314.65,72.25L319.11,61.81L315.98,49.79L311.49,39.81L308.39,29.09L302.94,18.68L303.10,18.00L294.93,16.28L291.63,23.06L295.29,33.52L300.76,42.41L304.75,51.87L311.13,61.65L321.44,64.63L329.56,57.10L331.37,44.97L331.13,34.14L332.05,26.59L320.99,22.83L318.24,22.45L319.57,33.00L319.32,43.44L321.13,55.19L329.24,62.33L339.54,58.97L345.92,48.80L349.90,38.97L352.20,35.06L341.53,30.31L340.38,29.83L339.11,34.06L334.60,43.66L331.45,55.30L335.90,65.35L346.53,66.72L356.31,60.23L363.76,53.05L372.33,47.00L372.84,46.15L362.69,40.37L360.27,39.09L355.18,45.06L347.13,52.12L339.5,61.61L339.44,72.80L348.51,78.62L359.92,76.91L369.48,73.60L379.62,71.79L389.69,67.57L392.58,60.13L385.31,56.07L374.08,58.90L364.20,63.73L353.91,67.00L343.06,72.68L338.43,83.04L344.29,92.28L355.29,95.61L365.24,96.72L375.13,99.44L385.91,99.93L391.42,94.50L386.30,87.94L374.81,86.04L363.75,86.52L352.95,85.41L340.67,86.26L332.21,93.98L333.78,105.02L342.4,112.80L350.95,118.11L358.80,124.85L368.36,129.94L375.46,127.44L373.31,119.49L363.47,113.16L353.08,109.19L343.56,103.87L331.90,99.72L321.01,103.44L317.94,114.34L322.62,125.19L328.22,133.76L332.60,143.35L339.22,152.14L346.61,152.97L347.72,144.99L341.17,135.30L333.17,127.53L326.51,118.90L317.43,110.46L305.9,109.51L298.66,118.37L298.52,130.40L300.13,140.73L300.22,151.48L300.67,153.49L305.34,156.09L309.88,158.92L312.53,160.72L313.12,159.77L310.91,148.38L306.62,138.14L303.89,127.67L298.88,116.37L288.64,110.90L278.41,116.17L273.39,127.28L270.66,137.55L268.51,142.58L273.76,143.62L277.10,144.42L277.14,138.96L278.75,128.44L278.60,116.21L271.35,107.15L259.82,107.90L250.73,116.15L244.06,124.59L236.06,132.16L229.50,141.65L229.68,142.91L234.95,142.04L240.27,141.44L243.28,141.21L244.59,139.43L248.96,129.64L254.55,120.88L259.22,109.83L256.14,98.73L245.23,94.82L233.57,98.76L224.03,103.88L213.63,107.67L203.78,113.80L201.61,121.55L208.70,123.86L218.25,118.57L226.07,111.63L234.61,106.13L243.21,98.15L244.76,86.92L236.29,79.01L223.99,77.96L213.17,78.87L202.09,78.20L190.58,79.90L185.44,86.27L190.93,91.50L201.70,90.81L211.56,87.90L221.49,86.60L232.47,83.07L238.30,73.63L233.66,63.08L222.78,57.21L212.47,53.74L202.56,48.72L191.30,45.69L184.00,49.56L186.87,56.80L196.92,60.83L207.03,62.44L216.56,65.55L227.94,67.07L236.98,61.06L236.89,49.68L229.24,39.99L221.15,32.74L214.05,24.23L204.92,16.98L204.79,16.33L196.64,18.06L196.33,25.67L203.85,33.71L212.39,39.56L219.80,46.55L229.54,52.84L240.15,51.29L244.56,41.04L241.38,29.21L236.83,19.42L234.76,12.49L223.13,13.52L220.40,14.08L225.81,23.16L229.75,32.81L236.10,42.78L246.36,45.95L254.43,38.61L256.2,26.68L255.91,16.04L256.38,12.09L244.7,12.06L243.62,12.09L244.09,16.04L243.8,26.68L245.57,38.61L253.64,45.95L263.90,42.78L265.93,12.53L254.26,12.04L242.58,12.12L230.92,12.77L219.3,13.99L207.76,15.78L196.31,18.13L185.00,21.05L173.85,24.51L162.87,28.52L152.11,33.06L141.58,38.13L131.32,43.70L121.34,49.77L111.67,56.33L102.33,63.35L93.35,70.82L84.75,78.72L76.54,87.04L68.76,95.74L61.41,104.82L54.51,114.25L48.09,124.01L42.15,134.07L36.71,144.40L31.78,155.00L27.38,165.82L23.52,176.84L20.21,188.05L17.44,199.39L15.24,210.87L13.60,222.43L12.53,234.07L12.04,245.74L12.12,257.42L12.77,269.08L13.99,280.7L15.78,292.24L18.13,303.69L21.05,315.00L24.51,326.15L28.52,337.13L33.06,347.89L38.13,358.42L43.70,368.68L49.77,378.66L56.33,388.33L63.35,397.67L70.82,406.65L78.72,415.25L87.04,423.46L95.74,431.24L104.82,438.59L114.25,445.49L124.01,451.91L134.07,457.85L144.41,463.29L155.00,468.22L165.82,472.62L176.84,476.48L188.05,479.79L199.40,482.56L210.87,484.76L222.43,486.40L234.07,487.47L245.74,487.96L257.42,487.88L269.08,487.23L280.7,486.01L292.24,484.22L303.69,481.87L315.00,478.95L326.15,475.49L337.13,471.48L347.89,466.94L358.42,461.87L368.68,456.30L378.66,450.23L388.33,443.67L397.67,436.65L406.65,429.18L415.25,421.28L423.46,412.96L431.24,404.26L438.59,395.18L445.49,385.75L451.91,375.99L457.85,365.93L463.29,355.60L468.22,345.00L472.62,334.18L476.48,323.16L479.79,311.95L482.56,300.61L484.76,289.13L486.40,277.57L487.47,265.93L487.96,254.26L487.88,242.58L487.23,230.92L486.01,219.3L484.22,207.76L481.87,196.31L478.95,185.00L475.49,173.85L471.48,162.87L466.94,152.11L461.87,141.58L456.30,131.32L450.23,121.34L443.67,111.67L436.65,102.33L429.18,93.35L421.28,84.75L412.96,76.54L404.26,68.76L395.18,61.41L385.75,54.51L375.99,48.09L365.93,42.15L355.60,36.71L345.00,31.78L334.18,27.38L323.16,23.52L311.95,20.21L300.61,17.44L289.13,15.24L277.57,13.60L265.48,12.49L277.57,13.60L289.13,15.24L300.61,17.44L311.95,20.21L323.16,23.52L334.18,27.38L345.00,31.78L355.60,36.71L365.93,42.15L375.99,48.09L385.75,54.51L395.18,61.41L404.26,68.76L412.96,76.54L421.28,84.75L429.18,93.35L436.65,102.33L443.67,111.67L450.23,121.34L456.30,131.32L461.87,141.58L466.94,152.11L471.48,162.87L475.49,173.85L478.95,185.00L481.87,196.31L484.22,207.76L486.01,219.3L487.23,230.92L487.88,242.58L487.96,254.26L487.47,265.93L486.40,277.57L484.76,289.13L482.56,300.61L479.79,311.95L476.48,323.16L472.62,334.18L468.22,345.00L463.29,355.60L457.85,365.93L451.91,375.99L445.49,385.75L438.59,395.18L431.24,404.26L423.46,412.96L415.25,421.28L406.65,429.18L397.67,436.65L388.33,443.67L378.66,450.23L368.68,456.30L358.42,461.87L347.89,466.94L337.13,471.48L326.15,475.49L315.00,478.95L303.69,481.87L292.24,484.22L280.7,486.01L269.08,487.23L257.42,487.88L245.74,487.96L234.07,487.47L222.43,486.40L210.87,484.76L199.40,482.56L188.05,479.79L176.84,476.48L165.82,472.62L155.00,468.22L144.41,463.29L134.07,457.85L124.01,451.91L114.25,445.49L104.82,438.59L95.74,431.24L87.04,423.46L78.72,415.25L70.82,406.65L63.35,397.67L56.33,388.33L49.77,378.66L43.70,368.68L38.13,358.42L33.06,347.89L28.52,337.13L24.51,326.15L21.05,315.00L18.13,303.69L15.78,292.24L13.99,280.7L12.77,269.08L12.12,257.42L12.04,245.74L12.53,234.07L13.60,222.43L15.24,210.87L17.44,199.39L20.21,188.05L23.52,176.84L27.38,165.82L31.78,155.00L36.71,144.40L42.15,134.07L48.09,124.01L54.51,114.25L61.41,104.82L68.76,95.74L76.54,87.04L84.75,78.72L93.35,70.82L102.33,63.35L111.67,56.33L121.34,49.77L131.32,43.70L141.58,38.13L152.11,33.06L162.87,28.52L173.85,24.51L185.00,21.05L196.31,18.13L207.76,15.78L219.3,13.99L230.92,12.77L242.58,12.12L254.26,12.04L265.93,12.53L263.90,42.78L253.64,45.95L245.57,38.61L243.8,26.68L244.09,16.04L243.62,12.09L244.7,12.06L256.38,12.09L255.91,16.04L256.2,26.68L254.43,38.61L246.36,45.95L236.10,42.78L229.75,32.81L225.81,23.16L220.40,14.08L223.13,13.52L234.76,12.49L236.83,19.42L241.38,29.21L244.56,41.04L240.15,51.29L229.54,52.84L219.80,46.55L212.39,39.56L203.85,33.71L196.33,25.67L196.64,18.06L204.79,16.33L204.92,16.98L214.05,24.23L221.15,32.74L229.24,39.99L236.89,49.68L236.98,61.06L227.94,67.07L216.56,65.55L207.03,62.44L196.92,60.83L186.87,56.80L184.00,49.56L191.30,45.69L202.56,48.72L212.47,53.74L222.78,57.21L233.66,63.08L238.30,73.63L232.47,83.07L221.49,86.60L211.56,87.90L201.70,90.81L190.93,91.50L185.44,86.27L190.58,79.90L202.09,78.20L213.17,78.87L223.99,77.96L236.29,79.01L244.76,86.92L243.21,98.15L234.61,106.13L226.07,111.63L218.25,118.57L208.70,123.86L201.61,121.55L203.78,113.80L213.63,107.67L224.03,103.88L233.57,98.76L245.23,94.82L256.14,98.73L259.22,109.83L254.55,120.88L248.96,129.64L244.59,139.43L243.28,141.21L240.27,141.44L234.95,142.04L229.68,142.91L229.50,141.65L236.06,132.16L244.06,124.59L250.73,116.15L259.82,107.90L271.35,107.15L278.60,116.21L278.75,128.44L277.14,138.96L277.10,144.42L276.54,144.29L276.54,144.29L275.95,144.15L275.95,144.15L271.26,143.09L265.99,142.18L260.68,141.52L255.35,141.13L254.20,141.10L254.20,141.10L254.13,145.60L254.13,145.60L250,145.5L244.87,145.63L239.76,146.00L234.67,146.63L229.61,147.51L224.61,148.63L219.66,150L214.80,151.61L210.01,153.45L205.32,155.53L200.74,157.84L196.28,160.37L191.94,163.11L187.75,166.06L183.71,169.22L179.82,172.57L176.11,176.11L172.57,179.82L169.22,183.71L166.06,187.75L163.11,191.94L160.37,196.28L157.84,200.74L155.53,205.32L153.45,210.01L151.61,214.80L150,219.67L148.63,224.61L147.51,229.61L146.63,234.67L146.00,239.76L145.63,244.87L145.5,250L145.63,255.13L146.00,260.24L146.63,265.33L147.51,270.39L148.63,275.39L150,280.34L151.61,285.20L153.45,289.99L155.53,294.68L157.84,299.26L160.37,303.72L163.11,308.06L166.06,312.25L169.22,316.29L172.57,320.18L176.11,323.89L179.82,327.43L183.71,330.78L187.75,333.94L191.94,336.89L196.28,339.63L200.74,342.16L205.32,344.47L210.01,346.55L214.80,348.39L219.66,350L224.61,351.37L229.61,352.49L234.67,353.37L239.76,354.00L244.87,354.37L250,354.5L255.13,354.37L260.24,354.00L265.33,353.37L270.39,352.49L275.39,351.37L280.33,350L285.20,348.39L289.99,346.55L294.68,344.47L299.26,342.16L303.72,339.63L308.06,336.89L312.25,333.94L316.29,330.78L320.18,327.43L323.89,323.89L327.43,320.18L330.78,316.29L333.94,312.25L336.89,308.06L339.63,303.72L342.16,299.26L344.47,294.68L346.55,289.99L348.39,285.20L350,280.34L351.37,275.39L352.49,270.39L353.37,265.33L354.00,260.24L354.37,255.13L354.5,250L354.37,244.87L354.00,239.76L353.37,234.67L352.49,229.61L351.37,224.61L350,219.67L348.39,214.80L346.55,210.01L344.47,205.32L342.16,200.74L339.63,196.28L336.89,191.94L333.94,187.75L330.78,183.71L327.43,179.82L323.89,176.11L320.18,172.57L316.29,169.22L312.25,166.06L308.06,163.11L303.72,160.37L299.26,157.84L294.68,155.53L289.99,153.45L285.20,151.61L280.33,150L275.39,148.63L270.39,147.51L265.33,146.63L260.24,146.00L255.13,145.63L253.66,145.59L253.66,145.59L252.77,154.66L252.77,154.66L255.51,155.13L258.20,155.90L260.79,156.98L263.26,158.34L265.58,159.98L267.73,161.88L269.68,164.02L271.41,166.39L272.89,168.95L274.12,171.68L275.07,174.56L275.74,177.56L276.10,180.65L276.16,183.80L275.91,186.98L275.35,190.16L274.48,193.30L273.31,196.38L271.84,199.37L270.08,202.24L268.06,204.96L265.77,207.51L263.25,209.85L260.52,211.98L257.59,213.86L254.49,215.48L251.25,216.83L247.91,217.89L244.47,218.65L240.99,219.11L237.47,219.26L233.97,219.10L230.51,218.63L227.11,217.87L223.81,216.81L220.65,215.46L217.63,213.85L214.79,211.99L212.16,209.89L209.76,207.59L207.60,205.09L205.71,202.44L204.09,199.64L202.77,196.74L201.75,193.76L201.04,190.73L200.64,187.69L200.55,184.66L200.76,181.67L201.29,178.75L202.10,175.94L203.20,173.26L204.57,170.74L206.19,168.40L208.05,166.27L210.11,164.38L212.37,162.73L214.78,161.36L217.34,160.26L220.00,159.46L222.73,158.96L225.52,158.77L228.32,158.90L231.11,159.33L233.85,160.08L236.52,161.13L239.09,162.48L241.52,164.11L243.79,166.01L245.88,168.15L247.76,170.54L249.41,173.13L250.81,175.91L251.94,178.85L252.80,181.92L253.36,185.09L253.61,188.35L253.56,191.64L253.21,194.96L252.54,198.25L251.56,201.50L250.29,204.67L248.72,207.74L246.88,210.67L244.77,213.44L242.41,216.03L239.83,218.40L237.05,220.54L234.08,222.43L230.96,224.06L227.72,225.40L224.37,226.44L220.96,227.19L217.50,227.63L214.04,227.76L210.60,227.59L207.22,227.10L203.92,226.32L200.73,225.25L197.68,223.91L194.80,222.30L192.11,220.45L189.64,218.38L187.41,216.11L185.43,213.65L183.72,211.05L182.30,208.33L181.18,205.51L180.36,202.63L179.86,199.71L179.66,196.79L179.78,193.89L180.20,191.06L180.93,188.31L181.94,185.67L183.24,183.18L184.79,180.87L186.59,178.75L188.61,176.84L190.84,175.18L193.24,173.78L195.79,172.65L198.47,171.81L201.24,171.26L204.07,171.03L206.94,171.10L209.81,171.49L212.65,172.19L215.44,173.19L218.14,174.5L220.72,176.10L223.16,177.97L225.42,180.10L227.49,182.47L229.34,185.07L230.95,187.86L232.31,190.83L233.39,193.94L234.19,197.18L234.69,200.50L234.88,203.89L234.77,207.31L234.34,210.73L233.62,214.11L232.58,217.44L231.25,220.67L229.64,223.78L227.75,226.75L225.61,229.54L223.24,232.13L220.65,234.50L217.86,236.63L214.91,238.50L211.81,240.10L208.60,241.40L205.31,242.41L201.97,243.12L198.60,243.51L195.24,243.60L191.91,243.38L188.66,242.85L185.50,242.03L182.47,240.93L179.59,239.56L176.89,237.93L174.40,236.07L172.13,234.00L170.11,231.73L168.36,229.30L166.89,226.73L165.70,224.05L164.82,221.29L164.25,218.48L163.99,215.65L164.05,212.83L164.41,210.05L165.08,207.34L166.04,204.73L167.30,202.25L168.82,199.93L170.59,197.79L172.61,195.85L174.83,194.15L177.25,192.69L179.83,191.50L182.55,190.59L185.38,189.97L188.29,189.65L191.25,189.65L194.24,189.95L197.21,190.57L200.14,191.49L203.00,192.72L205.75,194.24L208.38,196.05L210.85,198.12L213.14,200.45L215.22,203.00L217.07,205.77L218.68,208.73L220.02,211.84L221.09,215.09L221.86,218.45L222.33,221.88L222.50,225.36L222.35,228.85L221.9,232.33L221.14,235.76L220.09,239.11L218.74,242.36L217.11,245.48L215.22,248.43L213.09,251.20L210.73,253.75L208.16,256.08L205.41,258.15L202.51,259.96L199.48,261.49L196.35,262.72L193.15,263.64L189.91,264.26L186.66,264.58L183.44,264.58L180.26,264.27L177.17,263.66L174.19,262.77L171.36,261.59L168.68,260.16L166.20,258.47L163.94,256.56L161.91,254.45L160.14,252.16L158.64,249.71L157.43,247.14L156.52,244.47L155.91,241.73L155.61,238.96L155.62,236.18L155.95,233.42L156.59,230.71L157.52,228.09L158.75,225.59L160.26,223.22L162.03,221.03L164.05,219.03L166.30,217.24L168.75,215.69L171.38,214.40L174.16,213.38L177.06,212.64L180.06,212.21L183.13,212.07L186.24,212.25L189.35,212.74L192.44,213.54L195.47,214.64L198.41,216.04L201.25,217.74L203.93,219.70L206.45,221.93L208.78,224.40L210.89,227.09L212.76,229.98L214.38,233.04L215.72,236.25L216.78,239.58L217.55,243.00L218.01,246.49L218.17,250L218.01,253.51L217.55,257.00L216.78,260.42L215.72,263.75L214.38,266.96L212.76,270.02L210.89,272.91L208.78,275.60L206.45,278.07L203.93,280.30L201.25,282.26L198.41,283.96L195.47,285.36L192.44,286.46L189.35,287.26L186.24,287.75L183.13,287.93L180.06,287.79L177.06,287.36L174.16,286.62L171.38,285.60L168.75,284.31L166.30,282.76L164.05,280.97L162.03,278.97L160.26,276.78L158.75,274.41L157.52,271.91L156.59,269.29L155.95,266.58L155.62,263.82L155.61,261.04L155.91,258.27L156.52,255.53L157.43,252.86L158.64,250.29L160.14,247.84L161.91,245.55L163.94,243.44L166.20,241.53L168.68,239.84L171.36,238.41L174.19,237.23L177.17,236.33L180.26,235.73L183.44,235.42L186.66,235.42L189.91,235.74L193.15,236.36L196.35,237.29L199.48,238.51L202.51,240.04L205.41,241.85L208.16,243.92L210.73,246.25L213.09,248.80L215.22,251.57L217.11,254.52L218.74,257.64L220.09,260.89L221.14,264.24L221.9,267.67L222.35,271.15L222.50,274.64L222.33,278.12L221.86,281.55L221.09,284.91L220.02,288.16L218.68,291.27L217.07,294.23L215.22,297.00L213.14,299.55L210.85,301.88L208.38,303.95L205.75,305.76L203.00,307.28L200.14,308.51L197.21,309.43L194.24,310.05L191.25,310.35L188.29,310.35L185.38,310.03L182.55,309.41L179.83,308.50L177.25,307.31L174.83,305.85L172.61,304.15L170.59,302.21L168.82,300.07L167.30,297.75L166.04,295.27L165.08,292.66L164.41,289.95L164.05,287.17L163.99,284.35L164.25,281.52L164.82,278.71L165.70,275.95L166.89,273.27L168.36,270.70L170.11,268.27L172.13,266.00L174.40,263.93L176.89,262.07L179.59,260.44L182.47,259.07L185.50,257.97L188.66,257.15L191.91,256.62L195.24,256.40L198.60,256.49L201.97,256.88L205.31,257.59L208.60,258.60L211.81,259.90L214.91,261.50L217.86,263.37L220.65,265.50L223.24,267.87L225.61,270.46L227.75,273.25L229.64,276.22L231.25,279.33L232.58,282.56L233.62,285.89L234.34,289.27L234.77,292.69L234.88,296.11L234.69,299.50L234.19,302.82L233.39,306.06L232.31,309.17L230.95,312.14L229.34,314.93L227.49,317.53L225.42,319.90L223.16,322.03L220.72,323.90L218.14,325.5L215.44,326.81L212.65,327.81L209.81,328.51L206.94,328.90L204.07,328.97L201.24,328.74L198.47,328.19L195.79,327.35L193.24,326.22L190.84,324.82L188.61,323.16L186.59,321.25L184.79,319.13L183.24,316.82L181.94,314.33L180.93,311.69L180.20,308.94L179.78,306.11L179.66,303.21L179.86,300.29L180.36,297.37L181.18,294.49L182.30,291.67L183.72,288.95L185.43,286.35L187.41,283.89L189.64,281.62L192.11,279.55L194.80,277.70L197.68,276.09L200.73,274.75L203.92,273.68L207.22,272.90L210.60,272.41L214.04,272.24L217.50,272.37L220.96,272.81L224.37,273.56L227.72,274.60L230.96,275.94L234.08,277.57L237.05,279.46L239.83,281.60L242.41,283.97L244.77,286.56L246.88,289.33L248.72,292.26L250.29,295.33L251.56,298.50L252.54,301.75L253.21,305.04L253.56,308.36L253.61,311.65L253.36,314.91L252.80,318.08L251.94,321.15L250.81,324.09L249.41,326.87L247.76,329.46L245.88,331.85L243.79,333.99L241.52,335.89L239.09,337.52L236.52,338.87L233.85,339.92L231.11,340.67L228.32,341.10L225.52,341.23L222.73,341.04L220.00,340.54L217.34,339.74L214.78,338.64L212.37,337.27L210.11,335.62L208.05,333.73L206.19,331.60L204.57,329.26L203.20,326.74L202.10,324.06L201.29,321.25L200.76,318.33L200.55,315.34L200.64,312.31L201.04,309.27L201.75,306.24L202.77,303.26L204.09,300.36L205.71,297.56L207.60,294.91L209.76,292.41L212.16,290.11L214.79,288.01L217.63,286.15L220.65,284.54L223.81,283.19L227.11,282.13L230.51,281.37L233.97,280.90L237.47,280.74L240.99,280.89L244.47,281.35L247.91,282.11L251.25,283.17L254.49,284.52L257.59,286.14L260.52,288.02L263.25,290.15L265.77,292.49L268.06,295.04L270.08,297.76L271.84,300.63L273.31,303.62L274.48,306.70L275.35,309.84L275.91,313.02L276.16,316.20L276.10,319.35L275.74,322.44L275.07,325.44L274.12,328.32L272.89,331.05L271.41,333.61L269.68,335.98L267.73,338.12L265.58,340.02L263.26,341.66L260.79,343.02L258.20,344.10L255.51,344.88L252.77,345.34L250,345.5L247.23,345.34L244.49,344.88L241.80,344.10L239.21,343.02L236.74,341.66L234.42,340.02L232.27,338.12L230.32,335.98L228.59,333.61L227.11,331.05L225.88,328.32L224.93,325.44L224.26,322.44L223.90,319.35L223.84,316.20L224.09,313.02L224.65,309.84L225.52,306.70L226.69,303.62L228.16,300.63L229.92,297.76L231.94,295.04L234.23,292.49L236.75,290.15L239.48,288.02L242.41,286.14L245.51,284.52L248.75,283.17L252.09,282.11L255.53,281.35L259.01,280.89L262.52,280.74L266.03,280.90L269.49,281.37L272.89,282.13L276.19,283.19L279.36,284.54L282.37,286.15L285.21,288.01L287.84,290.11L290.24,292.41L292.40,294.91L294.29,297.56L295.90,300.36L297.23,303.26L298.25,306.24L298.96,309.27L299.36,312.31L299.45,315.34L299.24,318.33L298.71,321.25L297.90,324.06L296.80,326.74L295.43,329.26L293.81,331.60L291.95,333.73L289.89,335.62L287.63,337.27L285.22,338.64L282.66,339.74L280.00,340.54L277.27,341.04L274.48,341.23L271.68,341.10L268.89,340.67L266.15,339.92L263.48,338.87L260.91,337.52L258.48,335.89L256.21,333.99L254.12,331.85L252.24,329.46L250.59,326.87L249.19,324.09L248.06,321.15L247.20,318.08L246.64,314.91L246.39,311.65L246.44,308.36L246.79,305.04L247.46,301.75L248.44,298.50L249.71,295.33L251.28,292.26L253.12,289.33L255.23,286.56L257.58,283.97L260.17,281.60L262.95,279.46L265.92,277.57L269.04,275.94L272.28,274.60L275.63,273.56L279.04,272.81L282.50,272.37L285.96,272.24L289.40,272.41L292.78,272.90L296.08,273.68L299.27,274.75L302.32,276.09L305.20,277.70L307.89,279.55L310.36,281.62L312.59,283.89L314.57,286.35L316.28,288.95L317.70,291.67L318.82,294.49L319.64,297.37L320.14,300.29L320.34,303.21L320.22,306.11L319.80,308.94L319.07,311.69L318.06,314.33L316.76,316.82L315.21,319.13L313.41,321.25L311.39,323.16L309.16,324.82L306.76,326.22L304.21,327.35L301.53,328.19L298.76,328.74L295.93,328.97L293.06,328.90L290.19,328.51L287.35,327.81L284.56,326.81L281.86,325.5L279.28,323.90L276.85,322.03L274.58,319.90L272.51,317.53L270.66,314.93L269.05,312.14L267.69,309.17L266.61,306.06L265.81,302.82L265.31,299.50L265.12,296.11L265.23,292.69L265.65,289.27L266.38,285.89L267.42,282.56L268.75,279.33L270.36,276.22L272.25,273.25L274.39,270.46L276.76,267.87L279.36,265.50L282.14,263.37L285.09,261.50L288.19,259.90L291.40,258.60L294.69,257.59L298.03,256.88L301.40,256.49L304.76,256.40L308.09,256.62L311.34,257.15L314.50,257.97L317.53,259.07L320.41,260.44L323.11,262.07L325.60,263.93L327.87,266.00L329.89,268.27L331.64,270.70L333.11,273.27L334.30,275.95L335.18,278.71L335.75,281.52L336.01,284.35L335.95,287.17L335.59,289.95L334.92,292.66L333.96,295.27L332.70,297.75L331.18,300.07L329.41,302.21L327.39,304.15L325.17,305.85L322.75,307.31L320.17,308.50L317.45,309.41L314.62,310.03L311.71,310.35L308.75,310.35L305.76,310.05L302.79,309.43L299.86,308.51L297.00,307.28L294.25,305.76L291.62,303.95L289.15,301.88L286.86,299.55L284.78,297.00L282.93,294.23L281.32,291.27L279.98,288.16L278.92,284.91L278.14,281.55L277.67,278.12L277.50,274.64L277.65,271.15L278.1,267.67L278.86,264.24L279.91,260.89L281.26,257.64L282.89,254.52L284.77,251.57L286.91,248.80L289.27,246.25L291.84,243.92L294.59,241.85L297.49,240.04L300.52,238.51L303.65,237.29L306.85,236.36L310.09,235.74L313.34,235.42L316.56,235.42L319.74,235.73L322.83,236.33L325.81,237.23L328.64,238.41L331.32,239.84L333.80,241.53L336.06,243.44L338.09,245.55L339.86,247.84L341.36,250.29L342.57,252.86L343.48,255.53L344.09,258.27L344.39,261.04L344.38,263.82L344.05,266.58L343.41,269.29L342.48,271.91L341.25,274.41L339.74,276.78L337.97,278.97L335.95,280.97L333.70,282.76L331.25,284.31L328.63,285.60L325.85,286.62L322.94,287.36L319.94,287.79L316.87,287.93L313.76,287.75L310.65,287.26L307.56,286.46L304.53,285.36L301.59,283.96L298.75,282.26L296.07,280.30L293.55,278.07L291.22,275.60L289.11,272.91L287.24,270.02L285.62,266.96L284.27,263.75L283.22,260.42L282.45,257.00L281.99,253.51L281.83,250L281.99,246.49L282.45,243.00L283.22,239.58L284.27,236.25L285.62,233.04L287.24,229.98L289.11,227.09L291.22,224.40L293.55,221.93L296.07,219.70L298.75,217.74L301.59,216.04L304.53,214.64L307.56,213.54L310.65,212.74L313.76,212.25L316.87,212.07L319.94,212.21L322.94,212.64L325.85,213.38L328.63,214.40L331.25,215.69L333.70,217.24L335.95,219.03L337.97,221.03L339.74,223.22L341.25,225.59L342.48,228.09L343.41,230.71L344.05,233.42L344.38,236.18L344.39,238.96L344.09,241.73L343.48,244.47L342.57,247.14L341.36,249.71L339.86,252.16L338.09,254.45L336.06,256.56L333.80,258.47L331.32,260.16L328.64,261.59L325.81,262.77L322.83,263.66L319.74,264.27L316.56,264.58L313.34,264.58L310.09,264.26L306.85,263.64L303.65,262.72L300.52,261.49L297.49,259.96L294.59,258.15L291.84,256.08L289.27,253.75L286.91,251.20L284.77,248.43L282.89,245.48L281.26,242.36L279.91,239.11L278.86,235.76L278.1,232.33L277.65,228.85L277.50,225.36L277.67,221.88L278.14,218.45L278.92,215.09L279.98,211.84L281.32,208.73L282.93,205.77L284.78,203.00L286.86,200.45L289.15,198.12L291.62,196.05L294.25,194.24L297.00,192.72L299.86,191.49L302.79,190.57L305.76,189.95L308.75,189.65L311.71,189.65L314.62,189.97L317.45,190.59L320.17,191.50L322.75,192.69L325.17,194.15L327.39,195.85L329.41,197.79L331.18,199.93L332.70,202.25L333.96,204.73L334.92,207.34L335.59,210.05L335.95,212.83L336.01,215.65L335.75,218.48L335.18,221.29L334.30,224.05L333.11,226.73L331.64,229.30L329.89,231.73L327.87,234.00L325.60,236.07L323.11,237.93L320.41,239.56L317.53,240.93L314.50,242.03L311.34,242.85L308.09,243.38L304.76,243.60L301.40,243.51L298.03,243.12L294.69,242.41L291.40,241.40L288.19,240.10L285.09,238.50L282.14,236.63L279.36,234.50L276.76,232.13L274.39,229.54L272.25,226.75L270.36,223.78L268.75,220.67L267.42,217.44L266.38,214.11L265.65,210.73L265.23,207.31L265.12,203.89L265.31,200.50L265.81,197.18L266.61,193.94L267.69,190.83L269.05,187.86L270.66,185.07L272.51,182.47L274.58,180.10L276.85,177.97L279.28,176.10L281.86,174.5L284.56,173.19L287.35,172.19L290.19,171.49L293.06,171.10L295.93,171.03L298.76,171.26L301.53,171.81L304.21,172.65L306.76,173.78L309.16,175.18L311.39,176.84L313.41,178.75L315.21,180.87L316.76,183.18L318.06,185.67L319.07,188.31L319.80,191.06L320.22,193.89L320.34,196.79L320.14,199.71L319.64,202.63L318.82,205.51L317.70,208.33L316.28,211.05L314.57,213.65L312.59,216.11L310.36,218.38L307.89,220.45L305.20,222.30L302.32,223.91L299.27,225.25L296.08,226.32L292.78,227.10L289.40,227.59L285.96,227.76L282.50,227.63L279.04,227.19L275.63,226.44L272.28,225.40L269.04,224.06L265.92,222.43L262.95,220.54L260.17,218.40L257.58,216.03L255.23,213.44L253.12,210.67L251.28,207.74L249.71,204.67L248.44,201.50L247.46,198.25L246.79,194.96L246.44,191.64L246.39,188.35L246.64,185.09L247.20,181.92L248.06,178.85L249.19,175.91L250.59,173.13L252.24,170.54L254.12,168.15L256.21,166.01L258.48,164.11L260.91,162.48L263.48,161.13L266.15,160.08L268.89,159.33L271.68,158.90L274.48,158.77L277.27,158.96L280.00,159.46L282.66,160.26L285.22,161.36L287.63,162.73L289.89,164.38L291.95,166.27L293.81,168.40L295.43,170.74L296.80,173.26L297.90,175.94L298.71,178.75L299.24,181.67L299.45,184.66L299.36,187.69L298.96,190.73L298.25,193.76L297.23,196.74L295.90,199.64L294.29,202.44L292.40,205.09L290.24,207.59L287.84,209.89L285.21,211.99L282.37,213.85L279.36,215.46L276.19,216.81L272.89,217.87L269.49,218.63L266.03,219.10L262.52,219.26L259.01,219.11L255.53,218.65L252.09,217.89L248.75,216.83L245.51,215.48L242.41,213.86L239.48,211.98L236.75,209.85L234.23,207.51L231.94,204.96L229.92,202.24L228.16,199.37L226.69,196.38L225.52,193.30L224.65,190.16L224.09,186.98L223.84,183.80L223.90,180.65L224.26,177.56L224.93,174.56L225.88,171.68L227.11,168.95L228.59,166.39L230.32,164.02L232.27,161.88L234.42,159.98L236.74,158.34L239.21,156.98L241.80,155.90L244.49,155.13L247.23,154.66L250,154.5L252.77,154.66L255.51,155.13L257.99,155.84L255.51,155.13L277.27,158.96L280.00,159.46L282.66,160.26L285.22,161.36L287.63,162.73L306.76,173.78L309.16,175.18L311.39,176.84L313.41,178.75L315.21,180.87L329.41,197.79L331.18,199.93L332.70,202.25L333.96,204.73L334.92,207.34L342.48,228.09L343.41,230.71L344.05,233.42L344.38,236.18L344.39,238.96L344.39,261.04L344.38,263.82L344.05,266.58L343.41,269.29L342.48,271.91L334.92,292.66L333.96,295.27L332.70,297.75L331.18,300.07L329.41,302.21L315.21,319.13L313.41,321.25L311.39,323.16L309.16,324.82L306.76,326.22L287.63,337.27L285.22,338.64L282.66,339.74L280.00,340.54L277.27,341.04L255.51,344.88L252.77,345.34L250,345.5L247.23,345.34L244.49,344.88L222.73,341.04L220.00,340.54L217.34,339.74L214.78,338.64L212.37,337.27L193.24,326.22L190.84,324.82L188.61,323.16L186.59,321.25L184.79,319.13L170.59,302.21L168.82,300.07L167.30,297.75L166.04,295.27L165.08,292.66L157.52,271.91L156.59,269.29L155.95,266.58L155.62,263.82L155.61,261.04L155.61,238.96L155.62,236.18L155.95,233.42L156.59,230.71L157.52,228.09L165.08,207.34L166.04,204.73L167.30,202.25L168.82,199.93L170.59,197.79L184.79,180.87L186.59,178.75L188.61,176.84L190.84,175.18L193.24,173.78L212.37,162.73L214.78,161.36L217.34,160.26L220.00,159.46L222.73,158.96L244.49,155.13L247.23,154.66L250,154.5L252.77,154.66L255.51,155.13L252.77,154.66L250,154.5L247.23,154.66L244.49,155.13L222.73,158.96L220.00,159.46L217.34,160.26L214.78,161.36L212.37,162.73L193.24,173.78L190.84,175.18L188.61,176.84L186.59,178.75L184.79,180.87L170.59,197.79L168.82,199.93L167.30,202.25L166.04,204.73L165.08,207.34L157.52,228.09L156.59,230.71L155.95,233.42L155.62,236.18L155.61,238.96L155.61,261.04L155.62,263.82L155.95,266.58L156.59,269.29L157.52,271.91L165.08,292.66L166.04,295.27L167.30,297.75L168.82,300.07L170.59,302.21L184.79,319.13L186.59,321.25L188.61,323.16L190.84,324.82L193.24,326.22L212.37,337.27L214.78,338.64L217.34,339.74L220.00,340.54L222.73,341.04L244.49,344.88L247.23,345.34L250,345.5L252.77,345.34L255.51,344.88L277.27,341.04L280.00,340.54L282.66,339.74L285.22,338.64L287.63,337.27L306.76,326.22L309.16,324.82L311.39,323.16L313.41,321.25L315.21,319.13L329.41,302.21L331.18,300.07L332.70,297.75L333.96,295.27L334.92,292.66L342.48,271.91L343.41,269.29L344.05,266.58L344.38,263.82L344.39,261.04L344.39,238.96L344.38,236.18L344.05,233.42L343.41,230.71L342.48,228.09L334.92,207.34L333.96,204.73L332.70,202.25L331.18,199.93L329.41,197.79L315.21,180.87L313.41,178.75L311.39,176.84L309.16,175.18L306.76,173.78L287.63,162.73L285.22,161.36L282.66,160.26L280.00,159.46L277.27,158.96L255.51,155.13L257.99,155.84L255.51,155.13L252.77,154.66L250,154.5L247.23,154.66L244.49,155.13L241.80,155.90L239.21,156.98L236.74,158.34L234.42,159.98L232.27,161.88L230.32,164.02L228.59,166.39L227.11,168.95L225.88,171.68L224.93,174.56L224.26,177.56L223.90,180.65L223.84,183.80L224.09,186.98L224.65,190.16L225.52,193.30L226.69,196.38L228.16,199.37L229.92,202.24L231.94,204.96L234.23,207.51L236.75,209.85L239.48,211.98L242.41,213.86L245.51,215.48L248.75,216.83L249.59,217.10L249.59,217.10L249.98,229L249.98,229L248.97,229.02L247.94,229.10L246.92,229.23L245.90,229.40L244.90,229.63L243.90,229.90L242.93,230.23L241.96,230.60L241.02,231.02L240.10,231.48L239.20,231.99L238.33,232.54L237.49,233.13L236.68,233.77L235.90,234.44L235.15,235.15L234.44,235.90L233.77,236.68L233.13,237.49L232.54,238.33L231.99,239.20L231.48,240.10L231.02,241.02L230.60,241.96L230.23,242.93L229.90,243.90L229.63,244.90L229.40,245.90L229.23,246.92L229.10,247.94L229.03,248.97L229,250L229.03,251.03L229.10,252.06L229.23,253.08L229.40,254.10L229.63,255.10L229.90,256.10L230.23,257.07L230.60,258.04L231.02,258.98L231.48,259.90L231.99,260.80L232.54,261.67L233.13,262.51L233.77,263.32L234.44,264.10L235.15,264.85L235.90,265.56L236.68,266.23L237.49,266.87L238.33,267.46L239.20,268.01L240.10,268.52L241.02,268.98L241.96,269.40L242.93,269.77L243.90,270.10L244.90,270.37L245.90,270.60L246.92,270.77L247.94,270.90L248.97,270.98L250,271L251.03,270.98L252.06,270.90L253.08,270.77L254.10,270.60L255.10,270.37L256.10,270.10L257.07,269.77L258.04,269.40L258.98,268.98L259.90,268.52L260.80,268.01L261.67,267.46L262.51,266.87L263.32,266.23L264.10,265.56L264.85,264.85L265.56,264.10L266.23,263.32L266.87,262.51L267.46,261.67L268.01,260.80L268.52,259.90L268.98,258.98L269.40,258.04L269.77,257.07L270.10,256.10L270.37,255.10L270.60,254.10L270.77,253.08L270.90,252.06L270.98,251.03L271,250L270.98,248.97L270.90,247.94L270.77,246.92L270.60,245.90L270.37,244.90L270.10,243.90L269.77,242.93L269.40,241.96L268.98,241.02L268.52,240.10L268.01,239.20L267.46,238.33L266.87,237.49L266.23,236.68L265.56,235.90L264.85,235.15L264.10,234.44L263.32,233.77L262.51,233.13L261.67,232.54L260.80,231.99L259.90,231.48L258.98,231.02L258.04,230.60L257.07,230.23L256.10,229.90L255.10,229.63L254.10,229.40L253.08,229.23L252.06,229.10L251.03,229.02L250,229L249.92,229.00L249.92,229.00L250.84,232.96L250.84,232.96L250,232.90L249.16,232.88L248.32,232.91L247.47,232.97L246.63,233.08L245.80,233.23L244.97,233.42L244.15,233.65L243.34,233.92L242.54,234.24L241.76,234.59L241.00,234.98L240.25,235.41L239.52,235.87L238.82,236.38L238.14,236.91L237.48,237.48L236.86,238.09L236.26,238.72L235.69,239.39L235.16,240.08L234.66,240.80L234.19,241.55L233.76,242.32L233.37,243.11L233.02,243.92L232.70,244.75L232.43,245.60L232.20,246.46L232.01,247.33L231.86,248.21L231.76,249.10L231.7,250L231.69,250.9L231.71,251.80L231.79,252.70L231.91,253.60L232.07,254.49L232.27,255.38L232.52,256.25L232.82,257.12L233.15,257.97L233.53,258.80L233.95,259.62L234.41,260.42L234.91,261.19L235.45,261.94L236.02,262.67L236.64,263.36L237.28,264.03L237.96,264.67L238.67,265.27L239.42,265.84L240.19,266.37L240.99,266.87L241.81,267.32L242.65,267.74L243.52,268.11L244.41,268.44L245.31,268.73L246.22,268.98L247.16,269.18L248.10,269.33L249.04,269.44L250,269.5L250.96,269.51L251.92,269.48L252.88,269.4L253.83,269.27L254.78,269.10L255.73,268.88L256.66,268.61L257.58,268.29L258.48,267.93L259.37,267.53L260.24,267.08L261.08,266.59L261.91,266.05L262.70,265.48L263.47,264.87L264.21,264.21L264.92,263.52L265.60,262.80L266.24,262.04L266.84,261.25L267.40,260.43L267.93,259.58L268.41,258.71L268.85,257.81L269.24,256.88L269.59,255.94L269.90,254.98L270.15,254.01L270.37,253.02L270.53,252.02L270.64,251.01L270.53,252.02L270.37,253.02L270.15,254.01L269.90,254.98L269.59,255.94L269.24,256.88L268.85,257.81L268.41,258.71L267.93,259.58L267.40,260.43L266.84,261.25L266.24,262.04L265.60,262.80L264.92,263.52L264.21,264.21L263.47,264.87L262.70,265.48L261.91,266.05L261.08,266.59L260.24,267.08L259.37,267.53L258.48,267.93L257.58,268.29L256.66,268.61L255.73,268.88L254.78,269.10L253.83,269.27L252.88,269.4L251.92,269.48L250.96,269.51L250,269.5L249.04,269.44L248.10,269.33L247.16,269.18L246.22,268.98L245.31,268.73L244.41,268.44L243.52,268.11L242.65,267.74L241.81,267.32L240.99,266.87L240.19,266.37L239.42,265.84L238.67,265.27L237.96,264.67L237.28,264.03L236.64,263.36L236.02,262.67L235.45,261.94L234.91,261.19L234.41,260.42L233.95,259.62L233.53,258.80L233.15,257.97L232.82,257.12L232.52,256.25L232.27,255.38L232.07,254.49L231.91,253.60L231.79,252.70L231.71,251.80L231.69,250.9L231.7,250L231.76,249.10L231.86,248.21L232.01,247.33L232.20,246.46L232.43,245.60L232.70,244.75L233.02,243.92L233.37,243.11L233.76,242.32L234.19,241.55L234.66,240.80L235.16,240.08L235.69,239.39L236.26,238.72L236.86,238.09L237.48,237.48L238.14,236.91L238.82,236.38L239.52,235.87L240.25,235.41L241.00,234.98L241.76,234.59L242.54,234.24L243.34,233.92L244.15,233.65L244.97,233.42L245.80,233.23L246.63,233.08L247.47,232.97L248.32,232.91L249.16,232.88L250,232.90L250.84,232.96L251.67,233.06L252.49,233.20L253.31,233.38L254.11,233.59L254.90,233.85L255.67,234.15L256.43,234.48L257.17,234.85L257.88,235.25L258.58,235.69L259.25,236.16L259.90,236.66L260.51,237.19L261.11,237.75L261.67,238.33L262.20,238.94L262.70,239.58L263.16,240.24L263.60,240.92L263.99,241.61L264.35,242.33L264.68,243.06L264.97,243.80L265.22,244.56L265.43,245.32L265.61,246.09L265.74,246.87L265.84,247.65L265.90,248.43L265.92,249.22L265.9,250L265.84,250.78L265.75,251.55L265.62,252.32L265.45,253.07L265.24,253.82L265,254.55L264.72,255.27L264.41,255.97L264.07,256.65L263.69,257.32L263.28,257.96L262.85,258.58L262.38,259.18L261.88,259.75L261.36,260.3L260.82,260.82L260.25,261.31L259.66,261.77L259.05,262.20L258.42,262.60L257.77,262.96L257.11,263.29L256.43,263.59L255.74,263.86L255.04,264.09L254.33,264.28L253.62,264.44L252.90,264.56L252.17,264.65L251.45,264.70L250.72,264.72L250,264.7L249.28,264.64L248.57,264.56L247.86,264.43L247.16,264.27L246.47,264.08L245.80,263.85L245.14,263.59L244.49,263.30L243.86,262.98L243.25,262.63L242.66,262.25L242.08,261.85L241.53,261.42L241.01,260.96L240.51,260.48L240.03,259.97L239.58,259.44L239.16,258.90L238.76,258.33L238.40,257.75L238.07,257.15L237.76,256.54L237.49,255.92L237.25,255.28L237.04,254.64L236.87,253.98L236.72,253.33L236.61,252.66L236.53,252.00L236.49,251.33L236.48,250.66L236.5,250L236.55,249.34L236.64,248.68L236.76,248.04L236.91,247.40L237.09,246.76L237.30,246.15L237.54,245.54L237.81,244.95L238.10,244.37L238.43,243.81L238.77,243.27L239.15,242.75L239.55,242.25L239.97,241.77L240.41,241.31L240.88,240.88L241.36,240.47L241.86,240.09L242.38,239.73L242.92,239.40L243.46,239.10L244.03,238.82L244.60,238.58L245.18,238.36L245.77,238.17L246.36,238.01L246.97,237.89L247.57,237.79L248.18,237.72L248.79,237.69L249.40,237.68L250,237.7L250.60,237.75L251.20,237.83L251.79,237.94L252.37,238.08L252.94,238.25L253.50,238.44L254.06,238.67L254.59,238.91L255.12,239.19L255.62,239.48L256.11,239.80L256.58,240.15L257.04,240.51L257.47,240.90L257.88,241.30L258.27,241.73L258.64,242.17L258.99,242.63L259.31,243.10L259.60,243.58L259.88,244.08L260.12,244.59L260.34,245.11L260.53,245.64L260.70,246.17L260.84,246.71L260.95,247.26L261.03,247.81L261.09,248.35L261.12,248.91L261.12,249.45L261.1,250L261.05,250.54L260.97,251.08L260.87,251.61L260.74,252.14L260.58,252.65L260.41,253.16L260.20,253.65L259.98,254.13L259.73,254.60L259.46,255.06L259.17,255.49L258.86,255.92L258.52,256.32L258.18,256.71L257.81,257.08L257.43,257.43L257.03,257.75L256.61,258.06L256.19,258.34L255.75,258.61L255.30,258.85L254.84,259.06L254.38,259.25L253.90,259.42L253.42,259.57L252.94,259.69L252.45,259.78L251.96,259.86L251.47,259.90L250.98,259.93L250.49,259.93L250,259.9L249.52,259.85L249.04,259.78L248.56,259.68L248.10,259.56L247.64,259.42L247.19,259.26L246.75,259.07L246.33,258.87L245.91,258.64L245.51,258.4L245.12,258.14L244.75,257.86L244.39,257.56L244.05,257.25L243.73,256.92L243.42,256.58L243.14,256.22L242.87,255.85L242.62,255.47L242.39,255.08L242.18,254.69L242.00,254.28L241.83,253.86L241.69,253.44L241.56,253.02L241.46,252.59L241.38,252.16L241.32,251.73L241.28,251.29L241.27,250.86L241.27,250.43L241.3,250L241.35,249.57L241.42,249.16L241.50,248.74L241.61,248.33L241.74,247.93L241.89,247.54L242.06,247.16L242.24,246.78L242.44,246.43L242.66,246.08L242.89,245.74L243.14,245.42L243.40,245.11L243.68,244.81L243.97,244.53L244.27,244.27L244.59,244.03L244.91,243.80L245.24,243.58L245.58,243.39L245.93,243.21L246.29,243.06L246.65,242.92L247.01,242.79L247.38,242.69L247.76,242.61L248.13,242.54L248.51,242.50L248.88,242.47L249.26,242.46L249.63,242.47L250,242.5L250.37,242.55L250.73,242.61L251.08,242.69L251.43,242.79L251.78,242.91L252.11,243.04L252.44,243.19L252.75,243.35L253.06,243.52L253.36,243.72L253.64,243.92L253.92,244.14L254.18,244.37L254.43,244.61L254.66,244.86L254.88,245.12L255.09,245.39L255.28,245.67L255.45,245.96L255.61,246.25L255.76,246.55L255.89,246.85L256,247.16L256.10,247.47L256.18,247.79L256.24,248.11L256.29,248.42L256.33,248.74L256.34,249.06L256.34,249.38L256.33,249.69L256.3,250L256.25,250.31L256.19,250.61L256.12,250.91L256.03,251.2L255.93,251.49L255.81,251.76L255.69,252.03L255.54,252.30L255.39,252.55L255.22,252.79L255.05,253.03L254.86,253.25L254.67,253.46L254.46,253.66L254.25,253.85L254.03,254.03L253.80,254.20L253.57,254.35L253.33,254.49L253.08,254.62L252.83,254.73L252.58,254.83L252.32,254.91L252.07,254.99L251.81,255.05L251.55,255.10L251.28,255.13L251.02,255.15L250.76,255.16L250.51,255.15L250.25,255.13L250,255.1L249.75,255.06L249.51,255.00L249.27,254.93L249.03,254.85L248.81,254.76L248.59,254.66L248.37,254.56L248.16,254.44L247.96,254.31L247.77,254.17L247.59,254.02L247.42,253.87L247.25,253.71L247.10,253.54L246.95,253.36L246.82,253.18L246.69,253.00L246.58,252.81L246.48,252.61L246.38,252.42L246.30,252.22L246.23,252.01L246.17,251.81L246.12,251.61L246.08,251.40L246.05,251.20L246.03,250.99L246.03,250.79L246.03,250.59L246.04,250.39L246.07,250.19L246.1,250L246.14,249.81L246.19,249.63L246.25,249.44L246.32,249.27L246.40,249.10L246.48,248.93L246.57,248.78L246.67,248.62L246.78,248.48L246.89,248.34L247.01,248.21L247.13,248.08L247.26,247.97L247.39,247.86L247.53,247.76L247.67,247.67L247.81,247.58L247.95,247.51L248.10,247.44L248.25,247.38L248.4,247.33L248.55,247.29L248.70,247.25L248.85,247.23L249.00,247.21L249.15,247.20L249.30,247.20L249.44,247.21L249.59,247.22L249.73,247.24L249.87,247.27L250,247.3L250.13,247.34L250.26,247.39L250.38,247.44L250.50,247.50L250.61,247.56L250.72,247.63L250.82,247.71L250.92,247.78L251.01,247.86L251.10,247.95L251.18,248.04L251.25,248.13L251.32,248.22L251.38,248.32L251.44,248.42L251.49,248.51L251.53,248.62L251.56,248.72L251.60,248.82L251.62,248.92L251.64,249.02L251.65,249.12L251.66,249.21L251.66,249.31L251.66,249.41L251.65,249.50L251.64,249.59L251.62,249.68L251.59,249.76L251.57,249.85L251.54,249.93L251.44,250.12L250,250"/>

  </g>
</svg>
