<?xml version="1.0" standalone="no"?>
<!DOCTYPE svg PUBLIC "-//W3C//DTD SVG 1.1//EN" "http://www.w3.org/Graphics/SVG/1.1/DTD/svg11.dtd">
<svg width="500" height="500" title="polygons" version="1.1" viewBox="0 0 500 500" xmlns="http://www.w3.org/2000/svg" class="svg-paper">
  <g>
    <!--  Created by Sandify -->
    <!--  https://sandify.org -->
    <!--  Version: 0.2.4 -->

    <!--  Machine type: Polar -->
    <!--    Max radius (mm): 250 -->
    <!--    Start point: perimeter -->
    <!--    End point: perimeter -->
    <!--  Content type: machine -->
    <!--  Reverse export path: false -->

    <!-- File name: 'atwood-quote' -->


    <desc>pwidth:500;pheight:500;</desc>
    <path
       stroke="#000000"
       stroke-width="0.4mm"
       fill="none"
       d="M63.98,417.02L63.98,417.02L64,417L64,416L106,359L106,359L106,358L106.72,358.18L106.72,358.18L109.07,359.51L111.48,360.72L113.95,361.81L116.47,362.78L119.03,363.63L121.64,364.35L124.27,364.94L126.93,365.40L129.61,365.74L132.30,365.93L135,366L137.70,365.93L140.39,365.74L143.07,365.40L145.73,364.94L148.36,364.35L150.97,363.63L153.53,362.78L156.05,361.81L158.52,360.72L160.93,359.51L163.28,358.18L165.56,356.73L167.76,355.18L169.89,353.52L171.94,351.75L173.89,349.89L175.75,347.94L177.52,345.89L179.18,343.76L180.73,341.56L182.18,339.28L183.51,336.93L184.72,334.52L185.81,332.05L186.78,329.53L187.63,326.97L188.35,324.36L188.94,321.73L189.41,319.07L189.74,316.39L189.93,313.70L190,311L190.39,307.54L190.39,307.54L190.41,307.54L208.00,304.92L224.87,301.63L240.83,297.76L255.72,293.37L269.41,288.54L278.84,284.61L272.72,261.98L266.92,243.80L264.24,244.50L250.51,248.93L235.76,254.54L220.14,261.31L203.82,269.23L186.97,278.23L181.83,281.22L181.18,280.22L204.53,265.50L238.94,245.46L262.95,232.63L270.53,254.81L277.00,277.34L282.05,298.63L281.01,298.83L245.81,304.08L209.50,307.90L190.47,309.09L190.49,309.85L191.16,309.83L246.75,306.35L282.86,302.55L277.62,279.70L271.25,257.15L263.79,234.93L261.83,229.63L239.30,242.75L187.15,275.62L180.93,279.84L179.89,278.36L186.62,273.46L237.20,234.15L257.12,217.63L247.74,196.15L237.32,175.17L229.20,160.41L215.96,180.24L175.20,244.46L163.7,263.50L163.77,263.54L188.97,223.83L216.24,182.98L230.50,162.70L241.54,183.37L251.56,204.56L255.98,214.85L235.82,232.67L203.13,259.77L179.64,278.03L178.99,277.16L185.41,271.83L201.07,257.99L215.91,244.01L229.78,230.07L242.56,216.34L251.97,205.48L241.99,184.27L234.91,170.66L227.72,178.67L215.35,193.43L202.45,209.83L189.16,227.73L175.62,246.99L164.34,263.89L162.67,262.89L174.22,242.81L212.08,173.66L223.78,151.20L211.17,131.44L197.62,112.32L190.33,102.82L180.30,137.64L157.13,223.43L148.60,257.19L149.75,252.62L165.2,195.43L181.18,139.98L191.95,104.89L205.88,123.74L218.87,143.25L222.43,148.99L210.47,173.18L186.39,219.44L162.62,262.86L162.08,262.56L172.74,242.09L184.09,219.13L194.64,196.58L204.31,174.70L213.01,153.73L217.75,141.48L204.68,122.03L197.42,112.06L190.80,128.55L182.71,150.22L174.49,173.74L166.25,198.92L158.09,225.49L150.1,253.21L149.00,257.29L147.74,256.98L148.90,252.03L161.82,193.05L173.64,134.68L181.56,91.99L166.10,74.38L149.80,57.54L143.01,50.99L142.17,63.32L139.08,123.02L136.83,184.62L135.46,247.49L135.40,255.50L135.69,215.74L137.74,121.43L140.41,48.55L157.16,64.94L173.09,82.13L183.32,94.12L175.23,134.08L155.86,222.54L147.74,256.98L147.34,256.89L148.41,252.03L154.32,222.84L159.62,194.26L164.29,166.57L168.29,140.08L171.59,115.05L174.20,91.76L174.89,84.17L159.06,66.89L151.73,59.44L151.27,62.07L148.24,83.00L145.40,106.21L142.81,131.48L140.52,158.56L138.59,187.16L137.04,217.01L135.91,247.81L135.75,255.50L134.60,255.50L134.54,247.49L133.17,184.62L130.92,123.02L127.83,63.32L125.95,35.63L124.03,34.06L124.03,34.06L113.59,40.50L103.47,47.44L93.71,54.88L84.32,62.78L83.41,63.60L85.75,77.52L96.36,134.68L108.18,193.05L121.10,252.03L122.27,256.98L114.15,222.54L94.77,134.08L80.95,65.82L80.95,65.82L90.19,57.75L99.82,50.14L109.81,43.01L120.13,36.38L124.08,34.03L129.22,38.46L132.26,121.43L134.31,215.74L134.60,255.50L134.25,255.50L134.09,247.81L132.96,217.01L131.41,187.16L129.48,158.56L127.19,131.48L124.60,106.21L121.76,83.00L118.73,62.07L115.56,43.63L114.76,39.74L114.76,39.74L104.61,46.63L94.80,54.00L92.91,55.52L93.88,70.46L95.79,91.76L98.41,115.05L101.71,140.08L105.71,166.57L110.38,194.26L115.68,222.84L121.59,252.03L122.66,256.89L121.40,257.19L120.25,252.62L104.80,195.43L88.82,139.98L72.50,86.83L69.34,77.19L69.34,77.19L61.08,86.26L53.27,95.73L45.94,105.57L39.10,115.76L34.76,122.84L36.83,127.26L59.53,173.18L83.61,219.44L107.38,262.86L107.33,262.89L95.78,242.81L57.92,173.66L33.02,125.83L33.02,125.83L39.37,115.33L46.23,105.16L53.58,95.34L61.41,85.89L69.69,76.83L71.61,74.85L89.70,137.64L112.87,223.43L121.40,257.19L121.00,257.29L119.9,253.21L111.91,225.49L103.75,198.92L95.51,173.74L87.29,150.22L79.20,128.55L71.33,108.95L63.81,91.58L61.22,86.11L61.22,86.11L53.40,95.57L46.06,105.40L41.60,111.91L42.74,115.46L49.32,133.90L56.99,153.73L65.69,174.70L75.36,196.58L85.91,219.13L97.26,242.09L107.92,262.56L106.30,263.50L94.80,244.46L54.04,180.24L26.21,138.56L26.21,138.56L21.01,149.67L16.37,161.03L12.28,172.60L8.77,184.36L5.84,196.27L3.50,208.32L3.27,209.67L32.80,234.15L83.38,273.46L90.11,278.36L90.36,278.03L66.87,259.77L34.18,232.67L3.92,205.92L3.92,205.92L6.38,193.90L9.42,182.01L13.05,170.29L17.25,158.76L22.00,147.45L24.66,141.74L26.68,144.47L53.76,182.98L81.03,223.83L106.23,263.54L105.66,263.89L94.38,246.99L80.84,227.73L67.55,209.83L54.65,193.43L42.28,178.67L30.60,165.66L19.73,154.50L19.17,153.98L19.17,153.98L14.74,165.43L10.87,177.07L7.58,188.89L6.88,191.76L15.89,203.00L27.44,216.34L40.22,230.07L54.09,244.01L68.93,257.99L84.59,271.83L91.01,277.16L89.40,279.36L88.82,280.22L65.47,265.50L31.06,245.46L0.86,229.33L0.86,229.33L0.14,241.58L0.03,253.85L0.52,266.11L1.61,278.33L3.30,290.48L5.31,301.26L24.19,304.08L60.50,307.90L79.53,309.09L79.61,307.54L79.59,307.54L62.00,304.92L45.13,301.63L29.17,297.76L14.28,293.37L3.13,289.44L3.13,289.44L1.49,277.28L0.45,265.05L0.02,252.79L0.10,243.03L5.76,244.50L19.49,248.93L34.24,254.54L49.86,261.31L66.18,269.23L83.03,278.23L88.16,281.22L86.76,283.56L85.47,285.96L84.30,288.42L83.25,290.93L82.33,293.49L81.54,296.1L80.87,298.74L80.34,301.41L79.93,304.11L79.66,306.82L79.52,309.54L79.51,312.15L78.84,312.17L23.25,315.65L9.18,317.13L9.18,317.13L12.77,328.87L16.92,340.42L21.64,351.74L26.91,362.83L32.71,373.64L34.55,376.82L82.85,346.38L89.07,342.16L88.82,341.78L65.47,356.50L33.55,375.09L33.55,375.09L27.67,364.32L22.33,353.27L17.53,341.98L13.30,330.46L10.01,320.04L24.19,317.92L60.50,314.10L79.53,312.91L79.61,314.46L79.59,314.46L62.00,317.08L45.13,320.37L29.17,324.24L14.28,328.63L12.86,329.14L12.86,329.14L17.02,340.68L21.75,352.00L27.03,363.08L30.15,369.02L34.24,367.46L49.86,360.69L66.18,352.77L83.03,343.77L88.16,340.78L89.68,343.04L90.11,343.64L83.38,348.54L38.55,383.38L38.55,383.38L45.35,393.59L52.64,403.46L60.41,412.96L67.38,420.74L94.80,377.54L106.30,358.50L106.23,358.46L81.03,398.17L66.56,419.85L66.56,419.85L58.44,410.64L50.79,401.05L43.62,391.09L39.52,384.90L66.87,362.23L90.36,343.97L91.01,344.84L84.59,350.17L68.93,364.01L54.09,377.99L42.58,389.56L42.58,389.56L49.68,399.57L57.26,409.22L63.85,416.88L67.55,412.17L80.84,394.27L94.38,375.01L105.66,358.11L107.33,359.11L95.78,379.19L70.97,424.50L70.97,424.50L79.75,433.07L88.94,441.20L98.51,448.88L99.15,449.36L112.87,398.57L121.40,364.81L120.25,369.38L104.80,426.57L98.40,448.79L98.40,448.79L88.83,441.11L79.64,432.97L71.77,425.31L83.61,402.56L107.38,359.14L107.92,359.44L97.26,379.91L85.91,402.87L75.36,425.42L74.29,427.84L74.29,427.84L83.23,436.24L92.57,444.20L95.95,446.90L103.75,423.09L111.91,396.51L119.9,368.79L121.00,364.71L122.27,365.02L121.10,369.97L108.18,428.95L103.41,452.51L103.41,452.51L113.52,459.46L123.96,465.91L131.96,470.38L133.17,437.38L134.54,374.51L134.60,366.50L134.31,406.26L132.90,470.88L132.90,470.88L122.21,464.87L111.82,458.34L102.65,451.96L114.15,399.46L122.27,365.02L122.66,365.11L121.59,369.97L115.68,399.16L110.38,427.74L105.90,454.29L105.90,454.29L116.10,461.12L126.62,467.43L129.03,468.78L129.48,463.44L131.41,434.84L132.96,404.99L134.09,374.19L134.25,366.50L135.40,366.50L135.46,374.51L136.83,437.38L138.15,473.59L138.15,473.58L149.26,478.80L160.61,483.47L172.17,487.58L173.78,488.10L173.64,487.32L161.82,428.95L148.90,369.97L147.74,365.02L155.86,399.46L175.23,487.92L175.37,488.6L175.37,488.60L163.75,484.65L152.34,480.14L141.17,475.07L137.14,473.08L135.69,406.26L135.40,366.50L135.75,366.50L135.91,374.19L137.04,404.99L138.59,434.84L140.52,463.44L141.52,475.24L141.52,475.24L152.70,480.29L164.12,484.78L168.89,486.48L168.29,481.92L164.29,455.43L159.62,427.74L154.32,399.16L148.41,369.97L147.34,365.11L148.60,364.81L149.75,369.38L165.2,426.57L181.18,482.02L183.97,491.12L183.97,491.12L195.88,494.07L207.93,496.43L220.07,498.20L232.28,499.37L235.44,499.57L233.17,494.74L210.47,448.82L186.39,402.56L162.62,359.14L162.67,359.11L174.22,379.19L212.08,448.34L238.85,499.75L238.85,499.75L226.61,498.90L214.42,497.46L202.32,495.41L190.34,492.78L182.1,490.60L180.30,484.36L157.13,398.57L148.60,364.81L149.00,364.71L150.1,368.79L158.09,396.51L166.25,423.09L174.49,448.26L182.71,471.78L190.57,492.83L190.57,492.83L202.56,495.46L214.66,497.49L224.46,498.69L220.68,488.10L213.01,468.27L204.31,447.30L194.64,425.42L184.09,402.87L172.74,379.91L162.08,359.44L163.7,358.50L175.20,377.54L215.96,441.76L254.81,499.95L254.81,499.95L267.07,499.42L279.28,498.28L281.79,497.97L284.98,482.39L288.56,459.23L290.99,435.91L291.22,432.91L286.23,428.50L237.20,387.85L186.62,348.54L179.89,343.64L179.64,343.97L203.13,362.23L235.82,389.33L267.15,417.02L290.72,439.23L288.12,462.52L284.39,485.65L281.77,497.97L281.77,497.97L269.57,499.23L259.85,499.81L243.32,477.53L216.24,439.02L188.97,398.17L163.77,358.46L164.34,358.11L175.62,375.01L189.16,394.27L202.45,412.17L215.35,428.57L227.72,443.34L239.40,456.34L250.27,467.50L260.20,476.74L269.06,484.02L276.74,489.31L283.04,492.58L287.12,469.50L287.46,467.17L286.36,464.89L280.53,454.88L273.18,443.78L264.35,431.77L254.11,419.00L242.56,405.66L229.78,391.93L215.91,377.99L201.07,364.01L185.41,350.17L178.99,344.84L180.60,342.64L180.93,342.16L187.15,346.38L239.30,379.25L290.91,409.31L292.35,410.08L292.37,386.64L291.23,363.23L288.95,339.90L286.05,319.79L246.75,315.65L191.16,312.17L190.49,312.15L190.47,312.91L209.50,314.10L245.81,317.92L281.01,323.17L286.78,324.29L289.82,347.53L291.73,370.89L292.49,394.31L292.46,404.15L272.64,394.54L238.94,376.54L204.53,356.50L181.18,341.78L181.83,340.78L186.97,343.77L203.82,352.77L220.14,360.69L235.76,367.46L250.51,373.07L264.24,377.50L276.80,380.76L288.06,382.85L292.27,383.27L290.98,359.87L289.24,342.31L281.75,338.61L269.41,333.46L255.72,328.63L240.83,324.24L224.87,320.37L208.00,317.08L190.41,314.46L190.39,314.46L190.50,311.74L190.46,309.01L190.3,306.30L190.00,303.59L189.57,300.90L189.01,298.23L188.32,295.60L187.5,293.00L186.55,290.44L185.48,287.94L184.29,285.49L182.98,283.10L181.55,280.78L180.01,278.53L178.37,276.37L176.62,274.28L174.76,272.28L172.81,270.38L170.78,268.57L168.65,266.87L166.44,265.27L164.16,263.78L161.81,262.41L159.39,261.15L156.92,260.01L154.39,259.00L151.81,258.11L149.2,257.35L146.55,256.72L143.87,256.21L141.17,255.84L138.46,255.61L135.74,255.50L133.01,255.54L130.30,255.7L127.59,256.00L124.90,256.43L122.23,256.99L119.60,257.68L117.00,258.5L114.44,259.45L111.94,260.52L109.49,261.71L107.10,263.02L104.78,264.45L102.53,265.99L100.37,267.63L98.28,269.38L96.28,271.24L94.38,273.19L92.57,275.22L90.87,277.35L89.27,279.56L89.07,279.84L82.85,275.62L30.70,242.75L1.20,225.57L1.20,225.57L0.30,237.81L0.00,250.07L0.30,262.34L1.21,274.58L2.72,286.75L4.82,298.84L6.02,304.53L23.25,306.35L78.84,309.83L79.51,309.85L79.57,308.28L79.5,311L79.57,313.72L79.77,316.44L80.10,319.14L80.57,321.83L81.16,324.49L81.89,327.11L82.74,329.70L83.72,332.24L84.83,334.73L86.05,337.16L87.40,339.53L88.85,341.83L90.42,344.06L92.10,346.21L93.88,348.27L95.76,350.24L97.73,352.12L99.79,353.90L101.94,355.58L104.17,357.15L106.47,358.60L108.84,359.95L111.27,361.17L113.76,362.27L116.30,363.26L118.89,364.11L121.51,364.84L124.17,365.43L126.86,365.90L129.56,366.23L132.28,366.43L135,366.5L137.72,366.43L140.44,366.23L143.14,365.90L145.83,365.43L148.49,364.84L151.11,364.11L153.70,363.26L156.24,362.27L158.73,361.17L161.16,359.95L163.53,358.60L165.83,357.15L168.06,355.58L170.21,353.90L172.27,352.12L174.24,350.24L176.12,348.27L177.90,346.21L179.58,344.06L181.15,341.83L182.60,339.53L183.95,337.16L185.17,334.73L186.28,332.24L187.26,329.70L188.11,327.11L188.84,324.49L189.43,321.83L189.90,319.14L190.23,316.44L190.43,313.72L190.5,311L190.43,308.28L190.23,305.56L189.90,302.86L189.43,300.17L188.84,297.51L188.11,294.89L187.26,292.30L186.28,289.76L185.17,287.27L183.95,284.84L182.60,282.47L181.15,280.17L179.58,277.94L177.90,275.79L176.12,273.73L174.24,271.76L172.27,269.88L170.21,268.10L168.06,266.42L165.83,264.85L163.53,263.40L161.16,262.05L158.73,260.83L156.24,259.73L153.70,258.74L151.11,257.89L148.49,257.16L145.83,256.57L143.14,256.10L140.44,255.77L137.72,255.57L135,255.5L132.28,255.57L129.56,255.77L126.86,256.10L124.17,256.57L121.51,257.16L118.89,257.89L116.30,258.74L113.76,259.73L111.27,260.83L108.84,262.05L106.47,263.40L104.17,264.85L101.94,266.42L99.79,268.10L97.73,269.88L95.76,271.76L93.88,273.73L92.10,275.79L90.42,277.94L88.85,280.17L87.40,282.47L86.05,284.84L84.83,287.27L83.72,289.76L82.74,292.30L81.89,294.89L81.16,297.51L80.57,300.17L80.10,302.86L79.77,305.56L79.57,308.28L80,310L80,310L80,310L80,310L80.07,307.30L80.26,304.61L80.59,301.93L81.06,299.27L81.65,296.64L82.37,294.03L83.22,291.47L91.48,293.62L91.48,293.62L90.73,295.77L90.09,297.97L89.55,300.18L89.12,302.43L88.81,304.69L88.6,306.96L88.51,309.24L88.53,311.52L88.66,313.8L88.90,316.07L89.25,318.32L89.72,320.56L90.29,322.77L90.97,324.95L91.75,327.09L92.65,329.19L92.67,329.26L94.79,329.83L97.10,330.26L99.48,330.51L101.92,330.57L104.41,330.44L106.92,330.13L109.44,329.62L111.95,328.92L114.44,328.03L116.90,326.95L119.31,325.69L121.64,324.26L123.90,322.66L124.76,321.96L124.23,321.44L123.73,320.90L123.26,320.34L122.82,319.75L122.40,319.14L122.02,318.51L121.66,317.87L121.34,317.20L121.06,316.53L120.80,315.84L120.58,315.13L120.40,314.42L120.25,313.7L120.13,312.97L120.05,312.24L120.01,311.51L120.00,310.77L120.03,310.03L120.10,309.3L120.20,308.57L120.34,307.85L120.51,307.13L120.72,306.43L120.96,305.73L121.23,305.05L121.54,304.38L121.88,303.73L122.25,303.09L122.66,302.48L123.09,301.88L123.55,301.31L124.04,300.76L124.56,300.23L125.10,299.73L125.66,299.26L126.25,298.82L126.86,298.40L127.49,298.02L128.13,297.66L128.80,297.34L129.47,297.06L130.16,296.80L130.87,296.58L131.58,296.39L132.3,296.25L133.03,296.13L133.76,296.05L134.49,296.01L135.23,296.00L135.97,296.03L136.7,296.10L137.43,296.20L138.15,296.34L138.87,296.51L139.57,296.72L139.96,296.81L140.41,294.06L140.67,291.30L140.75,288.56L140.63,285.85L140.33,283.18L139.86,280.58L139.21,278.05L138.39,275.62L137.41,273.28L136.27,271.07L135,268.99L133.59,267.05L132.07,265.26L130.51,263.72L128.25,263.99L126.00,264.38L123.77,264.88L121.57,265.48L119.40,266.19L117.27,267.01L115.18,267.93L113.14,268.96L111.16,270.08L109.22,271.30L107.36,272.61L105.56,274.01L103.82,275.50L102.17,277.07L100.59,278.72L99.1,280.45L97.69,282.24L97.16,282.97L97.72,285.09L98.50,287.31L99.48,289.49L100.65,291.64L102,293.73L103.53,295.74L105.23,297.67L107.09,299.50L109.11,301.21L111.27,302.80L113.56,304.25L115.97,305.56L118.49,306.72L120.43,307.45L120.62,306.74L120.84,306.04L121.10,305.35L121.40,304.68L121.72,304.01L122.08,303.37L122.47,302.75L122.89,302.14L123.34,301.56L123.82,301.00L124.33,300.46L124.86,299.95L125.41,299.47L125.99,299.01L126.58,298.58L127.20,298.19L127.84,297.82L128.50,297.48L129.17,297.18L129.86,296.91L130.55,296.68L131.26,296.47L131.98,296.31L132.70,296.18L133.43,296.08L134.17,296.02L134.90,296L135.64,296.01L136.37,296.06L137.10,296.15L137.83,296.27L138.55,296.43L139.26,296.62L139.96,296.84L140.65,297.11L141.32,297.40L141.99,297.73L142.63,298.08L143.25,298.47L143.86,298.89L144.44,299.34L145.00,299.82L145.54,300.32L146.05,300.86L146.53,301.41L146.99,301.99L147.42,302.59L147.81,303.20L148.18,303.84L148.52,304.50L148.72,304.94L148.95,304.75L149.88,303.83L150.74,302.87L151.5,301.86L152.18,300.82L152.76,299.75L153.25,298.65L153.64,297.55L153.93,296.43L154.13,295.32L154.23,294.22L154.23,293.14L154.13,292.08L153.94,291.06L153.67,290.07L153.30,289.13L152.85,288.25L152.31,287.44L151.71,286.68L151.03,286.00L150.30,285.40L149.5,284.88L148.65,284.45L147.76,284.12L146.84,283.87L145.88,283.72L144.91,283.67L143.92,283.72L142.93,283.87L141.93,284.12L140.95,284.47L139.99,284.92L139.05,285.46L138.15,286.09L137.28,286.82L136.47,287.63L135.70,288.52L135,289.49L134.36,290.53L133.80,291.64L133.31,292.81L132.90,294.03L132.57,295.29L132.4,296.23L133.13,296.12L133.86,296.04L134.60,296.00L135.33,296.00L136.07,296.04L136.8,296.11L137.53,296.22L138.25,296.36L138.97,296.53L139.67,296.75L140.37,296.99L141.05,297.27L141.71,297.59L142.36,297.93L142.99,298.31L143.61,298.72L144.2,299.15L144.77,299.62L145.32,300.11L145.84,300.63L146.33,301.18L146.80,301.74L147.24,302.33L147.65,302.94L148.03,303.57L148.38,304.22L148.70,304.89L148.98,305.57L149.23,306.26L149.45,306.97L149.63,307.68L149.77,308.4L149.88,309.13L149.96,309.86L150.00,310.60L150.00,311.33L149.96,312.07L149.89,312.8L149.78,313.53L149.64,314.25L149.47,314.97L149.25,315.67L149.01,316.37L148.73,317.05L148.42,317.71L148.07,318.36L147.69,318.99L147.28,319.61L147.25,319.66L147.78,319.81L149.04,320.06L150.30,320.22L151.54,320.28L152.76,320.25L153.95,320.13L155.11,319.92L156.22,319.61L157.28,319.23L158.28,318.76L159.22,318.22L160.09,317.61L160.88,316.93L161.59,316.2L162.22,315.41L162.75,314.58L163.20,313.71L163.55,312.81L163.80,311.89L163.95,310.95L164,310L163.95,309.05L163.80,308.11L163.55,307.19L163.20,306.29L162.75,305.42L162.22,304.59L161.59,303.8L160.88,303.07L160.09,302.39L159.22,301.78L158.28,301.24L157.28,300.77L156.22,300.39L155.11,300.09L153.95,299.87L152.76,299.75L151.54,299.72L150.30,299.78L149.04,299.94L147.78,300.19L146.53,300.54L145.95,300.75L146.44,301.30L146.90,301.87L147.33,302.47L147.74,303.08L148.11,303.72L148.45,304.37L148.76,305.03L149.04,305.72L149.28,306.41L149.49,307.12L149.66,307.84L149.8,308.56L149.90,309.29L149.97,310.02L150.00,310.76L149.99,311.49L149.95,312.23L149.87,312.96L149.76,313.69L149.61,314.41L149.42,315.12L149.20,315.82L148.95,316.51L148.66,317.19L148.34,317.86L147.99,318.50L147.61,319.13L147.19,319.74L146.75,320.33L146.28,320.89L145.78,321.43L145.25,321.95L144.70,322.44L144.13,322.90L143.53,323.33L142.92,323.74L142.28,324.11L141.63,324.45L140.97,324.76L140.28,325.04L139.59,325.28L138.88,325.49L138.17,325.66L137.44,325.8L136.71,325.90L135.98,325.97L135.24,326.00L134.51,325.99L133.77,325.95L133.04,325.87L132.86,325.85L132.90,325.97L133.31,327.19L133.80,328.36L134.36,329.47L135,330.51L135.70,331.48L136.47,332.37L137.28,333.18L138.15,333.91L139.05,334.54L139.99,335.08L140.95,335.53L141.93,335.88L142.93,336.13L143.92,336.28L144.91,336.33L145.88,336.28L146.84,336.13L147.76,335.88L148.65,335.55L149.5,335.12L150.30,334.60L151.03,334.00L151.71,333.32L152.31,332.56L152.85,331.75L153.30,330.87L153.67,329.93L153.94,328.94L154.13,327.92L154.23,326.86L154.23,325.78L154.13,324.68L153.93,323.57L153.64,322.45L153.25,321.35L152.76,320.25L152.18,319.18L151.5,318.14L150.74,317.13L149.88,316.17L149.28,315.58L149.04,316.27L148.77,316.95L148.46,317.62L148.12,318.28L147.74,318.91L147.34,319.53L146.91,320.12L146.45,320.69L145.96,321.25L145.44,321.77L144.90,322.27L144.33,322.74L143.75,323.19L143.14,323.6L142.51,323.98L141.86,324.34L141.20,324.66L140.52,324.95L139.83,325.2L139.13,325.42L138.42,325.61L137.70,325.75L136.97,325.87L136.24,325.95L135.50,325.99L134.77,326.00L134.03,325.97L133.30,325.90L132.57,325.80L131.84,325.67L131.13,325.49L130.42,325.28L129.73,325.04L129.05,324.77L128.38,324.46L127.72,324.12L127.09,323.74L126.47,323.34L125.88,322.91L125.31,322.45L124.75,321.96L124.23,321.44L123.73,320.90L123.26,320.33L122.81,319.75L122.4,319.14L122.02,318.51L121.66,317.86L121.34,317.20L121.05,316.52L120.80,315.83L120.72,315.58L120.12,316.17L119.26,317.13L118.5,318.14L117.82,319.18L117.24,320.25L116.75,321.35L116.36,322.45L116.07,323.57L115.87,324.68L115.77,325.78L115.77,326.86L115.87,327.92L116.06,328.94L116.34,329.93L116.70,330.87L117.15,331.75L117.69,332.56L118.29,333.32L118.97,334.00L119.70,334.60L120.5,335.12L121.35,335.55L122.23,335.88L123.16,336.13L124.11,336.28L125.09,336.33L126.08,336.28L127.07,336.13L128.07,335.88L129.05,335.53L130.01,335.08L130.95,334.54L131.85,333.91L132.72,333.18L133.53,332.37L134.30,331.48L135,330.51L135.64,329.47L136.20,328.36L136.69,327.19L137.10,325.97L137.14,325.85L136.41,325.93L135.67,325.99L134.93,326L134.20,325.98L133.46,325.92L132.73,325.83L132.01,325.70L131.29,325.53L130.58,325.33L129.88,325.10L129.20,324.83L128.53,324.53L127.87,324.20L127.23,323.83L126.61,323.44L126.01,323.01L125.43,322.55L124.88,322.07L124.35,321.56L123.84,321.02L123.36,320.47L122.91,319.88L122.49,319.28L122.1,318.65L121.74,318.01L121.41,317.35L121.12,316.68L120.85,315.99L120.63,315.29L120.43,314.58L120.28,313.86L120.15,313.14L120.07,312.40L120.01,311.67L120,310.93L120.02,310.20L120.08,309.46L120.17,308.73L120.30,308.01L120.47,307.29L120.66,306.58L120.90,305.88L121.17,305.20L121.47,304.53L121.80,303.87L122.17,303.23L122.56,302.61L122.99,302.01L123.45,301.43L123.93,300.88L124.05,300.75L123.47,300.54L122.22,300.19L120.96,299.94L119.70,299.78L118.46,299.72L117.24,299.75L116.05,299.87L114.90,300.09L113.78,300.39L112.72,300.77L111.72,301.24L110.78,301.78L109.91,302.39L109.12,303.07L108.41,303.8L107.78,304.59L107.25,305.42L106.80,306.29L106.45,307.19L106.20,308.11L106.05,309.05L106,310L106.05,310.95L106.20,311.89L106.45,312.81L106.80,313.71L107.25,314.58L107.78,315.41L108.41,316.2L109.12,316.93L109.91,317.61L110.78,318.22L111.72,318.76L112.72,319.23L113.78,319.61L114.90,319.92L116.05,320.13L117.24,320.25L118.46,320.28L119.70,320.22L120.96,320.06L122.22,319.81L122.75,319.66L122.34,319.05L121.96,318.42L121.61,317.77L121.30,317.10L121.01,316.42L120.77,315.73L120.55,315.03L120.37,314.31L120.22,313.59L120.12,312.86L120.04,312.13L120.00,311.39L120.00,310.66L120.04,309.92L120.11,309.19L120.22,308.46L120.36,307.74L120.54,307.02L120.75,306.32L121.00,305.63L121.28,304.95L121.59,304.28L121.94,303.63L122.31,303.00L122.72,302.38L123.16,301.79L123.62,301.22L124.12,300.68L124.64,300.15L125.18,299.66L125.75,299.19L126.34,298.75L126.95,298.34L127.58,297.96L128.23,297.61L128.90,297.30L129.58,297.01L130.27,296.77L130.97,296.55L131.69,296.37L132.41,296.23L133.14,296.12L133.87,296.04L134.61,296.00L135.34,296.00L136.08,296.04L136.81,296.11L137.54,296.22L137.6,296.23L137.43,295.29L137.10,294.03L136.69,292.81L136.20,291.64L135.64,290.53L135,289.49L134.30,288.52L133.53,287.63L132.72,286.82L131.85,286.09L130.95,285.46L130.01,284.92L129.05,284.47L128.07,284.12L127.07,283.87L126.08,283.72L125.09,283.67L124.11,283.72L123.16,283.87L122.23,284.12L121.35,284.45L120.5,284.88L119.70,285.40L118.97,286.00L118.29,286.68L117.69,287.44L117.15,288.25L116.70,289.13L116.34,290.07L116.06,291.06L115.87,292.08L115.77,293.14L115.77,294.22L115.87,295.32L116.07,296.43L116.36,297.55L116.75,298.65L117.24,299.75L117.82,300.82L118.5,301.86L119.26,302.87L120.12,303.83L121.05,304.75L121.28,304.94L121.59,304.28L121.94,303.63L122.31,303.00L122.72,302.38L123.16,301.79L123.63,301.22L124.12,300.68L124.64,300.15L125.18,299.66L125.75,299.19L126.34,298.75L126.95,298.34L127.58,297.96L128.23,297.61L128.90,297.30L129.58,297.01L130.27,296.76L130.98,296.55L131.69,296.37L132.41,296.23L133.14,296.12L133.87,296.04L134.61,296.00L135.34,296.00L136.08,296.04L136.81,296.11L137.54,296.22L138.26,296.36L138.98,296.54L139.68,296.75L140.38,297.00L141.06,297.28L141.72,297.59L142.37,297.94L143.00,298.31L143.62,298.72L144.21,299.16L144.78,299.63L145.32,300.12L145.85,300.64L146.34,301.18L146.81,301.75L147.25,302.34L147.66,302.95L148.04,303.59L148.39,304.23L148.70,304.90L148.99,305.58L149.24,306.27L149.45,306.98L149.57,307.45L151.51,306.72L154.03,305.56L156.44,304.25L158.73,302.80L160.89,301.21L162.91,299.50L164.77,297.67L166.47,295.74L168,293.73L169.35,291.64L170.52,289.49L171.50,287.31L172.28,285.09L172.84,282.97L171.47,281.15L170.01,279.39L168.46,277.71L166.84,276.11L165.14,274.59L163.36,273.15L161.52,271.81L159.62,270.55L157.65,269.39L155.63,268.33L153.56,267.37L151.45,266.51L149.29,265.75L147.10,265.10L144.89,264.56L142.64,264.13L140.38,263.81L139.49,263.72L137.93,265.26L136.41,267.05L135,268.99L133.73,271.07L132.59,273.28L131.61,275.62L130.79,278.05L130.14,280.58L129.67,283.18L129.37,285.85L129.25,288.56L129.33,291.30L129.59,294.06L130.04,296.81L130.05,296.84L130.75,296.62L131.46,296.42L132.18,296.27L132.90,296.15L133.64,296.06L134.37,296.01L135.11,296L135.84,296.02L136.58,296.08L137.31,296.18L138.03,296.31L138.75,296.48L139.46,296.68L140.15,296.91L140.84,297.18L141.51,297.49L142.17,297.82L142.80,298.19L143.42,298.59L144.02,299.02L144.60,299.47L145.15,299.96L145.68,300.47L146.19,301.01L146.66,301.57L147.11,302.15L147.53,302.75L147.92,303.38L148.28,304.02L148.61,304.68L148.90,305.36L149.16,306.05L149.38,306.75L149.58,307.46L149.73,308.18L149.85,308.90L149.94,309.64L149.99,310.37L150,311.11L149.98,311.84L149.92,312.58L149.82,313.31L149.69,314.03L149.52,314.75L149.32,315.46L149.09,316.15L148.82,316.84L148.51,317.51L148.18,318.17L147.81,318.80L147.41,319.42L146.98,320.02L146.53,320.60L146.04,321.15L145.53,321.68L145.24,321.96L146.10,322.66L148.36,324.26L150.69,325.69L153.10,326.95L155.56,328.03L158.05,328.92L160.56,329.62L163.08,330.13L165.59,330.44L168.08,330.57L170.52,330.51L172.90,330.26L175.21,329.83L177.33,329.26L178.22,327.16L179.01,325.01L179.69,322.84L180.27,320.63L180.74,318.39L181.09,316.14L181.34,313.87L181.47,311.59L181.50,309.31L181.41,307.03L181.20,304.76L180.89,302.50L180.47,300.25L179.93,298.03L179.29,295.84L178.55,293.69L177.69,291.57L177.33,290.74L175.21,290.17L172.90,289.74L170.52,289.49L168.08,289.43L165.59,289.56L163.08,289.88L160.56,290.38L158.05,291.08L155.56,291.97L153.10,293.05L150.69,294.31L148.36,295.74L146.10,297.34L144.04,299.03L144.61,299.49L145.17,299.97L145.69,300.48L146.20,301.02L146.67,301.58L147.12,302.17L147.54,302.77L147.93,303.40L148.29,304.04L148.61,304.7L148.91,305.38L149.17,306.06L149.39,306.77L149.58,307.48L149.74,308.20L149.86,308.92L149.94,309.65L149.99,310.39L150.00,311.13L149.97,311.86L149.92,312.60L149.82,313.32L149.69,314.05L149.52,314.77L149.32,315.47L149.08,316.17L148.81,316.86L148.51,317.53L148.17,318.18L147.80,318.82L147.40,319.44L146.97,320.04L146.51,320.61L146.03,321.17L145.52,321.69L144.98,322.20L144.42,322.67L143.83,323.12L143.23,323.54L142.60,323.93L141.96,324.29L141.3,324.61L140.62,324.91L139.94,325.17L139.23,325.39L138.52,325.58L137.80,325.74L137.08,325.86L136.34,325.94L135.61,325.99L134.88,326.00L134.14,325.98L133.41,325.92L132.68,325.82L131.95,325.69L131.23,325.52L130.53,325.32L129.83,325.08L129.73,325.05L129.59,325.94L129.33,328.70L129.25,331.44L129.37,334.15L129.67,336.82L130.14,339.42L130.79,341.95L131.61,344.38L132.59,346.72L133.73,348.93L135,351.01L136.41,352.95L137.93,354.74L139.49,356.28L141.75,356.01L144.00,355.62L146.23,355.12L148.43,354.52L150.60,353.81L152.73,352.99L154.82,352.07L156.86,351.04L158.84,349.92L160.78,348.70L162.64,347.39L164.44,345.99L166.18,344.50L167.83,342.93L169.41,341.28L170.9,339.55L172.31,337.76L172.84,337.03L172.28,334.91L171.50,332.69L170.52,330.51L169.35,328.36L168,326.27L166.47,324.26L164.77,322.33L162.91,320.50L160.89,318.79L158.73,317.20L156.44,315.75L154.03,314.44L151.51,313.28L149.91,312.68L149.81,313.40L149.67,314.13L149.50,314.85L149.29,315.55L149.05,316.25L148.78,316.93L148.47,317.6L148.13,318.25L147.76,318.89L147.36,319.50L146.92,320.10L146.46,320.68L145.97,321.23L145.46,321.75L144.92,322.25L144.36,322.73L143.77,323.17L143.16,323.59L142.53,323.97L141.89,324.32L141.23,324.65L140.55,324.94L139.86,325.19L139.16,325.41L138.44,325.60L137.72,325.75L137.00,325.87L136.26,325.95L135.53,325.99L134.79,326.00L134.06,325.97L133.32,325.91L132.59,325.81L131.87,325.67L131.16,325.50L130.45,325.29L129.75,325.05L129.07,324.78L128.4,324.47L127.75,324.13L127.11,323.76L126.50,323.36L125.90,322.92L125.33,322.46L124.77,321.97L124.25,321.46L123.75,320.92L123.28,320.36L122.83,319.77L122.41,319.16L122.03,318.53L121.68,317.89L121.35,317.23L121.06,316.55L120.81,315.86L120.59,315.16L120.40,314.44L120.25,313.72L120.13,313.00L120.09,312.68L118.49,313.28L115.97,314.44L113.56,315.75L111.27,317.20L109.11,318.79L107.09,320.50L105.23,322.33L103.53,324.26L102,326.27L100.65,328.36L99.48,330.51L98.50,332.69L97.72,334.91L97.16,337.03L98.53,338.85L99.99,340.61L101.54,342.29L103.16,343.89L104.86,345.41L106.64,346.85L108.48,348.19L110.38,349.45L112.35,350.61L114.37,351.67L116.44,352.63L118.55,353.49L120.71,354.25L122.90,354.90L125.11,355.44L127.36,355.87L129.62,356.19L130.51,356.28L132.07,354.74L133.59,352.95L135,351.01L136.27,348.93L137.41,346.72L138.39,344.38L139.21,341.95L139.86,339.42L140.33,336.82L140.63,334.15L140.75,331.44L140.67,328.70L140.41,325.94L140.27,325.05L139.57,325.29L138.86,325.49L138.15,325.67L137.43,325.80L136.70,325.90L135.96,325.97L135.23,326.00L134.49,325.99L133.75,325.95L133.02,325.87L132.30,325.75L131.57,325.60L130.86,325.42L130.16,325.20L129.47,324.94L128.79,324.65L128.13,324.33L127.48,323.98L126.86,323.60L126.25,323.18L125.66,322.74L125.10,322.26L124.56,321.77L124.04,321.24L123.55,320.69L123.09,320.12L122.66,319.52L122.25,318.90L121.88,318.27L121.54,317.62L121.23,316.95L120.96,316.27L120.71,315.57L120.51,314.86L120.33,314.15L120.20,313.43L120.10,312.70L120.03,311.96L120.00,311.23L120.01,310.49L120.05,309.75L120.13,309.02L120.25,308.30L120.40,307.57L120.58,306.86L120.80,306.16L121.06,305.47L121.34,304.79L121.67,304.13L122.02,303.48L122.40,302.86L122.82,302.25L123.26,301.66L123.73,301.10L124.23,300.56L124.76,300.04L125.31,299.55L125.88,299.09L125.96,299.03L123.90,297.34L121.64,295.74L119.31,294.31L116.90,293.05L114.44,291.97L111.95,291.08L109.44,290.38L106.92,289.88L104.41,289.56L101.92,289.43L99.48,289.49L97.10,289.74L94.79,290.17L92.67,290.74L92,295L92,295L92,295L92,295L92,294L83,292L83,292L83,291L83.22,292.47L83.22,292.47L82.37,295.03L81.65,297.64L81.06,300.27L80.59,302.93L80.26,305.61L80.07,308.30L80,311L80.07,313.70L80.26,316.39L80.59,319.07L81.06,321.73L81.65,324.36L82.37,326.97L83.22,329.53L84.19,332.05L85.28,334.52L86.49,336.93L87.82,339.28L89.27,341.56L90.82,343.76L92.48,345.89L94.25,347.94L96.11,349.89L98.06,351.75L100.11,353.52L102.24,355.18L104.44,356.73L65,416L65,416L65,415L63.43,416.40L63.43,416.40L55.49,407.05L48.01,397.32L41.03,387.23L34.55,376.81L28.58,366.08L23.16,355.08L18.27,343.82L13.95,332.34L10.19,320.66L7.01,308.80L4.42,296.81L2.42,284.70L1.02,272.51L0.21,260.27L0.01,248.00L0.41,235.74L1.41,223.51L3.01,211.34L5.20,199.27L7.99,187.32L11.35,175.52L15.29,163.90L19.80,152.49L24.86,141.31L30.47,130.39L36.60,119.76L43.25,109.45L50.39,99.47L58.02,89.86L66.11,80.64L74.64,71.82L83.60,63.43L92.95,55.49L102.68,48.01L112.77,41.03L122.58,34.91L122.62,34.97L122.62,34.97L135.01,44.64L146.90,54.90L158.27,65.73L169.10,77.10L168,75L168,75L168,74L188.95,74.75L188.95,74.75L190.44,74.75L191.93,74.75L193.41,74.75L193.41,73.27L193.41,71.78L193.41,70.29L193.41,68.81L193.41,67.32L193.41,65.83L193.41,64.34L193.41,62.86L193.41,61.37L193.41,59.88L193.41,58.39L193.41,56.90L193.41,55.42L193.41,53.93L193.41,52.44L193.41,50.96L193.41,49.47L193.41,47.98L193.41,47.25L191.93,47.25L190.44,47.25L188.95,47.25L190.44,47.25L191.93,47.25L193.41,47.25L194.9,47.25L196.39,47.25L197.88,47.25L196.39,47.25L194.9,47.25L193.41,47.98L193.41,49.47L193.41,50.96L193.41,52.44L193.41,53.93L193.41,55.42L193.41,56.90L193.41,58.39L193.41,59.88L193.41,61.37L193.41,62.86L193.41,64.34L193.41,65.83L193.41,67.32L193.41,68.81L193.41,70.29L193.41,71.78L193.41,73.27L193.41,74.75L191.93,73.27L190.44,73.27L188.95,73.27L190.44,73.27L191.93,73.27L193.41,73.27L194.9,73.27L196.39,73.27L197.88,73.27L196.39,73.27L194.9,73.27L193.41,73.27L193.41,74.75L194.9,74.75L196.39,74.75L197.88,74.75L199.36,74.75L205.31,74.75L206.8,74.75L208.29,74.75L209.78,74.75L211.26,74.75L212.75,74.75L214.24,74.75L215.72,74.75L217.21,74.75L223.16,74.75L224.65,74.75L226.14,74.75L227.63,74.75L229.11,74.75L228.68,73.27L228.22,71.78L227.78,70.29L227.33,68.81L226.89,67.32L226.44,65.83L226.00,64.34L225.54,62.86L225.10,61.37L224.65,59.88L225.10,61.37L225.54,62.86L226.00,64.34L226.44,65.83L226.89,67.32L227.33,68.81L227.78,70.29L228.22,71.78L228.68,73.27L229.11,74.75L229.55,73.27L230.00,71.78L230.46,70.29L230.90,68.81L231.35,67.32L231.79,65.83L232.23,64.34L232.68,62.86L233.14,61.37L233.57,59.88L234.01,61.37L234.47,62.86L234.91,64.34L235.36,65.83L235.81,67.32L236.25,68.81L236.69,70.29L237.15,71.78L237.6,73.27L238.04,74.75L238.47,73.27L238.93,71.78L239.37,70.29L239.82,68.81L240.28,67.32L240.72,65.83L241.15,64.34L241.61,62.86L242.04,61.37L242.5,59.88L242.04,61.37L241.61,62.86L241.15,64.34L240.72,65.83L240.28,67.32L239.82,68.81L239.37,70.29L238.93,71.78L238.47,73.27L238.04,74.75L239.53,74.75L241.01,74.75L242.5,74.75L243.99,74.75L249.94,74.75L251.13,74.75L252.62,74.75L254.10,74.75L256.48,74.75L257.67,74.75L258.86,74.75L260.05,74.75L261.24,74.75L261.24,73.27L261.24,71.78L261.24,70.29L261.24,68.81L261.24,67.32L261.24,65.83L261.24,64.34L261.24,62.86L261.24,61.37L261.24,59.88L260.05,59.88L258.86,59.88L257.67,59.88L256.48,59.88L255.89,60.04L255.00,60.48L254.10,61.37L253.51,61.96L252.91,62.86L252.32,64.34L251.72,65.83L251.43,67.32L251.72,68.81L252.32,70.29L252.91,71.78L253.51,72.67L254.10,73.27L255.00,74.16L255.89,74.62L256.48,74.75L257.67,74.75L258.86,74.75L260.05,74.75L262.73,74.75L268.68,74.75L270.17,74.75L271.65,74.75L273.14,74.75L274.63,74.75L276.12,74.75L277.61,74.75L278.50,74.75L279.09,74.62L279.99,74.16L280.88,73.27L281.47,72.67L282.07,71.78L281.91,70.89L281.47,70.29L280.28,69.56L279.09,68.81L277.61,68.07L276.12,67.32L274.63,66.58L273.14,65.83L271.95,65.10L270.76,64.34L270.46,63.01L270.76,61.96L271.36,61.37L272.25,60.48L273.14,60.04L273.74,59.88L274.93,59.88L276.12,59.88L277.31,59.88L278.50,59.88L279.09,60.04L279.99,60.48L280.88,61.37L281.47,61.96L280.88,61.37L279.99,60.48L279.09,60.04L278.50,59.88L277.31,59.88L276.12,59.88L274.93,59.88L273.74,59.88L273.14,60.04L272.25,60.48L271.36,61.37L270.76,61.96L270.46,63.01L270.76,64.34L271.95,65.10L273.14,65.83L274.63,66.58L276.12,67.32L277.61,68.07L279.09,68.81L280.28,69.56L281.47,70.29L281.91,70.89L282.07,71.78L281.47,72.67L280.88,73.27L279.99,74.16L279.09,74.62L278.50,74.75L277.61,74.75L276.12,74.75L274.63,74.75L273.74,74.75L273.14,74.62L272.25,74.16L271.36,73.27L270.76,72.67L269.73,71.78L270.76,72.67L271.36,73.27L272.25,74.16L273.14,74.62L273.74,74.75L274.63,74.75L276.12,74.75L277.61,74.75L279.09,74.75L280.58,74.75L282.07,74.75L283.56,74.75L289.50,74.75L290.99,74.75L292.48,74.75L293.97,74.75L295.45,74.75L296.94,74.75L298.43,74.75L299.92,74.75L301.40,74.75L307.36,74.75L308.84,74.75L310.33,74.75L311.82,74.75L313.31,74.75L314.79,74.75L316.28,74.75L317.17,74.75L317.77,74.62L318.66,74.16L319.55,73.27L320.15,72.67L320.74,71.78L320.58,70.89L320.15,70.29L318.96,69.56L317.77,68.81L316.28,68.07L314.79,67.32L313.31,66.58L311.82,65.83L310.63,65.10L309.44,64.34L309.14,63.01L309.44,61.96L310.03,61.37L310.93,60.48L311.82,60.04L312.41,59.88L313.60,59.88L314.79,59.88L315.98,59.88L317.17,59.88L317.77,60.04L318.66,60.48L319.55,61.37L320.15,61.96L319.55,61.37L318.66,60.48L317.77,60.04L317.17,59.88L315.98,59.88L314.79,59.88L313.60,59.88L312.41,59.88L311.82,60.04L310.93,60.48L310.03,61.37L309.44,61.96L309.14,63.01L309.44,64.34L310.63,65.10L311.82,65.83L313.31,66.58L314.79,67.32L316.28,68.07L317.77,68.81L318.96,69.56L320.15,70.29L320.58,70.89L320.74,71.78L320.15,72.67L319.55,73.27L318.66,74.16L317.77,74.62L317.17,74.75L316.28,74.75L314.79,74.75L313.31,74.75L312.41,74.75L311.82,74.62L310.93,74.16L310.03,73.27L309.44,72.67L308.40,71.78L309.44,72.67L310.03,73.27L310.93,74.16L311.82,74.62L312.41,74.75L313.31,74.75L314.79,74.75L316.28,74.75L317.77,74.75L319.25,74.75L320.74,74.75L322.23,74.75L328.18,74.75L329.37,74.75L330.86,74.75L332.35,74.75L334.73,74.75L335.92,74.75L337.11,74.75L338.30,74.75L339.49,74.75L339.49,73.27L339.49,71.78L339.49,70.29L339.49,68.81L339.49,67.32L339.49,65.83L339.49,64.34L339.49,62.86L339.49,61.37L339.49,59.88L338.30,59.88L337.11,59.88L335.92,59.88L334.73,59.88L334.13,60.04L333.24,60.48L332.35,61.37L331.75,61.96L331.15,62.86L330.56,64.34L329.97,65.83L329.67,67.32L329.97,68.81L330.56,70.29L331.15,71.78L331.75,72.67L332.35,73.27L333.24,74.16L334.13,74.62L334.73,74.75L335.92,74.75L337.11,74.75L338.30,74.75L340.97,74.75L346.92,74.75L348.41,74.75L348.41,73.27L348.41,71.78L348.41,70.29L348.41,68.81L348.41,67.32L348.41,65.83L348.41,64.34L348.41,62.86L348.41,61.37L349.6,60.93L351.38,60.48L352.57,60.18L353.76,60.18L354.95,60.48L356.74,60.93L357.63,61.37L357.93,62.86L357.93,64.34L357.93,65.83L357.93,67.32L357.93,68.81L357.93,70.29L357.93,71.78L357.93,73.27L357.93,74.75L359.42,74.75L365.37,74.75L366.86,74.75L368.34,74.75L369.83,74.75L371.91,74.75L373.10,74.75L374.29,74.75L375.48,74.75L376.67,74.75L377.86,74.75L377.86,73.27L377.86,71.78L377.86,70.29L377.86,68.81L377.86,67.32L377.86,65.83L377.86,64.34L377.86,62.86L377.86,61.37L377.86,59.88L377.86,58.39L377.86,56.90L377.86,55.42L377.86,53.93L377.86,52.44L377.86,50.96L377.86,49.47L377.86,47.98L377.86,47.25L377.86,47.98L377.86,49.47L377.86,50.96L377.86,52.44L377.86,53.93L377.86,55.42L377.86,56.90L377.86,58.39L377.86,59.88L376.67,59.88L375.48,59.88L374.29,59.88L373.10,59.88L371.91,59.88L371.32,60.04L370.43,60.48L369.53,61.37L368.94,61.96L368.34,62.86L367.75,64.34L367.15,65.83L366.86,67.32L367.15,68.81L367.75,70.29L368.34,71.78L368.94,72.67L369.53,73.27L370.43,74.16L371.32,74.62L371.91,74.75L373.10,74.75L374.29,74.75L375.48,74.75L376.67,74.75L377.86,74.75L379.35,74.75L385.3,74.75L386.79,74.75L388.27,74.75L388.57,73.27L389.17,71.78L390.36,73.27L390.65,74.75L390.95,76.24L390.95,77.73L390.36,79.22L389.76,80.71L388.57,82.19L386.79,83.68L388.57,82.19L389.76,80.71L390.36,79.22L390.95,77.73L390.95,76.24L390.65,74.75L390.36,73.27L389.17,71.78L390.36,73.27L390.65,74.75L392.74,74.75L398.69,74.75L400.18,74.75L401.66,74.75L403.15,74.75L404.64,74.75L406.13,74.75L407.61,74.75L409.1,74.75L410.59,74.75L416.54,74.75L428.29,74.75L428.30,74.75L419.48,66.22L410.26,58.12L400.65,50.49L390.68,43.34L380.37,36.68L369.75,30.54L358.83,24.93L347.66,19.86L336.25,15.35L324.63,11.40L312.83,8.03L300.89,5.23L288.81,3.03L276.65,1.42L264.42,0.42L252.16,0.01L239.89,0.20L227.64,1.00L215.45,2.40L203.34,4.39L191.35,6.98L179.50,10.15L167.81,13.90L156.33,18.21L145.06,23.09L134.06,28.51L123.95,34.10L132.71,41.54L149.82,57.56L166.12,74.40L181.58,92.02L196.15,110.37L200.88,116.75L202.34,116.75L203.82,116.75L205.31,116.75L206.8,116.75L208.29,116.75L209.78,116.75L211.26,116.75L217.21,116.75L218.7,116.75L220.19,116.75L221.68,116.75L223.16,116.75L223.16,115.27L223.16,113.78L223.16,112.29L223.16,110.81L223.16,109.32L223.16,107.83L223.16,106.34L223.16,104.86L223.16,103.37L223.16,101.88L223.16,100.39L223.16,98.90L223.16,97.42L223.16,95.93L223.16,94.44L223.16,92.96L223.16,91.47L223.16,89.98L223.16,89.25L221.68,89.25L220.19,89.25L218.7,89.25L220.19,89.25L221.68,89.25L223.16,89.25L224.65,89.25L226.14,89.25L227.63,89.25L226.14,89.25L224.65,89.25L223.16,89.98L223.16,91.47L223.16,92.96L223.16,94.44L223.16,95.93L223.16,97.42L223.16,98.90L223.16,100.39L223.16,101.88L223.16,103.37L223.16,104.86L223.16,106.34L223.16,107.83L223.16,109.32L223.16,110.81L223.16,112.29L223.16,113.78L223.16,115.27L223.16,116.75L221.68,115.27L220.19,115.27L218.7,115.27L220.19,115.27L221.68,115.27L223.16,115.27L224.65,115.27L226.14,115.27L227.63,115.27L226.14,115.27L224.65,115.27L223.16,115.27L223.16,116.75L224.65,116.75L226.14,116.75L227.63,116.75L229.11,116.75L235.06,116.75L236.55,116.75L238.04,116.75L239.53,116.75L241.01,116.75L242.5,116.75L243.99,116.75L245.47,116.75L246.96,116.75L252.91,116.75L254.4,116.75L255.89,116.75L257.38,116.75L258.86,116.75L258.43,115.27L257.97,113.78L257.53,112.29L257.08,110.81L256.64,109.32L256.19,107.83L255.75,106.34L255.29,104.86L254.85,103.37L254.4,101.88L254.85,103.37L255.29,104.86L255.75,106.34L256.19,107.83L256.64,109.32L257.08,110.81L257.53,112.29L257.97,113.78L258.43,115.27L258.86,116.75L259.3,115.27L259.75,113.78L260.21,112.29L260.65,110.81L261.10,109.32L261.54,107.83L261.98,106.34L262.43,104.86L262.89,103.37L263.32,101.88L263.76,103.37L264.22,104.86L264.65,106.34L265.11,107.83L265.56,109.32L266.00,110.81L266.44,112.29L266.89,113.78L267.35,115.27L267.79,116.75L268.23,115.27L268.68,113.78L269.12,112.29L269.57,110.81L270.03,109.32L270.46,107.83L270.90,106.34L271.36,104.86L271.80,103.37L272.25,101.88L271.80,103.37L271.36,104.86L270.90,106.34L270.46,107.83L270.03,109.32L269.57,110.81L269.12,112.29L268.68,113.78L268.23,115.27L267.79,116.75L269.27,116.75L270.76,116.75L272.25,116.75L273.74,116.75L279.69,116.75L280.88,116.75L282.37,116.75L283.85,116.75L286.23,116.75L287.42,116.75L288.61,116.75L289.80,116.75L290.99,116.75L290.99,115.27L290.99,113.78L290.99,112.29L290.99,110.81L290.99,109.32L290.99,107.83L290.99,106.34L290.99,104.86L290.99,103.37L290.99,101.88L289.80,101.88L288.61,101.88L287.42,101.88L286.23,101.88L285.64,102.04L284.75,102.48L283.85,103.37L283.26,103.96L282.66,104.86L282.07,106.34L281.47,107.83L281.18,109.32L281.47,110.81L282.07,112.29L282.66,113.78L283.26,114.67L283.85,115.27L284.75,116.16L285.64,116.62L286.23,116.75L287.42,116.75L288.61,116.75L289.80,116.75L292.48,116.75L298.43,116.75L299.92,116.75L301.40,116.75L302.89,116.75L304.38,116.75L305.87,116.75L307.36,116.75L308.25,116.75L308.84,116.62L309.74,116.16L310.63,115.27L311.22,114.67L311.82,113.78L311.66,112.89L311.22,112.29L310.03,111.56L308.84,110.81L307.36,110.07L305.87,109.32L304.38,108.58L302.89,107.83L301.70,107.10L300.51,106.34L300.22,105.01L300.51,103.96L301.11,103.37L302,102.48L302.89,102.04L303.49,101.88L304.68,101.88L305.87,101.88L307.06,101.88L308.25,101.88L308.84,102.04L309.74,102.48L310.63,103.37L311.22,103.96L310.63,103.37L309.74,102.48L308.84,102.04L308.25,101.88L307.06,101.88L305.87,101.88L304.68,101.88L303.49,101.88L302.89,102.04L302,102.48L301.11,103.37L300.51,103.96L300.22,105.01L300.51,106.34L301.70,107.10L302.89,107.83L304.38,108.58L305.87,109.32L307.36,110.07L308.84,110.81L310.03,111.56L311.22,112.29L311.66,112.89L311.82,113.78L311.22,114.67L310.63,115.27L309.74,116.16L308.84,116.62L308.25,116.75L307.36,116.75L305.87,116.75L304.38,116.75L303.49,116.75L302.89,116.62L302,116.16L301.11,115.27L300.51,114.67L299.48,113.78L300.51,114.67L301.11,115.27L302,116.16L302.89,116.62L303.49,116.75L304.38,116.75L305.87,116.75L307.36,116.75L308.84,116.75L310.33,116.75L311.82,116.75L313.31,116.75L319.25,116.75L320.74,116.75L322.23,116.75L323.72,116.75L325.20,116.75L326.69,116.75L328.18,116.75L329.67,116.75L331.15,116.75L337.11,116.75L338.59,116.75L340.08,116.75L341.57,116.75L343.06,116.75L344.54,116.75L346.03,116.75L346.92,116.75L347.52,116.62L348.41,116.16L349.30,115.27L349.90,114.67L350.49,113.78L350.33,112.89L349.90,112.29L348.71,111.56L347.52,110.81L346.03,110.07L344.54,109.32L343.06,108.58L341.57,107.83L340.38,107.10L339.19,106.34L338.89,105.01L339.19,103.96L339.78,103.37L340.68,102.48L341.57,102.04L342.16,101.88L343.35,101.88L344.54,101.88L345.73,101.88L346.92,101.88L347.52,102.04L348.41,102.48L349.30,103.37L349.90,103.96L349.30,103.37L348.41,102.48L347.52,102.04L346.92,101.88L345.73,101.88L344.54,101.88L343.35,101.88L342.16,101.88L341.57,102.04L340.68,102.48L339.78,103.37L339.19,103.96L338.89,105.01L339.19,106.34L340.38,107.10L341.57,107.83L343.06,108.58L344.54,109.32L346.03,110.07L347.52,110.81L348.71,111.56L349.90,112.29L350.33,112.89L350.49,113.78L349.90,114.67L349.30,115.27L348.41,116.16L347.52,116.62L346.92,116.75L346.03,116.75L344.54,116.75L343.06,116.75L342.16,116.75L341.57,116.62L340.68,116.16L339.78,115.27L339.19,114.67L338.15,113.78L339.19,114.67L339.78,115.27L340.68,116.16L341.57,116.62L342.16,116.75L343.06,116.75L344.54,116.75L346.03,116.75L347.52,116.75L349.00,116.75L350.49,116.75L351.98,116.75L357.93,116.75L359.42,116.75L359.42,115.27L359.42,113.78L359.42,112.29L359.42,110.81L359.42,109.32L359.42,107.83L359.42,106.34L359.42,104.86L359.42,103.37L360.61,102.93L362.39,102.48L363.58,102.18L364.77,102.18L365.96,102.48L367.75,102.93L368.64,103.37L368.94,104.86L368.94,106.34L368.94,107.83L368.94,109.32L368.94,110.81L368.94,112.29L368.94,113.78L368.94,115.27L368.94,116.75L370.43,116.75L376.38,116.75L377.86,116.75L379.35,116.75L380.84,116.75L382.32,116.75L383.81,116.75L385.3,116.75L386.79,116.75L387.68,116.75L388.27,116.62L389.17,116.16L390.06,115.27L390.65,114.67L391.25,113.78L391.85,112.29L392.44,110.81L392.74,109.32L392.44,107.83L391.85,106.34L391.25,104.86L390.65,103.96L390.06,103.37L389.17,102.48L388.27,102.04L387.68,101.88L386.49,101.88L385.3,101.88L384.11,101.88L382.92,101.88L382.32,102.04L381.43,102.48L380.54,103.37L379.94,103.96L379.35,104.86L378.75,106.34L378.16,107.83L377.86,109.32L378.16,110.81L378.75,112.29L379.35,113.78L379.94,114.67L380.54,115.27L381.43,116.16L382.32,116.62L382.92,116.75L383.81,116.75L385.3,116.75L386.79,116.75L388.27,116.75L389.76,116.75L391.25,116.75L392.74,116.75L394.23,116.75L400.18,116.75L401.66,116.75L403.15,116.75L404.64,116.75L406.13,116.75L405.69,115.27L405.23,113.78L404.79,112.29L404.34,110.81L403.90,109.32L403.45,107.83L403.01,106.34L402.56,104.86L402.12,103.37L401.66,101.88L402.12,103.37L402.56,104.86L403.01,106.34L403.45,107.83L403.90,109.32L404.34,110.81L404.79,112.29L405.23,113.78L405.69,115.27L406.13,116.75L406.56,115.27L407.02,113.78L407.47,112.29L407.91,110.81L408.37,109.32L408.80,107.83L409.24,106.34L409.69,104.86L410.15,103.37L410.59,101.88L411.02,103.37L411.48,104.86L411.92,106.34L412.37,107.83L412.83,109.32L413.26,110.81L413.70,112.29L414.16,113.78L414.61,115.27L415.05,116.75L415.49,115.27L415.94,113.78L416.38,112.29L416.84,110.81L417.29,109.32L417.73,107.83L418.16,106.34L418.62,104.86L419.06,103.37L419.51,101.88L419.06,103.37L418.62,104.86L418.16,106.34L417.73,107.83L417.29,109.32L416.84,110.81L416.38,112.29L415.94,113.78L415.49,115.27L415.05,116.75L416.54,116.75L418.02,116.75L419.51,116.75L421,116.75L426.95,116.75L428.44,116.75L429.93,116.75L430.22,115.27L430.82,113.78L432.01,115.27L432.31,116.75L432.60,118.24L432.60,119.73L432.01,121.22L431.41,122.70L430.22,124.19L428.44,125.68L430.22,124.19L431.41,122.70L432.01,121.22L432.60,119.73L432.60,118.24L432.31,116.75L432.01,115.27L430.82,113.78L432.01,115.27L432.31,116.75L434.39,116.75L440.34,116.75L441.82,116.75L443.31,116.75L444.8,116.75L446.29,116.75L447.77,116.75L449.26,116.75L450.75,116.75L452.24,116.75L458.19,116.75L461.53,116.75L461.53,116.76L454.74,106.54L447.45,96.66L439.69,87.16L431.47,78.05L422.82,69.35L413.74,61.09L404.28,53.28L394.44,45.95L384.25,39.11L373.74,32.77L362.94,26.96L351.86,21.69L340.53,16.97L328.99,12.81L317.25,9.22L305.36,6.21L293.33,3.78L281.19,1.95L268.99,0.72L256.73,0.09L244.46,0.06L232.20,0.63L219.99,1.81L207.85,3.58L195.81,5.94L183.90,8.90L172.15,12.43L160.58,16.54L149.24,21.21L138.13,26.43L127.29,32.18L123.96,34.10L130.27,39.37L147.48,55.27L163.90,72.00L179.48,89.51L194.17,107.77L207.96,126.73L220.80,146.33L228.24,158.75L229.56,158.75L231.05,158.75L232.53,158.75L234.02,158.75L235.51,158.75L237.00,158.75L238.48,158.75L244.43,158.75L245.92,158.75L247.41,158.75L248.90,158.75L250.38,158.75L249.95,157.27L249.49,155.78L249.05,154.29L248.60,152.81L248.16,151.32L247.71,149.83L247.27,148.34L246.81,146.86L246.38,145.37L245.92,143.88L246.38,145.37L246.81,146.86L247.27,148.34L247.71,149.83L248.16,151.32L248.60,152.81L249.05,154.29L249.49,155.78L249.95,157.27L250.38,158.75L250.82,157.27L251.28,155.78L251.73,154.29L252.17,152.81L252.62,151.32L253.06,149.83L253.50,148.34L253.95,146.86L254.41,145.37L254.85,143.88L255.28,145.37L255.74,146.86L256.18,148.34L256.63,149.83L257.09,151.32L257.52,152.81L257.96,154.29L258.42,155.78L258.87,157.27L259.31,158.75L259.75,157.27L260.20,155.78L260.64,154.29L261.09,152.81L261.55,151.32L261.99,149.83L262.42,148.34L262.88,146.86L263.32,145.37L263.77,143.88L263.32,145.37L262.88,146.86L262.42,148.34L261.99,149.83L261.55,151.32L261.09,152.81L260.64,154.29L260.20,155.78L259.75,157.27L259.31,158.75L260.80,158.75L262.28,158.75L263.77,158.75L265.26,158.75L271.21,158.75L272.70,158.75L272.70,157.27L272.70,155.78L272.70,154.29L272.70,152.81L272.70,151.32L272.70,149.83L272.70,148.34L272.70,146.86L272.70,145.37L272.70,143.88L272.70,145.37L272.70,142.39L272.70,141.66L272.70,142.39L272.70,145.37L273.89,144.93L275.67,144.48L276.86,144.04L278.05,143.88L279.24,144.04L280.43,144.48L281.62,145.37L280.43,144.48L279.24,144.04L278.05,143.88L276.86,144.04L275.67,144.48L273.89,144.93L272.70,145.37L272.70,146.86L272.70,148.34L272.70,149.83L272.70,151.32L272.70,152.81L272.70,154.29L272.70,155.78L272.70,157.27L272.70,158.75L274.18,158.75L275.67,158.75L277.16,158.75L278.65,158.75L280.13,158.75L281.62,158.75L283.11,158.75L289.06,158.75L290.55,158.75L290.55,157.27L290.55,155.78L290.55,154.29L290.55,152.81L290.55,151.32L290.55,149.83L290.55,148.34L290.55,146.86L290.55,145.37L290.55,143.88L290.55,145.37L290.55,146.86L290.55,148.34L290.55,149.83L290.55,151.32L290.55,152.81L290.55,154.29L290.55,155.78L290.55,157.27L290.55,158.75L292.03,158.75L297.98,158.75L299.47,158.75L300.96,158.75L302.45,158.75L303.93,158.75L304.53,158.75L304.53,157.27L304.53,155.78L304.53,154.29L304.53,152.81L304.53,151.32L304.53,149.83L304.53,148.34L304.53,146.86L304.53,145.37L304.53,143.88L304.53,142.39L304.53,140.90L304.53,139.42L304.53,138.68L304.53,137.19L303.34,137.19L302.15,137.19L300.96,137.19L298.74,137.19L300.96,137.19L302.15,137.19L303.34,137.19L304.53,137.19L305.72,137.19L306.91,137.19L308.10,137.19L310.34,137.19L308.10,137.19L306.91,137.19L305.72,137.19L304.53,137.19L304.53,135.71L304.53,134.22L304.53,132.73L304.53,131.25L304.53,132.73L304.53,134.22L304.53,135.71L304.53,137.19L304.53,138.68L304.53,139.42L304.53,140.90L304.53,142.39L304.53,143.88L304.53,145.37L304.53,146.86L304.53,148.34L304.53,149.83L304.53,151.32L304.53,152.81L304.53,154.29L304.53,155.78L304.53,157.27L304.53,158.75L306.02,158.75L307.50,158.75L309.59,158.75L311.37,158.75L317.32,158.75L318.81,158.75L320.30,158.75L321.78,158.75L323.27,158.75L323.87,158.75L323.87,157.27L323.87,155.78L323.87,154.29L323.87,152.81L323.87,151.32L323.87,149.83L323.87,148.34L323.87,146.86L323.87,145.37L323.87,143.88L323.87,142.39L323.87,140.90L323.87,139.42L323.87,138.68L323.87,137.19L322.68,137.19L321.49,137.19L320.30,137.19L318.07,137.19L320.30,137.19L321.49,137.19L322.68,137.19L323.87,137.19L325.06,137.19L326.25,137.19L327.44,137.19L329.68,137.19L327.44,137.19L326.25,137.19L325.06,137.19L323.87,137.19L323.87,135.71L323.87,134.22L323.87,132.73L323.87,131.25L323.87,132.73L323.87,134.22L323.87,135.71L323.87,137.19L323.87,138.68L323.87,139.42L323.87,140.90L323.87,142.39L323.87,143.88L323.87,145.37L323.87,146.86L323.87,148.34L323.87,149.83L323.87,151.32L323.87,152.81L323.87,154.29L323.87,155.78L323.87,157.27L323.87,158.75L325.35,158.75L326.84,158.75L328.92,158.75L330.71,158.75L336.66,158.75L338.15,158.75L339.63,158.75L341.12,158.75L343.20,158.75L342.61,158.62L341.72,158.16L340.82,157.27L340.23,156.67L339.63,155.78L338.90,154.29L338.44,152.81L338.30,151.32L339.79,151.32L341.12,151.32L342.47,151.32L343.80,151.32L344.99,151.32L345.72,151.32L347.07,151.32L348.40,151.32L349.75,151.32L349.31,149.83L349.01,148.34L348.26,146.86L347.67,145.96L347.07,145.37L346.18,144.48L345.29,144.04L344.39,143.88L343.20,143.88L342.61,144.04L341.72,144.48L340.82,145.37L340.23,145.96L339.63,146.86L338.90,148.34L338.44,149.83L338.44,152.81L338.90,154.29L339.63,155.78L340.23,156.67L340.82,157.27L341.72,158.16L342.61,158.62L344.39,158.75L345.58,158.75L346.77,158.75L347.96,158.75L349.15,158.75L350.94,158.75L356.89,158.75L358.38,158.75L358.38,157.27L358.38,155.78L358.38,154.29L358.38,152.81L358.38,151.32L358.38,149.83L358.38,148.34L358.38,146.86L358.38,145.37L359.57,144.93L361.35,144.48L362.54,144.18L363.73,144.18L364.92,144.48L366.71,144.93L367.60,145.37L367.90,146.86L367.90,148.34L367.90,149.83L367.90,151.32L367.90,152.81L367.90,154.29L367.90,155.78L367.90,157.27L367.90,158.75L369.38,158.75L375.33,158.75L376.82,158.75L378.31,158.75L379.80,158.75L381.28,158.75L382.77,158.75L384.26,158.75L385.75,158.75L387.23,158.75L393.18,158.75L394.67,158.75L396.16,158.75L397.65,158.75L399.13,158.75L400.62,158.75L402.11,158.75L403.60,158.75L404.49,158.75L405.08,158.62L405.98,158.16L406.87,157.27L407.46,156.67L408.06,155.78L408.65,154.29L409.25,152.81L409.55,151.32L409.25,149.83L408.65,148.34L408.06,146.86L407.46,145.96L406.87,145.37L405.98,144.48L405.08,144.04L404.49,143.88L403.30,143.88L402.11,143.88L400.92,143.88L399.73,143.88L399.13,144.04L398.24,144.48L397.35,145.37L396.75,145.96L396.16,146.86L395.56,148.34L394.97,149.83L394.67,151.32L394.97,152.81L395.56,154.29L396.16,155.78L396.75,156.67L397.35,157.27L398.24,158.16L399.13,158.62L399.73,158.75L400.62,158.75L402.11,158.75L403.60,158.75L405.08,158.75L406.57,158.75L408.06,158.75L409.55,158.75L411.03,158.75L416.98,158.75L418.47,158.75L418.47,157.27L418.47,155.78L418.47,154.29L418.47,152.81L418.47,151.32L418.47,149.83L418.47,148.34L418.47,146.86L418.47,145.37L419.66,144.93L421.45,144.48L422.64,144.18L423.83,144.18L425.02,144.48L426.80,144.93L427.69,145.37L427.99,146.86L427.99,148.34L427.99,149.83L427.99,151.32L427.99,152.81L427.99,154.29L427.99,155.78L427.99,157.27L427.99,158.75L429.48,158.75L435.43,158.75L436.92,158.75L438.40,158.75L438.70,157.27L439.30,155.78L440.49,157.27L440.78,158.75L441.08,160.24L441.08,161.73L440.49,163.22L439.89,164.70L438.70,166.19L436.92,167.68L438.70,166.19L439.89,164.70L440.49,163.22L441.08,161.73L441.08,160.24L440.78,158.75L440.49,157.27L439.30,155.78L440.49,157.27L440.78,158.75L442.87,158.75L448.82,158.75L450.30,158.75L451.79,158.75L453.28,158.75L454.77,158.75L456.25,158.75L457.74,158.75L459.23,158.75L460.72,158.75L466.67,158.75L482.75,158.75L482.75,158.76L478.00,147.44L472.69,136.38L466.85,125.59L460.48,115.10L453.61,104.93L446.24,95.12L438.41,85.68L430.12,76.63L421.39,68.00L412.26,59.81L402.73,52.08L392.83,44.82L382.60,38.06L372.04,31.81L361.18,26.08L350.06,20.90L338.70,16.26L327.12,12.19L315.36,8.70L303.44,5.78L291.40,3.45L279.25,1.72L267.03,0.58L254.77,0.05L242.50,0.11L230.25,0.78L218.04,2.05L205.92,3.92L193.89,6.38L182.01,9.42L170.29,13.05L158.76,17.25L147.44,22.00L136.38,27.31L125.59,33.15L123.96,34.10L129.98,39.13L147.21,55.01L163.64,71.73L179.23,89.23L193.94,107.47L207.74,126.42L220.60,146.01L232.47,166.22L243.34,186.98L249.86,200.75L255.44,200.75L256.93,200.75L258.42,200.75L259.90,200.75L261.39,200.75L262.88,200.75L264.37,200.75L265.85,200.75L267.34,200.75L273.29,200.75L274.78,200.75L274.78,199.27L274.78,197.78L274.78,196.29L274.78,194.81L274.78,193.32L274.78,191.83L274.78,190.34L274.78,188.86L274.78,187.37L274.78,185.88L274.78,187.37L274.78,184.39L274.78,183.66L274.78,184.39L274.78,187.37L275.97,186.93L277.75,186.48L278.94,186.04L280.13,185.88L281.32,186.04L282.51,186.48L283.70,187.37L282.51,186.48L281.32,186.04L280.13,185.88L278.94,186.04L277.75,186.48L275.97,186.93L274.78,187.37L274.78,188.86L274.78,190.34L274.78,191.83L274.78,193.32L274.78,194.81L274.78,196.29L274.78,197.78L274.78,199.27L274.78,200.75L276.27,200.75L277.75,200.75L279.24,200.75L280.73,200.75L282.22,200.75L283.70,200.75L285.19,200.75L291.14,200.75L292.63,200.75L294.12,200.75L295.60,200.75L297.69,200.75L297.09,200.62L296.20,200.16L295.31,199.27L294.71,198.67L294.12,197.78L293.38,196.29L292.93,194.81L292.79,193.32L294.27,193.32L295.60,193.32L296.95,193.32L298.28,193.32L299.47,193.32L300.21,193.32L301.55,193.32L302.88,193.32L304.23,193.32L303.79,191.83L303.50,190.34L302.74,188.86L302.15,187.96L301.55,187.37L300.66,186.48L299.77,186.04L298.88,185.88L297.69,185.88L297.09,186.04L296.20,186.48L295.31,187.37L294.71,187.96L294.12,188.86L293.38,190.34L292.93,191.83L292.93,194.81L293.38,196.29L294.12,197.78L294.71,198.67L295.31,199.27L296.20,200.16L297.09,200.62L298.88,200.75L300.07,200.75L301.26,200.75L302.45,200.75L303.64,200.75L305.42,200.75L311.37,200.75L312.86,200.75L314.35,200.75L315.83,200.75L317.32,200.75L316.88,199.27L316.43,197.78L315.99,196.29L315.54,194.81L315.10,193.32L314.64,191.83L314.21,190.34L313.75,188.86L313.31,187.37L312.86,185.88L313.31,187.37L313.75,188.86L314.21,190.34L314.64,191.83L315.10,193.32L315.54,194.81L315.99,196.29L316.43,197.78L316.88,199.27L317.32,200.75L317.76,199.27L318.21,197.78L318.67,196.29L319.11,194.81L319.56,193.32L320.00,191.83L320.44,190.34L320.89,188.86L321.35,187.37L321.78,185.88L322.22,187.37L322.68,188.86L323.11,190.34L323.57,191.83L324.02,193.32L324.46,194.81L324.90,196.29L325.35,197.78L325.81,199.27L326.25,200.75L326.68,199.27L327.14,197.78L327.58,196.29L328.03,194.81L328.49,193.32L328.92,191.83L329.36,190.34L329.82,188.86L330.25,187.37L330.71,185.88L330.25,187.37L329.82,188.86L329.36,190.34L328.92,191.83L328.49,193.32L328.03,194.81L327.58,196.29L327.14,197.78L326.68,199.27L326.25,200.75L327.73,200.75L329.22,200.75L330.71,200.75L332.20,200.75L338.15,200.75L339.63,200.75L339.63,199.27L339.63,197.78L339.63,196.29L339.63,194.81L339.63,193.32L339.63,191.83L339.63,190.34L339.63,188.86L339.63,187.37L339.63,185.88L339.63,187.37L339.63,184.39L339.63,183.66L339.63,184.39L339.63,187.37L340.82,186.93L342.61,186.48L343.80,186.04L344.99,185.88L346.18,186.04L347.37,186.48L348.56,187.37L347.37,186.48L346.18,186.04L344.99,185.88L343.80,186.04L342.61,186.48L340.82,186.93L339.63,187.37L339.63,188.86L339.63,190.34L339.63,191.83L339.63,193.32L339.63,194.81L339.63,196.29L339.63,197.78L339.63,199.27L339.63,200.75L341.12,200.75L342.61,200.75L344.10,200.75L345.58,200.75L347.07,200.75L348.56,200.75L350.05,200.75L356.00,200.75L357.48,200.75L357.48,199.27L357.48,197.78L357.48,196.29L357.48,194.81L357.48,193.32L357.48,191.83L357.48,190.34L357.48,188.86L357.48,187.37L357.48,185.88L357.48,187.37L357.48,188.86L357.48,190.34L357.48,191.83L357.48,193.32L357.48,194.81L357.48,196.29L357.48,197.78L357.48,199.27L357.48,200.75L358.97,200.75L364.92,200.75L366.41,200.75L367.90,200.75L369.38,200.75L370.87,200.75L371.47,200.75L371.47,199.27L371.47,197.78L371.47,196.29L371.47,194.81L371.47,193.32L371.47,191.83L371.47,190.34L371.47,188.86L371.47,187.37L371.47,185.88L371.47,184.39L371.47,182.90L371.47,181.42L371.47,180.68L371.47,179.19L370.28,179.19L369.09,179.19L367.90,179.19L365.67,179.19L367.90,179.19L369.09,179.19L370.28,179.19L371.47,179.19L372.66,179.19L373.85,179.19L375.04,179.19L377.28,179.19L375.04,179.19L373.85,179.19L372.66,179.19L371.47,179.19L371.47,177.71L371.47,176.22L371.47,174.73L371.47,173.25L371.47,174.73L371.47,176.22L371.47,177.71L371.47,179.19L371.47,180.68L371.47,181.42L371.47,182.90L371.47,184.39L371.47,185.88L371.47,187.37L371.47,188.86L371.47,190.34L371.47,191.83L371.47,193.32L371.47,194.81L371.47,196.29L371.47,197.78L371.47,199.27L371.47,200.75L372.95,200.75L374.44,200.75L376.52,200.75L378.31,200.75L384.26,200.75L385.75,200.75L387.23,200.75L388.72,200.75L390.21,200.75L390.80,200.75L390.80,199.27L390.80,197.78L390.80,196.29L390.80,194.81L390.80,193.32L390.80,191.83L390.80,190.34L390.80,188.86L390.80,187.37L390.80,185.88L390.80,184.39L390.80,182.90L390.80,181.42L390.80,180.68L390.80,179.19L389.61,179.19L388.42,179.19L387.23,179.19L385.01,179.19L387.23,179.19L388.42,179.19L389.61,179.19L390.80,179.19L391.99,179.19L393.18,179.19L394.37,179.19L396.61,179.19L394.37,179.19L393.18,179.19L391.99,179.19L390.80,179.19L390.80,177.71L390.80,176.22L390.80,174.73L390.80,173.25L390.80,174.73L390.80,176.22L390.80,177.71L390.80,179.19L390.80,180.68L390.80,181.42L390.80,182.90L390.80,184.39L390.80,185.88L390.80,187.37L390.80,188.86L390.80,190.34L390.80,191.83L390.80,193.32L390.80,194.81L390.80,196.29L390.80,197.78L390.80,199.27L390.80,200.75L392.29,200.75L393.78,200.75L395.86,200.75L397.65,200.75L403.60,200.75L405.08,200.75L406.57,200.75L408.06,200.75L410.14,200.75L409.55,200.62L408.65,200.16L407.76,199.27L407.17,198.67L406.57,197.78L405.84,196.29L405.38,194.81L405.24,193.32L406.73,193.32L408.06,193.32L409.41,193.32L410.74,193.32L411.93,193.32L412.66,193.32L414.01,193.32L415.34,193.32L416.69,193.32L416.25,191.83L415.95,190.34L415.20,188.86L414.60,187.96L414.01,187.37L413.12,186.48L412.22,186.04L411.33,185.88L410.14,185.88L409.55,186.04L408.65,186.48L407.76,187.37L407.17,187.96L406.57,188.86L405.84,190.34L405.38,191.83L405.38,194.81L405.84,196.29L406.57,197.78L407.17,198.67L407.76,199.27L408.65,200.16L409.55,200.62L411.33,200.75L412.52,200.75L413.71,200.75L414.90,200.75L416.09,200.75L417.88,200.75L423.83,200.75L425.31,200.75L425.31,199.27L425.31,197.78L425.31,196.29L425.31,194.81L425.31,193.32L425.31,191.83L425.31,190.34L425.31,188.86L425.31,187.37L426.50,186.93L428.29,186.48L429.48,186.18L430.67,186.18L431.86,186.48L433.64,186.93L434.54,187.37L434.83,188.86L434.83,190.34L434.83,191.83L434.83,193.32L434.83,194.81L434.83,196.29L434.83,197.78L434.83,199.27L434.83,200.75L436.32,200.75L442.27,200.75L443.76,200.75L445.25,200.75L445.54,199.27L446.14,197.78L447.33,199.27L447.63,200.75L447.92,202.24L447.92,203.73L447.33,205.22L446.73,206.70L445.54,208.19L443.76,209.68L445.54,208.19L446.73,206.70L447.33,205.22L447.92,203.73L447.92,202.24L447.63,200.75L447.33,199.27L446.14,197.78L447.33,199.27L447.63,200.75L449.71,200.75L455.66,200.75L457.15,200.75L458.63,200.75L460.12,200.75L461.61,200.75L463.10,200.75L464.58,200.75L466.07,200.75L467.56,200.75L473.51,200.75L495.10,200.75L495.10,200.76L492.39,188.79L489.09,176.97L485.22,165.32L480.79,153.88L475.79,142.68L470.25,131.73L464.18,121.06L457.60,110.71L450.51,100.69L442.95,91.03L434.91,81.75L426.44,72.88L417.53,64.44L408.23,56.44L398.54,48.91L388.49,41.87L378.11,35.32L367.42,29.29L356.45,23.80L345.23,18.85L333.77,14.45L322.11,10.63L310.28,7.38L298.30,4.71L286.21,2.64L274.02,1.16L261.79,0.28L249.52,0.00L237.25,0.33L225.02,1.25L212.84,2.78L200.76,4.90L188.79,7.61L176.97,10.91L165.32,14.78L153.88,19.21L142.68,24.21L131.73,29.75L123.95,34.10L131.23,40.22L148.41,56.17L164.78,72.94L180.31,90.50L194.95,108.79L208.69,127.78L221.47,147.43L233.28,167.67L244.07,188.47L253.84,209.78L262.55,231.54L266.56,242.75L266.60,242.75L268.08,242.75L269.57,242.75L271.06,242.75L277.01,242.75L278.50,242.75L279.99,242.75L281.47,242.75L282.96,242.75L284.45,242.75L285.94,242.75L287.42,242.75L288.91,242.75L294.86,242.75L296.35,242.75L297.83,242.75L299.32,242.75L300.81,242.75L302.30,242.75L303.78,242.75L304.68,242.75L305.27,242.62L306.17,242.16L307.06,241.27L307.65,240.67L308.25,239.78L308.09,238.89L307.65,238.29L306.46,237.56L305.27,236.81L303.78,236.07L302.30,235.32L300.81,234.58L299.32,233.83L298.13,233.10L296.94,232.34L296.64,231.01L296.94,229.96L297.54,229.37L298.43,228.48L299.32,228.04L299.92,227.88L301.11,227.88L302.30,227.88L303.49,227.88L304.68,227.88L305.27,228.04L306.17,228.48L307.06,229.37L307.65,229.96L307.06,229.37L306.17,228.48L305.27,228.04L304.68,227.88L303.49,227.88L302.30,227.88L301.11,227.88L299.92,227.88L299.32,228.04L298.43,228.48L297.54,229.37L296.94,229.96L296.64,231.01L296.94,232.34L298.13,233.10L299.32,233.83L300.81,234.58L302.30,235.32L303.78,236.07L305.27,236.81L306.46,237.56L307.65,238.29L308.09,238.89L308.25,239.78L307.65,240.67L307.06,241.27L306.17,242.16L305.27,242.62L304.68,242.75L303.78,242.75L302.30,242.75L300.81,242.75L299.92,242.75L299.32,242.62L298.43,242.16L297.54,241.27L296.94,240.67L295.91,239.78L296.94,240.67L297.54,241.27L298.43,242.16L299.32,242.62L299.92,242.75L300.81,242.75L302.30,242.75L303.78,242.75L305.27,242.75L306.76,242.75L308.25,242.75L309.74,242.75L315.69,242.75L317.17,242.75L317.17,241.27L317.17,239.78L317.17,238.29L317.17,236.81L317.17,235.32L317.17,233.83L317.17,232.34L317.17,230.86L317.17,229.37L318.36,228.93L320.15,228.48L321.34,228.18L322.53,228.18L323.72,228.48L325.50,228.93L326.39,229.37L326.69,230.86L326.69,232.34L326.69,233.83L326.69,235.32L326.69,236.81L326.69,238.29L326.69,239.78L326.69,241.27L326.69,243.14L326.69,241.27L326.69,239.78L326.69,238.29L326.69,236.81L326.69,235.32L326.69,233.83L326.69,232.34L326.69,230.86L326.99,229.37L327.88,228.93L329.67,228.48L330.86,228.18L332.05,228.18L333.24,228.48L335.02,228.93L335.92,229.37L336.21,230.86L336.21,232.34L336.21,233.83L336.21,235.32L336.21,236.81L336.21,238.29L336.21,239.78L336.21,241.27L336.21,242.75L337.7,242.75L343.65,242.75L345.14,242.75L346.63,242.75L348.11,242.75L349.6,242.75L351.09,242.75L352.57,242.75L354.06,242.75L354.95,242.75L355.55,242.62L356.44,242.16L357.33,241.27L357.93,240.67L358.52,239.78L359.12,238.29L359.72,236.81L360.01,235.32L359.72,233.83L359.12,232.34L358.52,230.86L357.93,229.96L357.33,229.37L356.44,228.48L355.55,228.04L354.95,227.88L353.76,227.88L352.57,227.88L351.38,227.88L350.19,227.88L349.6,228.04L348.71,228.48L347.81,229.37L347.22,229.96L346.63,230.86L346.03,232.34L345.44,233.83L345.14,235.32L345.44,236.81L346.03,238.29L346.63,239.78L347.22,240.67L347.81,241.27L348.71,242.16L349.6,242.62L350.19,242.75L351.09,242.75L352.57,242.75L354.06,242.75L355.55,242.75L357.04,242.75L358.52,242.75L360.01,242.75L361.5,242.75L367.45,242.75L368.94,242.75L370.43,242.75L371.91,242.75L373.4,242.75L374.89,242.75L376.38,242.75L377.86,242.75L378.75,242.75L379.35,242.62L380.24,242.16L381.13,241.27L381.73,240.67L382.32,239.78L382.92,238.29L383.51,236.81L383.81,235.32L383.51,233.83L382.92,232.34L382.32,230.86L381.73,229.96L381.13,229.37L380.24,228.48L379.35,228.04L378.75,227.88L377.56,227.88L376.38,227.88L375.19,227.88L374.00,227.88L373.4,228.04L372.51,228.48L371.62,229.37L371.02,229.96L370.43,230.86L369.83,232.34L369.24,233.83L368.94,235.32L369.24,236.81L369.83,238.29L370.43,239.78L371.02,240.67L371.62,241.27L372.51,242.16L373.4,242.62L374.00,242.75L374.89,242.75L376.38,242.75L377.86,242.75L379.35,242.75L380.84,242.75L382.32,242.75L383.81,242.75L385.3,242.75L391.25,242.75L392.74,242.75L394.23,242.75L395.71,242.75L397.2,242.75L397.79,242.75L397.79,241.27L397.79,239.78L397.79,238.29L397.79,236.81L397.79,235.32L397.79,233.83L397.79,232.34L397.79,230.86L397.79,229.37L397.79,227.88L397.79,226.39L397.79,224.90L397.79,223.42L397.79,222.68L397.79,221.19L396.61,221.19L395.41,221.19L394.23,221.19L392.00,221.19L394.23,221.19L395.41,221.19L396.61,221.19L397.79,221.19L398.99,221.19L400.18,221.19L401.37,221.19L403.61,221.19L401.37,221.19L400.18,221.19L398.99,221.19L397.79,221.19L397.79,219.71L397.79,218.22L397.79,216.73L397.79,215.25L397.79,216.73L397.79,218.22L397.79,219.71L397.79,221.19L397.79,222.68L397.79,223.42L397.79,224.90L397.79,226.39L397.79,227.88L397.79,229.37L397.79,230.86L397.79,232.34L397.79,233.83L397.79,235.32L397.79,236.81L397.79,238.29L397.79,239.78L397.79,241.27L397.79,242.75L399.28,242.75L400.77,242.75L402.85,242.75L404.64,242.75L410.59,242.75L412.07,242.75L412.07,241.27L412.07,239.78L412.07,238.29L412.07,236.81L412.07,235.32L412.07,233.83L412.07,232.34L412.07,230.86L412.07,229.37L412.07,227.88L412.07,226.39L412.07,224.90L412.07,223.42L412.07,221.93L412.07,220.44L412.07,218.95L412.07,217.47L412.07,215.98L412.07,215.25L412.07,217.47L412.07,218.95L412.07,220.44L412.07,221.93L412.07,223.42L412.07,224.90L412.07,226.39L412.07,227.88L412.07,230.86L412.37,230.12L413.26,229.52L414.75,228.63L416.24,227.88L418.02,227.88L419.51,228.63L421,229.52L421.89,230.12L422.19,230.86L422.19,232.34L422.19,233.83L422.19,235.32L422.19,236.81L422.19,238.29L422.19,239.78L422.19,241.27L422.19,242.75L423.68,242.75L429.63,242.75L431.12,242.75L432.60,242.75L434.09,242.75L436.17,242.75L435.58,242.62L434.69,242.16L433.79,241.27L433.20,240.67L432.60,239.78L431.87,238.29L431.41,236.81L431.27,235.32L432.76,235.32L434.09,235.32L435.44,235.32L436.77,235.32L437.96,235.32L438.69,235.32L440.04,235.32L441.37,235.32L442.72,235.32L442.28,233.83L441.98,232.34L441.23,230.86L440.63,229.96L440.04,229.37L439.15,228.48L438.25,228.04L437.36,227.88L436.17,227.88L435.58,228.04L434.69,228.48L433.79,229.37L433.20,229.96L432.60,230.86L431.87,232.34L431.41,233.83L431.41,236.81L431.87,238.29L432.60,239.78L433.20,240.67L433.79,241.27L434.69,242.16L435.58,242.62L437.36,242.75L438.55,242.75L439.74,242.75L440.93,242.75L442.12,242.75L443.91,242.75L449.86,242.75L451.35,242.75L452.83,242.75L454.32,242.75L456.40,242.75L457.59,242.75L458.78,242.75L459.97,242.75L461.16,242.75L462.35,242.75L462.35,241.27L462.35,239.78L462.35,238.29L462.35,236.81L462.35,235.32L462.35,233.83L462.35,232.34L462.35,230.86L462.35,229.37L462.35,227.88L462.35,226.39L462.35,224.90L462.35,223.42L462.35,221.93L462.35,220.44L462.35,218.95L462.35,217.47L462.35,215.98L462.35,215.25L462.35,215.98L462.35,217.47L462.35,218.95L462.35,220.44L462.35,221.93L462.35,223.42L462.35,224.90L462.35,226.39L462.35,227.88L461.16,227.88L459.97,227.88L458.78,227.88L457.59,227.88L456.40,227.88L455.81,228.04L454.91,228.48L454.02,229.37L453.43,229.96L452.83,230.86L452.24,232.34L451.64,233.83L451.35,235.32L451.64,236.81L452.24,238.29L452.83,239.78L453.43,240.67L454.02,241.27L454.91,242.16L455.81,242.62L456.40,242.75L457.59,242.75L458.78,242.75L459.97,242.75L461.16,242.75L462.35,242.75L463.84,242.75L469.79,242.75L471.28,242.75L472.76,242.75L474.25,242.75L475.74,242.75L477.23,242.75L478.72,242.75L480.20,242.75L481.69,242.75L487.64,242.75L499.89,242.75L499.89,242.76L499.24,230.50L497.98,218.30L496.13,206.17L493.68,194.14L490.65,182.25L487.03,170.53L482.85,158.99L478.10,147.68L472.80,136.61L466.97,125.81L460.62,115.31L453.75,105.14L446.40,95.32L438.58,85.87L430.29,76.81L421.58,68.17L412.45,59.97L402.93,52.23L393.04,44.97L382.81,38.19L372.26,31.93L361.41,26.20L350.29,21.00L338.94,16.35L327.37,12.27L315.61,8.76L303.69,5.83L291.65,3.49L279.50,1.75L267.28,0.60L255.03,0.05L242.76,0.11L230.50,0.76L218.30,2.02L206.17,3.87L194.14,6.32L182.25,9.35L170.53,12.97L158.99,17.15L147.68,21.90L136.61,27.20L125.81,33.03L123.95,34.10L133.54,42.28L150.61,58.34L166.88,75.22L182.29,92.87L196.82,111.26L210.43,130.34L223.09,150.07L234.76,170.39L245.42,191.26L255.05,212.63L263.62,234.44L271.1,256.65L277.49,279.20L278.88,284.75L279.24,284.75L280.73,284.75L286.68,284.75L288.17,284.75L289.65,284.75L291.14,284.75L292.63,284.75L294.12,284.75L295.60,284.75L297.09,284.75L298.58,284.75L304.53,284.75L306.02,284.75L307.50,284.75L308.99,284.75L310.48,284.75L311.97,284.75L313.45,284.75L314.94,284.75L315.83,284.75L316.43,284.62L317.32,284.16L318.21,283.27L318.81,282.67L319.40,281.78L320.00,280.29L320.59,278.81L320.89,277.32L320.59,275.83L320.00,274.34L319.40,272.86L318.81,271.96L318.21,271.37L317.32,270.48L316.43,270.04L315.83,269.88L314.64,269.88L313.45,269.88L312.26,269.88L311.07,269.88L310.48,270.04L309.59,270.48L308.69,271.37L308.10,271.96L307.50,272.86L306.91,274.34L306.31,275.83L306.02,277.32L306.31,278.81L306.91,280.29L307.50,281.78L308.10,282.67L308.69,283.27L309.59,284.16L310.48,284.62L311.07,284.75L311.97,284.75L313.45,284.75L314.94,284.75L316.43,284.75L317.92,284.75L319.40,284.75L320.89,284.75L322.38,284.75L328.33,284.75L329.82,284.75L331.30,284.75L332.79,284.75L334.28,284.75L336.52,284.75L335.84,283.27L335.17,281.78L334.51,280.29L333.84,278.81L333.16,277.32L332.49,275.83L331.83,274.34L331.16,272.86L330.48,271.37L329.82,269.88L330.48,271.37L331.16,272.86L331.83,274.34L332.49,275.83L333.16,277.32L333.84,278.81L334.51,280.29L335.17,281.78L335.84,283.27L336.52,284.75L337.18,283.27L337.85,281.78L338.51,280.29L339.18,278.81L339.86,277.32L340.53,275.83L341.19,274.34L341.86,272.86L342.54,271.37L343.20,269.88L342.54,271.37L341.86,272.86L341.19,274.34L340.53,275.83L339.86,277.32L339.18,278.81L338.51,280.29L337.85,281.78L337.18,283.27L336.52,284.75L337.99,284.75L339.93,284.75L341.72,284.75L343.20,284.75L344.69,284.75L350.64,284.75L352.13,284.75L353.62,284.75L355.10,284.75L357.19,284.75L356.59,284.62L355.70,284.16L354.81,283.27L354.21,282.67L353.62,281.78L352.88,280.29L352.43,278.81L352.29,277.32L353.77,277.32L355.10,277.32L356.45,277.32L357.78,277.32L358.97,277.32L359.71,277.32L361.05,277.32L362.38,277.32L363.73,277.32L363.29,275.83L363.00,274.34L362.24,272.86L361.65,271.96L361.05,271.37L360.16,270.48L359.27,270.04L358.38,269.88L357.19,269.88L356.59,270.04L355.70,270.48L354.81,271.37L354.21,271.96L353.62,272.86L352.88,274.34L352.43,275.83L352.43,278.81L352.88,280.29L353.62,281.78L354.21,282.67L354.81,283.27L355.70,284.16L356.59,284.62L358.38,284.75L359.57,284.75L360.76,284.75L361.95,284.75L363.14,284.75L364.92,284.75L370.87,284.75L372.36,284.75L372.36,283.27L372.36,281.78L372.36,280.29L372.36,278.81L372.36,277.32L372.36,275.83L372.36,274.34L372.36,272.86L372.36,271.37L372.36,269.88L372.36,271.37L372.36,268.39L372.36,267.66L372.36,268.39L372.36,271.37L373.55,270.93L375.33,270.48L376.52,270.04L377.71,269.88L378.90,270.04L380.09,270.48L381.28,271.37L380.09,270.48L378.90,270.04L377.71,269.88L376.52,270.04L375.33,270.48L373.55,270.93L372.36,271.37L372.36,272.86L372.36,274.34L372.36,275.83L372.36,277.32L372.36,278.81L372.36,280.29L372.36,281.78L372.36,283.27L372.36,284.75L373.85,284.75L375.33,284.75L376.82,284.75L378.31,284.75L379.80,284.75L381.28,284.75L382.77,284.75L388.72,284.75L390.21,284.75L391.70,284.75L393.18,284.75L394.67,284.75L396.16,284.75L397.65,284.75L399.13,284.75L400.62,284.75L406.57,284.75L494,283L494,283L494,283L494,282L497.88,282.51L497.88,282.51L495.98,294.63L493.50,306.65L490.42,318.53L486.77,330.24L482.55,341.76L477.77,353.06L472.44,364.12L466.57,374.89L460.18,385.37L453.28,395.52L445.90,405.32L441.15,411.13L441,411L441,411L441,410L441.64,410.54L441.64,410.54L433.54,419.75L424.98,428.55L416.01,436.92L406.64,444.84L396.89,452.29L386.79,459.26L376.36,465.72L365.62,471.66L354.60,477.06L343.34,481.92L331.84,486.22L320.15,489.95L308.30,493.11L296.30,495.68L284.19,497.65L282.57,497.87L282.39,496.54L282.39,496.54L286.59,472.37L289.59,448.01L291.40,423.53L292,399L291.40,374.47L289.59,349.99L290.25,351.75L290.25,351.75L291.49,351.75L292.98,351.75L294.46,351.75L295.95,351.75L297.44,351.75L298.93,351.75L300.41,351.75L306.36,351.75L307.85,351.75L308.45,349.01L309.04,346.26L309.64,343.51L310.23,340.75L310.83,338L311.42,335.25L312.02,332.50L312.61,329.74L313.21,326.99L313.80,324.25L314.40,326.99L314.99,329.74L315.59,332.50L316.18,335.25L316.78,338L317.37,340.75L317.97,343.51L318.56,346.26L319.16,349.01L319.75,351.75L320.35,349.01L320.94,346.26L321.54,343.51L322.13,340.75L322.73,338L323.32,335.25L323.92,332.50L324.51,329.74L325.11,326.99L325.70,324.25L326.30,326.99L326.89,329.74L327.49,332.50L328.08,335.25L328.68,338L329.27,340.75L329.87,343.51L330.46,346.26L331.06,349.01L331.65,351.75L333.14,351.75L339.09,351.75L340.28,351.75L341.77,351.75L343.25,351.75L345.63,351.75L346.82,351.75L348.01,351.75L349.20,351.75L350.39,351.75L350.39,350.27L350.39,348.78L350.39,347.29L350.39,345.81L350.39,344.32L350.39,342.83L350.39,341.34L350.39,339.86L350.39,338.37L350.39,336.88L349.20,336.88L348.01,336.88L346.82,336.88L345.63,336.88L345.04,337.04L344.15,337.48L343.25,338.37L342.66,338.96L342.06,339.86L341.47,341.34L340.87,342.83L340.58,344.32L340.87,345.81L341.47,347.29L342.06,348.78L342.66,349.67L343.25,350.27L344.15,351.16L345.04,351.62L345.63,351.75L346.82,351.75L348.01,351.75L349.20,351.75L351.88,351.75L357.83,351.75L359.32,351.75L359.32,350.27L359.32,348.78L359.32,347.29L359.32,345.81L359.32,344.32L359.32,342.83L359.32,341.34L359.32,339.86L359.32,338.37L359.32,336.88L359.32,338.37L359.32,335.39L359.32,334.66L359.32,335.39L359.32,338.37L360.51,337.93L362.29,337.48L363.48,337.04L364.67,336.88L365.86,337.04L367.05,337.48L368.24,338.37L367.05,337.48L365.86,337.04L364.67,336.88L363.48,337.04L362.29,337.48L360.51,337.93L359.32,338.37L359.32,339.86L359.32,341.34L359.32,342.83L359.32,344.32L359.32,345.81L359.32,347.29L359.32,348.78L359.32,350.27L359.32,351.75L360.81,351.75L362.29,351.75L363.78,351.75L365.27,351.75L366.76,351.75L368.24,351.75L369.73,351.75L375.68,351.75L377.17,351.75L378.66,351.75L380.14,351.75L381.63,351.75L383.42,351.75L384.61,351.75L385.80,351.75L386.99,351.75L386.99,353.24L386.99,354.73L386.99,356.22L386.99,357.70L386.69,359.94L386.23,361.43L385.50,362.92L384.90,363.81L384.31,364.41L383.42,365.3L382.52,365.74L381.93,365.89L380.74,365.89L379.55,365.89L378.36,365.89L379.55,365.89L380.74,365.89L381.93,365.89L382.52,365.74L383.42,365.3L384.31,364.41L384.90,363.81L385.50,362.92L386.23,361.43L386.69,359.94L386.99,357.70L386.99,356.22L386.99,354.73L386.99,353.24L386.99,351.75L386.99,350.27L386.99,348.78L386.99,347.29L386.99,345.81L386.99,344.32L386.99,342.83L386.99,341.34L386.99,339.86L386.99,338.37L386.99,336.88L385.80,336.88L384.61,336.88L383.42,336.88L382.23,336.88L381.63,337.04L380.74,337.48L379.85,338.37L379.25,338.96L378.66,339.86L378.06,341.34L377.47,342.83L377.17,344.32L377.47,345.81L378.06,347.29L378.66,348.78L379.25,349.67L379.85,350.27L380.74,351.16L381.63,351.62L382.23,351.75L383.42,351.75L384.61,351.75L385.80,351.75L388.18,351.75L394.13,351.75L395.32,351.75L396.80,351.75L398.29,351.75L400.67,351.75L401.86,351.75L403.05,351.75L404.24,351.75L405.43,351.75L405.43,350.27L405.43,348.78L405.43,347.29L405.43,345.81L405.43,344.32L405.43,342.83L405.43,341.34L405.43,339.86L405.43,338.37L405.43,336.88L404.24,336.88L403.05,336.88L401.86,336.88L400.67,336.88L400.08,337.04L399.18,337.48L398.29,338.37L397.70,338.96L397.10,339.86L396.51,341.34L395.91,342.83L395.61,344.32L395.91,345.81L396.51,347.29L397.10,348.78L397.70,349.67L398.29,350.27L399.18,351.16L400.08,351.62L400.67,351.75L401.86,351.75L403.05,351.75L404.24,351.75L406.92,351.75L412.87,351.75L414.36,351.75L414.36,350.27L414.36,348.78L414.36,347.29L414.36,345.81L414.36,344.32L414.36,342.83L414.36,341.34L414.36,339.86L414.36,338.37L414.36,336.88L414.36,338.37L414.36,335.39L414.36,334.66L414.36,335.39L414.36,338.37L415.55,337.93L417.33,337.48L418.52,337.04L419.71,336.88L420.90,337.04L422.09,337.48L423.28,338.37L422.09,337.48L420.90,337.04L419.71,336.88L418.52,337.04L417.33,337.48L415.55,337.93L414.36,338.37L414.36,339.86L414.36,341.34L414.36,342.83L414.36,344.32L414.36,345.81L414.36,347.29L414.36,348.78L414.36,350.27L414.36,351.75L415.84,351.75L417.33,351.75L418.82,351.75L420.31,351.75L421.79,351.75L423.28,351.75L424.77,351.75L430.72,351.75L432.21,351.75L433.69,351.75L435.18,351.75L437.26,351.75L436.67,351.62L435.78,351.16L434.88,350.27L434.29,349.67L433.69,348.78L432.96,347.29L432.50,345.81L432.36,344.32L433.85,344.32L435.18,344.32L436.53,344.32L437.86,344.32L439.05,344.32L439.78,344.32L441.13,344.32L442.46,344.32L443.81,344.32L443.37,342.83L443.07,341.34L442.32,339.86L441.73,338.96L441.13,338.37L440.24,337.48L439.35,337.04L438.45,336.88L437.26,336.88L436.67,337.04L435.78,337.48L434.88,338.37L434.29,338.96L433.69,339.86L432.96,341.34L432.50,342.83L432.50,345.81L432.96,347.29L433.69,348.78L434.29,349.67L434.88,350.27L435.78,351.16L436.67,351.62L438.45,351.75L439.64,351.75L440.83,351.75L442.02,351.75L443.21,351.75L445.00,351.75L450.95,351.75L452.44,351.75L453.92,351.75L455.41,351.75L456.90,351.75L457.49,351.75L457.49,350.27L457.49,348.78L457.49,347.29L457.49,345.81L457.49,344.32L457.49,342.83L457.49,341.34L457.49,339.86L457.49,338.37L457.49,336.88L457.49,335.39L457.49,333.90L457.49,332.42L457.49,331.68L457.49,330.19L456.30,330.19L455.11,330.19L453.92,330.19L451.70,330.19L453.92,330.19L455.11,330.19L456.30,330.19L457.49,330.19L458.68,330.19L459.87,330.19L461.06,330.19L463.30,330.19L461.06,330.19L459.87,330.19L458.68,330.19L457.49,330.19L457.49,328.71L457.49,327.22L457.49,325.73L457.49,324.25L457.49,325.73L457.49,327.22L457.49,328.71L457.49,330.19L457.49,331.68L457.49,332.42L457.49,333.90L457.49,335.39L457.49,336.88L457.49,338.37L457.49,339.86L457.49,341.34L457.49,342.83L457.49,344.32L457.49,345.81L457.49,347.29L457.49,348.78L457.49,350.27L457.49,351.75L458.98,351.75L460.47,351.75L462.55,351.75L464.34,351.75L470.29,351.75L478.36,351.75L478.35,351.75L483.07,340.43L487.23,328.88L490.81,317.15L493.82,305.25L496.24,293.22L498.06,281.09L499.29,268.88L499.91,256.62L499.94,244.35L499.36,232.09L498.18,219.88L496.40,207.74L494.03,195.70L491.07,183.79L487.53,172.04L483.42,160.48L478.75,149.13L473.52,138.03L467.76,127.20L461.47,116.66L454.68,106.45L447.39,96.58L439.62,87.08L431.40,77.97L422.74,69.27L413.66,61.02L404.19,53.21L394.35,45.88L384.16,39.05L373.65,32.72L362.84,26.91L351.75,21.65L340.43,16.93L328.88,12.77L317.15,9.19L305.25,6.18L293.22,3.76L281.09,1.94L268.88,0.71L256.62,0.09L244.35,0.06L232.09,0.64L219.88,1.82L207.74,3.60L195.70,5.97L183.79,8.93L172.04,12.47L160.48,16.58L149.13,21.25L138.03,26.48L127.20,32.24L124.01,34.07L138.80,47.06L155.63,63.37L171.64,80.49L186.79,98.37L201.05,116.97L214.37,136.25L226.73,156.17L238.10,176.66L248.45,197.69L257.76,219.20L266,241.14L273.15,263.46L279.20,286.10L284.13,309.01L287.94,332.14L290.60,355.42L292.11,378.81L292.48,393.75L293.57,393.75L295.06,393.75L296.55,393.75L302.50,393.75L303.98,393.75L304.74,391.01L305.47,388.26L306.22,385.51L306.96,382.75L307.71,380L308.45,377.25L309.20,374.50L309.93,371.74L310.69,368.99L311.42,366.25L312.16,368.99L312.91,371.74L313.64,374.50L314.40,377.25L315.15,380L315.88,382.75L314.40,382.75L312.91,382.75L311.42,382.75L309.93,382.75L308.45,382.75L306.96,382.75L308.45,382.75L309.93,382.75L311.42,382.75L312.91,382.75L314.40,382.75L315.88,382.75L316.62,385.51L317.37,388.26L318.11,391.01L318.86,393.75L324.81,393.75L326.30,393.75L327.78,393.75L329.27,393.75L330.76,393.75L331.35,393.75L331.35,392.27L331.35,390.78L331.35,389.29L331.35,387.81L331.35,386.32L331.35,384.83L331.35,383.34L331.35,381.86L331.35,380.37L331.35,378.88L331.35,377.39L331.35,375.90L331.35,374.42L331.35,373.68L331.35,372.19L330.16,372.19L328.97,372.19L327.78,372.19L325.56,372.19L327.78,372.19L328.97,372.19L330.16,372.19L331.35,372.19L332.54,372.19L333.73,372.19L334.92,372.19L337.16,372.19L334.92,372.19L333.73,372.19L332.54,372.19L331.35,372.19L331.35,370.71L331.35,369.22L331.35,367.73L331.35,366.25L331.35,367.73L331.35,369.22L331.35,370.71L331.35,372.19L331.35,373.68L331.35,374.42L331.35,375.90L331.35,377.39L331.35,378.88L331.35,380.37L331.35,381.86L331.35,383.34L331.35,384.83L331.35,386.32L331.35,387.81L331.35,389.29L331.35,390.78L331.35,392.27L331.35,393.75L332.84,393.75L334.33,393.75L336.41,393.75L338.20,393.75L344.15,393.75L345.63,393.75L347.12,393.75L348.61,393.75L350.10,393.75L349.66,392.27L349.20,390.78L348.77,389.29L348.31,387.81L347.87,386.32L347.42,384.83L346.98,383.34L346.53,381.86L346.09,380.37L345.63,378.88L346.09,380.37L346.53,381.86L346.98,383.34L347.42,384.83L347.87,386.32L348.31,387.81L348.77,389.29L349.20,390.78L349.66,392.27L350.10,393.75L350.53,392.27L350.99,390.78L351.44,389.29L351.88,387.81L352.34,386.32L352.77,384.83L353.21,383.34L353.67,381.86L354.12,380.37L354.56,378.88L355.00,380.37L355.45,381.86L355.89,383.34L356.34,384.83L356.80,386.32L357.24,387.81L357.67,389.29L358.13,390.78L358.58,392.27L359.02,393.75L359.46,392.27L359.91,390.78L360.35,389.29L360.81,387.81L361.26,386.32L361.70,384.83L362.14,383.34L362.59,381.86L363.03,380.37L363.48,378.88L363.03,380.37L362.59,381.86L362.14,383.34L361.70,384.83L361.26,386.32L360.81,387.81L360.35,389.29L359.91,390.78L359.46,392.27L359.02,393.75L360.51,393.75L362.00,393.75L363.48,393.75L364.97,393.75L370.92,393.75L372.41,393.75L373.90,393.75L375.38,393.75L376.87,393.75L378.36,393.75L379.85,393.75L381.33,393.75L382.23,393.75L382.82,393.62L383.71,393.16L384.61,392.27L385.20,391.67L385.80,390.78L386.39,389.29L386.99,387.81L387.28,386.32L386.99,384.83L386.39,383.34L385.80,381.86L385.20,380.96L384.61,380.37L383.71,379.48L382.82,379.04L382.23,378.88L381.04,378.88L379.85,378.88L378.66,378.88L377.47,378.88L376.87,379.04L375.98,379.48L375.09,380.37L374.49,380.96L373.90,381.86L373.30,383.34L372.71,384.83L372.41,386.32L372.71,387.81L373.30,389.29L373.90,390.78L374.49,391.67L375.09,392.27L375.98,393.16L376.87,393.62L377.47,393.75L378.36,393.75L379.85,393.75L381.33,393.75L382.82,393.75L384.31,393.75L385.80,393.75L387.28,393.75L388.77,393.75L394.72,393.75L396.21,393.75L397.70,393.75L399.18,393.75L400.67,393.75L402.16,393.75L403.65,393.75L405.13,393.75L406.03,393.75L406.62,393.62L407.51,393.16L408.41,392.27L409.00,391.67L409.60,390.78L410.19,389.29L410.79,387.81L411.08,386.32L410.79,384.83L410.19,383.34L409.60,381.86L409.00,380.96L408.41,380.37L407.51,379.48L406.62,379.04L406.03,378.88L404.84,378.88L403.65,378.88L402.46,378.88L401.27,378.88L400.67,379.04L399.78,379.48L398.89,380.37L398.29,380.96L397.70,381.86L397.10,383.34L396.51,384.83L396.21,386.32L396.51,387.81L397.10,389.29L397.70,390.78L398.29,391.67L398.89,392.27L399.78,393.16L400.67,393.62L401.27,393.75L402.16,393.75L403.65,393.75L405.13,393.75L406.62,393.75L408.11,393.75L409.60,393.75L411.08,393.75L412.57,393.75L418.52,393.75L420.01,393.75L421.50,393.75L422.98,393.75L425.07,393.75L426.26,393.75L427.45,393.75L428.64,393.75L429.83,393.75L431.02,393.75L431.02,392.27L431.02,390.78L431.02,389.29L431.02,387.81L431.02,386.32L431.02,384.83L431.02,383.34L431.02,381.86L431.02,380.37L431.02,378.88L431.02,377.39L431.02,375.90L431.02,374.42L431.02,372.93L431.02,371.44L431.02,369.95L431.02,368.47L431.02,366.98L431.02,366.25L431.02,366.98L431.02,368.47L431.02,369.95L431.02,371.44L431.02,372.93L431.02,374.42L431.02,375.90L431.02,377.39L431.02,378.88L429.83,378.88L428.64,378.88L427.45,378.88L426.26,378.88L425.07,378.88L424.47,379.04L423.58,379.48L422.69,380.37L422.09,380.96L421.50,381.86L420.90,383.34L420.31,384.83L420.01,386.32L420.31,387.81L420.90,389.29L421.50,390.78L422.09,391.67L422.69,392.27L423.58,393.16L424.47,393.62L425.07,393.75L426.26,393.75L427.45,393.75L428.64,393.75L429.83,393.75L431.02,393.75L432.50,393.75L438.45,393.75L453,394L453,394L453,394L453,393L454.38,393.97"/>

  </g>
</svg>
