<?xml version="1.0" standalone="no"?>
<!DOCTYPE svg PUBLIC "-//W3C//DTD SVG 1.1//EN" "http://www.w3.org/Graphics/SVG/1.1/DTD/svg11.dtd">
<svg width="500" height="500" title="polygons" version="1.1" viewBox="0 0 500 500" xmlns="http://www.w3.org/2000/svg" class="svg-paper">
  <g>
    <!--  Created by Sandify -->
    <!--  https://sandify.org -->
    <!--  Version: 0.2.4 -->

    <!--  Machine type: Polar -->
    <!--    Max radius (mm): 250 -->
    <!--    Start point: center -->
    <!--    End point: perimeter -->
    <!--  Content type: machine -->
    <!--  Reverse export path: false -->

    <!-- File name: 'wiper-01-reversible' -->


    <desc>pwidth:500;pheight:500;</desc>
    <path
       stroke="#000000"
       stroke-width="0.4mm"
       fill="none"
       d="M250,250L250,250L426.78,426.78L427,426L73.95,72.50L73.95,72.50L73.95,72.50L77.84,68.73L431.26,422.17L431.26,422.17L434.67,418.51L81.50,65.32L81.50,65.32L85.23,61.98L438.01,414.78L438.01,414.78L441.28,410.97L89.04,58.71L89.04,58.71L92.91,55.52L444.47,407.10L444.47,407.10L447.60,403.15L96.86,52.39L96.86,52.39L100.88,49.34L450.65,399.13L450.65,399.13L453.63,395.04L104.97,46.36L104.97,46.36L109.14,43.46L456.53,390.87L456.53,390.87L459.36,386.63L113.38,40.63L113.38,40.63L117.70,37.88L462.12,382.31L462.12,382.31L464.79,377.92L122.09,35.20L122.09,35.20L126.56,32.60L467.39,373.45L467.39,373.45L469.91,368.90L131.12,30.08L131.12,30.08L135.75,27.64L472.36,364.27L472.36,364.27L474.72,359.56L140.46,25.28L140.46,25.28L145.25,23.00L476.99,354.76L476.99,354.76L479.18,349.88L150.13,20.81L150.13,20.81L155.11,18.71L481.28,344.91L481.28,344.91L483.29,339.85L160.16,16.70L160.16,16.70L165.32,14.78L485.21,334.70L485.21,334.70L487.04,329.46L170.56,12.96L170.56,12.96L175.91,11.23L488.76,324.11L488.76,324.11L490.39,318.66L181.36,9.61L181.36,9.61L186.91,8.09L491.90,313.11L491.90,313.11L493.31,307.44L192.58,6.68L192.58,6.68L198.36,5.39L494.60,301.67L494.60,301.67L495.77,295.77L204.26,4.22L204.26,4.22L210.28,3.18L496.82,289.74L496.82,289.74L497.73,283.59L216.44,2.26L216.44,2.26L222.74,1.49L498.51,277.29L498.51,277.29L499.13,270.84L229.19,0.87L229.19,0.87L235.79,0.40L499.60,264.23L499.60,264.23L499.89,257.46L242.57,0.11L242.57,0.11L249.53,0.00L500,250.50L500,250.50L499.91,243.34L256.69,0.09L256.69,0.09L264.07,0.40L499.61,235.96L499.61,235.96L499.06,228.34L271.69,0.94L271.69,0.94L279.57,1.75L498.25,220.46L498.25,220.46L497.14,212.28L287.75,2.87L287.75,2.87L296.28,4.32L495.69,203.75L495.69,203.75L493.84,194.83L305.2,6.17L305.2,6.17L314.59,8.49L491.52,185.45L491.52,185.45L488.64,175.49L324.54,11.37L324.54,11.37L335.21,14.97L485.04,164.83L485.04,164.83L480.58,153.39L480.51,153.22L346.82,19.51L346.82,19.51L358.01,24.54L359.77,25.39L474.63,140.27L474.63,140.27L468.98,129.38L466.60,125.17L374.87,33.42L374.87,33.42L385.35,39.81L395.50,46.70L405.30,54.08L414.72,61.94L423.75,70.25L432.36,78.99L440.53,88.15L448.25,97.69L455.48,107.60L462.22,117.86L468.45,128.43L474.15,139.29L479.31,150.42L483.92,161.80L487.97,173.38L491.44,185.15L494.33,197.07L496.64,209.13L498.35,221.28L499.46,233.50L499.96,245.76L499.87,258.03L499.18,270.28L497.88,282.48L495.99,294.61L493.50,306.62L490.43,318.50L486.78,330.22L482.56,341.74L477.78,353.04L472.45,364.09L466.58,374.87L460.19,385.35L453.3,395.50L445.92,405.30L438.06,414.72L429.75,423.75L426.27,427.28L425,426L425,426L425,425L426.76,426.79L426.76,426.79L426.76,426.79L423.19,430.30L69.71,76.81L69.71,76.81L66.28,80.45L419.54,433.73L419.54,433.73L415.83,437.09L62.93,84.16L62.93,84.16L59.64,87.94L412.04,440.37L412.04,440.37L408.19,443.59L56.42,91.80L56.42,91.80L53.28,95.73L404.26,446.73L404.26,446.73L400.26,449.80L50.21,99.73L50.21,99.73L47.21,103.80L396.19,452.80L396.19,452.80L392.04,455.73L44.28,107.94L44.28,107.94L41.43,112.16L387.82,458.58L387.82,458.58L383.53,461.35L38.66,116.46L38.66,116.46L35.96,120.83L379.16,464.05L379.16,464.05L374.71,466.68L33.33,125.28L33.33,125.28L30.79,129.80L370.18,469.22L370.18,469.22L365.57,471.68L28.33,134.41L28.33,134.41L25.94,139.10L360.88,474.06L360.88,474.06L356.11,476.36L23.65,143.87L23.65,143.87L21.43,148.73L351.25,478.58L351.25,478.58L346.31,480.70L19.30,153.67L19.30,153.67L17.27,158.70L341.28,482.74L341.28,482.74L336.15,484.69L15.32,163.83L15.32,163.83L13.47,169.05L330.93,486.54L330.93,486.54L325.61,488.29L11.72,174.37L11.72,174.37L10.06,179.79L320.19,489.94L320.19,489.94L314.67,491.49L8.51,185.31L8.51,185.31L7.08,190.94L309.04,492.93L309.04,492.93L303.29,494.25L5.75,196.69L5.75,196.69L4.54,202.55L297.43,495.46L297.43,495.46L291.44,496.54L3.46,208.54L3.46,208.54L2.51,214.66L285.31,497.49L285.31,497.49L279.06,498.31L1.70,220.92L1.70,220.92L1.03,227.32L272.65,498.97L272.65,498.97L272.34,499L265.61,499L1,234.36L1,241.43L258.54,499L251.47,499L1,248.50L1,255.57L244.40,499L237.32,499L1,262.65L1,269.72L230.25,499L227.66,499L227.66,499L222.69,498.50L1.49,277.28L1.49,277.28L2.52,285.38L214.59,497.48L214.59,497.48L206.17,496.13L3.87,293.80L3.87,293.80L5.60,302.60L197.37,494.40L197.37,494.40L188.12,492.22L7.77,311.84L7.77,311.84L10.48,321.63L178.34,489.51L178.34,489.51L167.89,486.13L13.86,332.07L13.86,332.07L18.10,343.39L156.58,481.89L156.58,481.89L145.31,477.02L144.06,476.44L23.54,355.90L23.54,355.90L29.01,366.88L30.82,370.26L129.70,469.15L129.70,469.15L119.09,462.99L108.80,456.31L106.5,454.71L107,454L107,454L107,453L47,394L47,394L47,393L45.62,393.97"/>

  </g>
</svg>
